<svg xmlns="http://www.w3.org/2000/svg" viewBox="0 0 461.2 118.05"><defs><style>.cls-1,.cls-2,.cls-3{fill:#07539b;}.cls-1{fill-rule:evenodd;}.cls-3{stroke:#07539b;stroke-miterlimit:3.86;stroke-width:1.28px;}.cls-4{fill:none;}</style></defs><title>Asset 2</title><g id="Layer_2" data-name="Layer 2"><g id="Layer_1-2" data-name="Layer 1"><path class="cls-1" d="M170.43,56.86h-6.17l-.73,1.7a3.78,3.78,0,0,0-.36,1.4,1.17,1.17,0,0,0,.59,1.08,5,5,0,0,0,1.71.31v.48h-5.81v-.48a2.61,2.61,0,0,0,1.55-.77,10.54,10.54,0,0,0,1.5-2.64L168.94,44h.24l6.3,14.33A8.72,8.72,0,0,0,177,60.9a2,2,0,0,0,1.24.46v.48h-8.46v-.48h.35a2.65,2.65,0,0,0,1.43-.28.69.69,0,0,0,.28-.59,1.58,1.58,0,0,0-.08-.48q0-.12-.39-1l-.93-2.18Zm-.44-1-2.6-6-2.68,6Z"/><path class="cls-2" d="M188.93,49.78v9.44a3.51,3.51,0,0,0,.26,1.73,1.5,1.5,0,0,0,1,.43v.46h-4.91V60.23a6.31,6.31,0,0,1-1.73,1.51,4,4,0,0,1-1.93.46,2.89,2.89,0,0,1-1.82-.62,3.1,3.1,0,0,1-1.06-1.47,10.79,10.79,0,0,1-.27-2.93V52.4a3.39,3.39,0,0,0-.26-1.7,1.5,1.5,0,0,0-1-.44v-.48h4.91V58a7.19,7.19,0,0,0,.12,1.66,1.15,1.15,0,0,0,.39.57,1,1,0,0,0,.62.19,1.49,1.49,0,0,0,.84-.25,5.31,5.31,0,0,0,1.24-1.35V52.4a3.39,3.39,0,0,0-.26-1.7,1.5,1.5,0,0,0-1-.44v-.48Z"/><path class="cls-2" d="M198.66,49.45l.19,4.11h-.44a6.42,6.42,0,0,0-1.64-2.5,2.69,2.69,0,0,0-1.68-.67,1.25,1.25,0,0,0-.9.36,1.08,1.08,0,0,0-.37.81,1.06,1.06,0,0,0,.26.67,12.44,12.44,0,0,0,2.31,1.82,9.24,9.24,0,0,1,2.49,2.18,3.47,3.47,0,0,1,.61,2,4.23,4.23,0,0,1-.5,2,3.53,3.53,0,0,1-1.42,1.48,4.06,4.06,0,0,1-2,.52,7,7,0,0,1-2.31-.54,1.94,1.94,0,0,0-.53-.14q-.43,0-.71.64h-.43l-.21-4.33h.44a5.64,5.64,0,0,0,1.59,2.55,3.08,3.08,0,0,0,1.92.85,1.39,1.39,0,0,0,1-.37,1.25,1.25,0,0,0,.4-.93,1.59,1.59,0,0,0-.39-1.07,10.12,10.12,0,0,0-1.73-1.37A13.53,13.53,0,0,1,192,55.4a3.63,3.63,0,0,1-.85-2.33,3.78,3.78,0,0,1,1-2.51,3.46,3.46,0,0,1,2.78-1.13,4.05,4.05,0,0,1,1.89.48,1.26,1.26,0,0,0,.57.19.69.69,0,0,0,.37-.09,2.67,2.67,0,0,0,.45-.55Z"/><path class="cls-2" d="M205,45.38v4.41h2.86v1.28H205V58.5a6.15,6.15,0,0,0,.09,1.35,1,1,0,0,0,.35.49.78.78,0,0,0,.45.18q.84,0,1.59-1.28l.39.28A3.52,3.52,0,0,1,204.52,62a3,3,0,0,1-1.95-.63,2.86,2.86,0,0,1-1-1.43,12.13,12.13,0,0,1-.13-2.37V51.06h-1.57v-.45a16.4,16.4,0,0,0,2.76-2.41,14.54,14.54,0,0,0,2-2.82Z"/><path class="cls-2" d="M213.79,49.78v2.73a8.71,8.71,0,0,1,2.1-2.48,3.09,3.09,0,0,1,1.74-.62,1.5,1.5,0,0,1,1.15.45,1.69,1.69,0,0,1,.44,1.25,2,2,0,0,1-.43,1.34,1.28,1.28,0,0,1-1,.48,1.74,1.74,0,0,1-1.19-.44A7.33,7.33,0,0,0,216,52a.57.57,0,0,0-.3-.08,1.08,1.08,0,0,0-.71.28,2.68,2.68,0,0,0-.8,1.25,8.76,8.76,0,0,0-.41,2.76v3.49a3,3,0,0,0,.09.94,1.07,1.07,0,0,0,.45.52,2.83,2.83,0,0,0,1,.19v.46h-6.51v-.46a1.41,1.41,0,0,0,1.06-.43,4,4,0,0,0,.28-1.95V52.34a5,5,0,0,0-.1-1.31,1,1,0,0,0-.37-.53,2,2,0,0,0-.86-.23v-.48Z"/><path class="cls-1" d="M225.84,60.06a6.36,6.36,0,0,1-4,1.95,2.35,2.35,0,0,1-1.71-.67,2.31,2.31,0,0,1-.68-1.7,3.3,3.3,0,0,1,1.19-2.48,22.24,22.24,0,0,1,5.17-2.94V53a5.56,5.56,0,0,0-.15-1.71,1.31,1.31,0,0,0-.55-.62,1.65,1.65,0,0,0-.93-.27,2.38,2.38,0,0,0-1.38.37.66.66,0,0,0-.34.54,1.12,1.12,0,0,0,.36.67,1.65,1.65,0,0,1,.49,1.07,1.44,1.44,0,0,1-.48,1.08,1.71,1.71,0,0,1-1.22.44,2,2,0,0,1-1.37-.49,1.5,1.5,0,0,1-.54-1.15,2.65,2.65,0,0,1,.73-1.77,4.62,4.62,0,0,1,2-1.3,8.38,8.38,0,0,1,2.73-.45,4.46,4.46,0,0,1,2.71.73,3.37,3.37,0,0,1,1.3,1.57,10.27,10.27,0,0,1,.18,2.49V58.9a4.94,4.94,0,0,0,.06,1,.61.61,0,0,0,.19.31.46.46,0,0,0,.3.1q.33,0,.68-.48l.39.31a4.74,4.74,0,0,1-1.34,1.39,2.89,2.89,0,0,1-1.56.43,2.47,2.47,0,0,1-1.61-.48,2.21,2.21,0,0,1-.71-1.47Zm0-.94v-4a7.52,7.52,0,0,0-2.32,2,2.39,2.39,0,0,0-.5,1.41,1.48,1.48,0,0,0,.43,1,1.17,1.17,0,0,0,.9.35,2.48,2.48,0,0,0,1.5-.72Z"/><path class="cls-2" d="M236.31,44.36v15a2.91,2.91,0,0,0,.3,1.64,1.63,1.63,0,0,0,1.16.4v.46h-6.51v-.46a1.57,1.57,0,0,0,1.19-.46,2.88,2.88,0,0,0,.26-1.57V46.86a2.81,2.81,0,0,0-.3-1.61,1.57,1.57,0,0,0-1.15-.41v-.48Z"/><path class="cls-1" d="M241.83,43.95a2,2,0,1,1-1.41.59,1.91,1.91,0,0,1,1.41-.59Zm1.8,5.84v9.55a2.91,2.91,0,0,0,.3,1.64,1.63,1.63,0,0,0,1.16.4v.46h-6.51v-.46a1.57,1.57,0,0,0,1.19-.46,2.88,2.88,0,0,0,.26-1.57v-7a2.84,2.84,0,0,0-.3-1.62,1.57,1.57,0,0,0-1.15-.41v-.48Z"/><path class="cls-1" d="M252.13,60.06a6.36,6.36,0,0,1-4,1.95,2.35,2.35,0,0,1-1.71-.67,2.31,2.31,0,0,1-.68-1.7A3.3,3.3,0,0,1,247,57.16a22.25,22.25,0,0,1,5.17-2.94V53a5.55,5.55,0,0,0-.15-1.71,1.31,1.31,0,0,0-.55-.62,1.65,1.65,0,0,0-.93-.27,2.38,2.38,0,0,0-1.38.37.66.66,0,0,0-.34.54,1.12,1.12,0,0,0,.36.67,1.66,1.66,0,0,1,.49,1.07,1.44,1.44,0,0,1-.48,1.08,1.71,1.71,0,0,1-1.22.44,2,2,0,0,1-1.37-.49,1.5,1.5,0,0,1-.54-1.15,2.65,2.65,0,0,1,.73-1.77,4.62,4.62,0,0,1,2-1.3,8.38,8.38,0,0,1,2.73-.45,4.46,4.46,0,0,1,2.71.73,3.37,3.37,0,0,1,1.3,1.57,10.27,10.27,0,0,1,.18,2.49V58.9a5,5,0,0,0,.06,1,.62.62,0,0,0,.19.31.46.46,0,0,0,.3.1q.33,0,.68-.48l.39.31A4.74,4.74,0,0,1,256,61.58a2.89,2.89,0,0,1-1.56.43,2.47,2.47,0,0,1-1.61-.48,2.21,2.21,0,0,1-.71-1.47Zm0-.94v-4a7.52,7.52,0,0,0-2.32,2,2.38,2.38,0,0,0-.5,1.41,1.47,1.47,0,0,0,.43,1,1.17,1.17,0,0,0,.9.35,2.48,2.48,0,0,0,1.5-.72Z"/><path class="cls-2" d="M262.54,49.78v1.56a7,7,0,0,1,1.78-1.46,3.76,3.76,0,0,1,1.83-.46,2.9,2.9,0,0,1,1.95.66,3.09,3.09,0,0,1,1,1.61,12.51,12.51,0,0,1,.21,2.82v4.69a3.71,3.71,0,0,0,.24,1.74,1.52,1.52,0,0,0,1.06.43v.46h-6.1v-.46a1.27,1.27,0,0,0,1-.57,3.71,3.71,0,0,0,.21-1.6V53.85a8.79,8.79,0,0,0-.12-1.87,1.1,1.1,0,0,0-.4-.59.94.94,0,0,0-.61-.22q-1.11,0-2.06,1.59v6.46a3.68,3.68,0,0,0,.24,1.71,1.31,1.31,0,0,0,.94.45v.46h-6.1v-.46a1.5,1.5,0,0,0,1.08-.49,3.62,3.62,0,0,0,.22-1.68V52.4a3.38,3.38,0,0,0-.26-1.7,1.5,1.5,0,0,0-1-.44v-.48Z"/><path class="cls-2" d="M294.38,44v6.16h-.48a7.86,7.86,0,0,0-2.59-3.84A6.1,6.1,0,0,0,287.53,45a4.86,4.86,0,0,0-3.26,1.11,5.93,5.93,0,0,0-1.84,3.07,15.23,15.23,0,0,0-.54,4,14.79,14.79,0,0,0,.59,4.41,5,5,0,0,0,1.91,2.78,5.52,5.52,0,0,0,3.15.89,6.67,6.67,0,0,0,1.29-.13,9.74,9.74,0,0,0,1.37-.4V57.11a3.81,3.81,0,0,0-.14-1.33,1.29,1.29,0,0,0-.59-.55,2.17,2.17,0,0,0-1.07-.25h-.45V54.5h8.49V55a3.66,3.66,0,0,0-1.35.27,1.29,1.29,0,0,0-.58.66,3.65,3.65,0,0,0-.12,1.2v3.64a16.88,16.88,0,0,1-3.49,1.12,17.86,17.86,0,0,1-3.75.39,11.06,11.06,0,0,1-4.14-.67,10.63,10.63,0,0,1-2.9-1.78,8.51,8.51,0,0,1-2-2.49,8.67,8.67,0,0,1-.9-4A9,9,0,0,1,280,46.66a9.55,9.55,0,0,1,7-2.72,12.19,12.19,0,0,1,2.35.21,11.67,11.67,0,0,1,1.83.59,7.79,7.79,0,0,0,1.51.48,1,1,0,0,0,.67-.26,2.41,2.41,0,0,0,.57-1Z"/><path class="cls-1" d="M302.74,49.42a5.59,5.59,0,0,1,2.93.81,5.16,5.16,0,0,1,2,2.31,7.56,7.56,0,0,1,.71,3.27,6.93,6.93,0,0,1-1.3,4.29,5.14,5.14,0,0,1-4.34,2.09,5,5,0,0,1-4.19-1.91,7,7,0,0,1-1.47-4.42,7.13,7.13,0,0,1,1.5-4.51,5,5,0,0,1,4.13-1.93Zm.05.92a1.51,1.51,0,0,0-1.13.5,3.51,3.51,0,0,0-.62,2q-.14,1.46-.14,4.06a17.29,17.29,0,0,0,.18,2.58,2.48,2.48,0,0,0,.61,1.39,1.44,1.44,0,0,0,1.06.48,1.46,1.46,0,0,0,1-.32,2.16,2.16,0,0,0,.67-1.22,29.82,29.82,0,0,0,.26-4.95,12.15,12.15,0,0,0-.24-3,2.31,2.31,0,0,0-.72-1.2,1.35,1.35,0,0,0-.88-.27Z"/><path class="cls-2" d="M314.11,62.2l-4.06-9.35a9.22,9.22,0,0,0-1.15-2.14,1.53,1.53,0,0,0-.88-.45v-.48h6.41v.48a1.17,1.17,0,0,0-.82.22.88.88,0,0,0-.31.67,5.76,5.76,0,0,0,.57,1.79l2,4.52,1.59-3.91a7.56,7.56,0,0,0,.68-2.37.8.8,0,0,0-.3-.64,1.62,1.62,0,0,0-1-.28v-.48h3.94v.48a1.61,1.61,0,0,0-.93.43,7.87,7.87,0,0,0-1.08,2l-4,9.46Z"/><path class="cls-1" d="M330.24,55.38h-6.61a6.23,6.23,0,0,0,1.28,3.79A2.69,2.69,0,0,0,327,60.24a2.46,2.46,0,0,0,1.41-.43,5.55,5.55,0,0,0,1.35-1.56l.44.28a7.36,7.36,0,0,1-2.17,2.84,4.69,4.69,0,0,1-2.75.82,4.57,4.57,0,0,1-4.06-2.06A7.27,7.27,0,0,1,320.16,56a6.84,6.84,0,0,1,1.62-4.8,5,5,0,0,1,3.83-1.79,4.12,4.12,0,0,1,3.17,1.51,6.81,6.81,0,0,1,1.46,4.45Zm-3.17-.86a11.58,11.58,0,0,0-.23-2.85,2.3,2.3,0,0,0-.7-1.17,1.07,1.07,0,0,0-.72-.23,1.27,1.27,0,0,0-1.1.66,5.64,5.64,0,0,0-.76,3.15v.45Z"/><path class="cls-2" d="M336,49.78v2.73a8.71,8.71,0,0,1,2.1-2.48,3.09,3.09,0,0,1,1.74-.62,1.5,1.5,0,0,1,1.15.45,1.69,1.69,0,0,1,.44,1.25,1.94,1.94,0,0,1-.43,1.34,1.28,1.28,0,0,1-1,.48,1.75,1.75,0,0,1-1.19-.44,7.46,7.46,0,0,0-.59-.49.57.57,0,0,0-.3-.08,1.08,1.08,0,0,0-.71.28,2.68,2.68,0,0,0-.8,1.25,8.76,8.76,0,0,0-.41,2.76v3.49a3,3,0,0,0,.09.94,1.07,1.07,0,0,0,.45.52,2.83,2.83,0,0,0,1,.19v.46H331v-.46a1.41,1.41,0,0,0,1.06-.43,4,4,0,0,0,.28-1.95V52.34a5,5,0,0,0-.1-1.31,1,1,0,0,0-.37-.53,2,2,0,0,0-.86-.23v-.48Z"/><path class="cls-2" d="M347.07,49.78v1.56a7,7,0,0,1,1.78-1.46,3.76,3.76,0,0,1,1.83-.46,2.9,2.9,0,0,1,1.95.66,3.09,3.09,0,0,1,1,1.61,12.49,12.49,0,0,1,.21,2.82v4.69a3.71,3.71,0,0,0,.25,1.74,1.52,1.52,0,0,0,1.06.43v.46h-6.1v-.46a1.27,1.27,0,0,0,1-.57,3.7,3.7,0,0,0,.21-1.6V53.85a8.78,8.78,0,0,0-.12-1.87,1.1,1.1,0,0,0-.4-.59.94.94,0,0,0-.61-.22q-1.11,0-2.06,1.59v6.46a3.67,3.67,0,0,0,.24,1.71,1.3,1.3,0,0,0,.94.45v.46h-6.1v-.46a1.5,1.5,0,0,0,1.08-.49,3.62,3.62,0,0,0,.22-1.68V52.4a3.39,3.39,0,0,0-.26-1.7,1.5,1.5,0,0,0-1-.44v-.48Z"/><path class="cls-2" d="M361,49.78v1.59a6.84,6.84,0,0,1,1.83-1.51,4,4,0,0,1,1.86-.44,3.35,3.35,0,0,1,1.95.54,3.41,3.41,0,0,1,1.21,1.65,7.71,7.71,0,0,1,2-1.68,4.12,4.12,0,0,1,2-.52,3.12,3.12,0,0,1,2,.58,2.89,2.89,0,0,1,1,1.46,9.59,9.59,0,0,1,.3,2.81v4.94a3.62,3.62,0,0,0,.24,1.73,1.55,1.55,0,0,0,1.06.44v.46h-6.23v-.46a1.38,1.38,0,0,0,1.08-.57,3.42,3.42,0,0,0,.23-1.6V54a9.63,9.63,0,0,0-.13-2,1.18,1.18,0,0,0-.41-.64,1,1,0,0,0-.64-.22,1.91,1.91,0,0,0-1.12.41,5.07,5.07,0,0,0-1.15,1.21v6.47a3.68,3.68,0,0,0,.22,1.64,1.33,1.33,0,0,0,1.13.53v.46H363.2v-.46a1.38,1.38,0,0,0,.79-.24,1.07,1.07,0,0,0,.39-.54,5.72,5.72,0,0,0,.1-1.38V54a9.39,9.39,0,0,0-.13-2,1.24,1.24,0,0,0-.44-.64,1,1,0,0,0-.64-.23,1.72,1.72,0,0,0-.94.27A5.26,5.26,0,0,0,361,52.74v6.47a3.79,3.79,0,0,0,.24,1.69,1.34,1.34,0,0,0,1.06.48v.46h-6.21v-.46a1.5,1.5,0,0,0,1.08-.49,3.63,3.63,0,0,0,.22-1.68V52.4a3.39,3.39,0,0,0-.26-1.7,1.5,1.5,0,0,0-1-.44v-.48Z"/><path class="cls-1" d="M387.18,55.38h-6.61a6.23,6.23,0,0,0,1.28,3.79A2.7,2.7,0,0,0,384,60.24a2.46,2.46,0,0,0,1.41-.43,5.55,5.55,0,0,0,1.35-1.56l.44.28A7.36,7.36,0,0,1,385,61.37a4.69,4.69,0,0,1-2.75.82,4.57,4.57,0,0,1-4.06-2.06A7.27,7.27,0,0,1,377.1,56a6.84,6.84,0,0,1,1.62-4.8,5,5,0,0,1,3.83-1.79,4.11,4.11,0,0,1,3.17,1.51,6.81,6.81,0,0,1,1.46,4.45ZM384,54.52a11.58,11.58,0,0,0-.23-2.85,2.3,2.3,0,0,0-.7-1.17,1.07,1.07,0,0,0-.72-.23,1.27,1.27,0,0,0-1.1.66,5.64,5.64,0,0,0-.76,3.15v.45Z"/><path class="cls-2" d="M392.55,49.78v1.56a7,7,0,0,1,1.78-1.46,3.76,3.76,0,0,1,1.83-.46,2.9,2.9,0,0,1,1.95.66,3.09,3.09,0,0,1,1,1.61,12.51,12.51,0,0,1,.21,2.82v4.69a3.71,3.71,0,0,0,.24,1.74,1.52,1.52,0,0,0,1.06.43v.46h-6.1v-.46a1.27,1.27,0,0,0,1-.57,3.71,3.71,0,0,0,.21-1.6V53.85a8.79,8.79,0,0,0-.12-1.87,1.1,1.1,0,0,0-.4-.59.94.94,0,0,0-.61-.22q-1.11,0-2.06,1.59v6.46a3.67,3.67,0,0,0,.25,1.71,1.3,1.3,0,0,0,.94.45v.46h-6.1v-.46a1.5,1.5,0,0,0,1.08-.49,3.62,3.62,0,0,0,.22-1.68V52.4a3.38,3.38,0,0,0-.26-1.7,1.5,1.5,0,0,0-1-.44v-.48Z"/><path class="cls-2" d="M405.78,45.38v4.41h2.86v1.28h-2.86V58.5a6.17,6.17,0,0,0,.09,1.35,1.05,1.05,0,0,0,.35.49.78.78,0,0,0,.45.18q.84,0,1.59-1.28l.39.28A3.52,3.52,0,0,1,405.25,62a3,3,0,0,1-1.95-.63,2.86,2.86,0,0,1-1-1.43,12.13,12.13,0,0,1-.13-2.37V51.06h-1.57v-.45a16.4,16.4,0,0,0,2.76-2.41,14.53,14.53,0,0,0,2-2.82Z"/><path class="cls-2" d="M62.29,90.6a.8.8,0,0,1-.33.33"/><path class="cls-2" d="M65.31,67a.64.64,0,1,0-.63-.64.63.63,0,0,0,.63.64Z"/><path class="cls-2" d="M94.56,40.34H71.81l0,18.37c0,1.77.75,3.32,1.79,3.8l8.75,5.22a1.06,1.06,0,0,0,1.51.08l8.88-5.31c1-.48,1.79-2,1.79-3.8l0-18.37ZM79.37,45.66h-2V41h2v4.7ZM77.94,47.3l.28-.29L78,46.68l.37,0,.22-.39.22.38.37,0-.17.32.28.29-.36.07v.4l-.34-.25-.34.25v-.4l-.36-.07Zm-5.49,5.85V48.68h2.39v4.46Zm.39-6.46.37,0,.22-.39.22.38.37,0-.17.32.28.29-.36.07v.4l-.34-.25-.34.25v-.4l-.36-.07L73,47l-.17-.32Zm2.7,4.54.37,0,.22-.39.22.38.37,0-.17.32.28.29-.36.07v.4L76.13,52l-.34.25v-.4l-.36-.07.28-.29-.17-.32Zm1.59-3.59c0-.12-.17-.15-.24-.15s-.3.35-.48.36-.23,0-.23-.14.27-.21.38-.31c-1.47,0-1.5.68-1.73.68-.39,0,.32-.71.53-.92-.3,0-.47-.42-.8-.6.15-.22.24-.13.43,0,0-.15.12-.34.46-.34.66,0,.47.64.58.64s0-.64.43-.64c.65,0,1.47,1.68.73,1.68-.32,0-.06-.24-.07-.28Zm-1.69-4.92.28-.29-.17-.32.37,0,.22-.39.22.38.37,0-.17.32.28.29-.36.07v.4l-.34-.25-.34.25v-.4l-.36-.07ZM74.84,41v4.7H72.45V41Zm4.53,24.27L73.93,62a3.9,3.9,0,0,1-1.48-3V53.77h6.92V65.22Zm-2-12.07V48.68h2v4.46Zm9,12.44-2.51,1.5h0a1.07,1.07,0,0,1-.66.23,1.05,1.05,0,0,1-.67-.24L80,65.59V53.77h6.39V65.59Zm0-12.44H80V41h6.39V53.15Zm7.54,5.79a3.9,3.9,0,0,1-1.48,3L87,65.22V53.77h6.92v5.17Zm0-5.79H87V41h6.92V53.15Z"/><path class="cls-2" d="M79,58c0-.07-.87.28-.63.25a2.48,2.48,0,0,1,.69-.93c0-.29-.41,0-.8.18,1.29-1.86.46-1.09-.26-1,1.16-1.25.85-1.22,0-.84.67-.53.81-1.16.71-1.35-.63.84-1.21.71-1.21,1.48a3.1,3.1,0,0,1-.45,1.63c-.34.37-.08-1.37-1-1.37-.28,0-1,0-1.16.32.18,0,.45.46.45.64s.17.69-.14.69-.66-.64-.66-.94,0-.23,0-.67a2.46,2.46,0,0,0-1.68-1.77c0,.51.67.63.67,1.29-.28,0-.69-.53-.69-.2s.43.39.43.67-.49-.1-.49.2.27.22.33.49c-.2-.06-.37,0-.41.07s.06.2.21.29c-.07.06-.13.22-.13.65,0,1.45.91,2.12,1.58,2.12.47,0,.4-.33.46-.49,0,.25.25-.12.25.31s-.46.25-.46.64.73,0,.73.56a6.83,6.83,0,0,1-.09.95c0,.18.76-.25.72-.33.18.07.18.61.51.59s.27-.55.44-.6c-.1,0,.69.52.69.27,0-.68-.28-.39-.28-.85s.94-.35.79-.56-.21-.07-.31-.39c0,.06-.74-1.07.16-.49s1-1.43,1-1.53Z"/><path class="cls-2" d="M103.27,62.78a.66.66,0,1,0-.75-.66.71.71,0,0,0,.75.66Z"/><path class="cls-2" d="M100.24,64.58a.66.66,0,1,0-.75-.66.71.71,0,0,0,.75.66Z"/><path class="cls-2" d="M64.3,68.72a.66.66,0,1,0-.75-.66.71.71,0,0,0,.75.66Z"/><path class="cls-2" d="M66.63,68.92a.66.66,0,1,0-.75-.66.71.71,0,0,0,.75.66Z"/><path class="cls-2" d="M131.34,37.56a4.68,4.68,0,0,1,.56,5c-.44,0-.36-.6-.44-.92-.79-1.48-1.43-3.36-.71-5,.52.08.32.72.6,1Z"/><path class="cls-2" d="M36.38,39.36a7.06,7.06,0,0,0,0,3.16c-.2.2-.16-.2-.36-.16-1.55-1.12-.83-3.32-1.23-4.87a.31.31,0,0,1,.4-.08,2.85,2.85,0,0,1,1.19,2Z"/><path class="cls-2" d="M134.75,39.48c.24.44-.2.88-.52,1.08a1,1,0,0,1-1-.44.92.92,0,0,1,.48-1,1,1,0,0,1,1,.4Z"/><path class="cls-2" d="M34,41.23a1.18,1.18,0,0,1-.51.88c-.24,0-.6,0-.75-.2a.74.74,0,0,1-.16-.84.92.92,0,0,1,.75-.36c.28.12.55.2.67.52Z"/><path class="cls-2" d="M136.3,41.91a.77.77,0,0,1-1.07,1,1.07,1.07,0,0,1-.44-.68,1.21,1.21,0,0,1,.67-.72,1.27,1.27,0,0,1,.83.4Z"/><path class="cls-2" d="M134,42c.32.16.08.56,0,.8-.2.2-.48.52-.83.4-.2-.2-.43-.2-.51-.48a.88.88,0,0,1,.55-.92,1,1,0,0,1,.75.2Z"/><path class="cls-2" d="M131.14,42.55c0,.44,0,1-.48,1.08a.75.75,0,0,1-.91-.56.94.94,0,0,1,.59-1,1.08,1.08,0,0,1,.79.44Z"/><path class="cls-2" d="M38.28,42.75c.12.4-.28.64-.51.84a.81.81,0,0,1-.79-.44c-.28-.28.08-.52.16-.76a.74.74,0,0,1,1.15.36Z"/><path class="cls-2" d="M35.9,42.87a.82.82,0,0,1-.43.76.72.72,0,0,1-.79-.36.68.68,0,0,1,.36-.92c.44-.16.71.24.87.52Z"/><path class="cls-2" d="M121.54,43a8.38,8.38,0,0,1,.79,2.88c-.16.76.12,1.76-.44,2.28-.56-.2-.59-.88-1-1.24-.71-1.4-.08-3,.16-4.4.32-.12.32.28.44.48Z"/><path class="cls-2" d="M34,43.51c.12.48-.24.72-.52,1a.93.93,0,0,1-1-.56A1,1,0,0,1,33,43a1,1,0,0,1,1,.52Z"/><path class="cls-2" d="M127.81,44.67a5.77,5.77,0,0,1,.2,3.84l-.24.2a15.51,15.51,0,0,1-1.63-3.24,5.32,5.32,0,0,1,.48-2.28c.28-.2.44,0,.55.28a1.57,1.57,0,0,0,.63,1.2Z"/><path class="cls-2" d="M132.81,43.95a1,1,0,0,1-.6,1,.71.71,0,0,1-.91-.48.86.86,0,0,1,.44-1c.44-.24.87.16,1.07.48Z"/><path class="cls-2" d="M35.94,45.19a.85.85,0,0,1-.6.76c-.32.24-.55-.16-.83-.28a1,1,0,0,1,0-.92c.12-.24.4-.24.64-.32.36.2.71.36.79.76Z"/><path class="cls-2" d="M37.69,45c.16.4-.28.6-.44.8-.48.16-.71-.2-.91-.48s.16-.64.44-.88c.48-.12.71.2.91.56Z"/><path class="cls-2" d="M133.92,44.87c0,.52-.83,1-.91,1.56a4,4,0,0,1-2.46,2.24,1.9,1.9,0,0,1-.91.52c-.08-.8.64-1.52,1.07-2.24a5.88,5.88,0,0,1,3.21-2.08Z"/><path class="cls-2" d="M35.15,46.55a14.47,14.47,0,0,0,1.63,1.88.33.33,0,0,1-.28.4c-1.94-.12-3.25-2.12-4.2-3.52.12-.44.63-.08.91-.12.67.52,1.43.68,1.94,1.36Z"/><path class="cls-2" d="M134.47,47.11A5.13,5.13,0,0,1,132,51.42c-.44.16-.91.6-1.35.32a20,20,0,0,1,3.49-4.63Z"/><path class="cls-2" d="M126.86,48.26a1,1,0,0,1-.67,1.16c-.44,0-.71-.32-.91-.64a.83.83,0,0,1,.56-.88.66.66,0,0,1,.48-.12c.24.08.36.28.56.48Z"/><path class="cls-2" d="M33,48.62a23.24,23.24,0,0,1,2.14,1.88c-.51.36-1.15,0-1.75,0-1.35-.48-2.26-1.64-3.65-2,0-.44.56-.28.83-.4a7.27,7.27,0,0,1,2.42.52Z"/><path class="cls-2" d="M75.45,36.8c-2.22-.88-3.69,1.44-6,1.16-.28.16-.2.44-.36.64s-.32,0-.44,0c-.12-1-.44-1.84-.56-2.76-.24-.4-.12-1-.32-1.36-1.27-3.48,3.09-.84,4-2.88.76-1.76-1.47-2-2.14-3.2v-.52C69,27.21,68.35,27,68,26.17a5.78,5.78,0,0,0,.12-3.08c0-.24-.2-.56-.55-.44-.75,1-1.31,1.88-2,2.88a21.35,21.35,0,0,0-2.34-1.76c-.6-.08-1.15-.68-1.82-.44a.55.55,0,0,0,.12.6,5.73,5.73,0,0,0,1.94,3.92l.12.6C62.8,30.09,63,32,62.8,33.72a29.26,29.26,0,0,1-8.61,12.1c-2.26,2.56-5,5-5.32,8.55-.12.56.08,1.24-.36,1.64a13.64,13.64,0,0,1-3.69-2c-1.82-1.28-4.44-1.12-5.63-3.44-.48-.92.12-1.84.55-2.52,1.35-1.28,1.15-3.56.44-5.11-.16,0-.2.16-.32.2-.12,2.36-2,4-1.27,6.59.16.76.56,1.24.75,2a6.16,6.16,0,0,1-.91-.2,9.93,9.93,0,0,0-2.66-.36C34,52,31.46,51,30,52.66c-.24,0-.56.08-.48.44.87,0,1.7.24,2.58.2,1.39.24,2.3-.92,3.25-1.44h.24c.4-.4,1.07-.16,1.59-.24,2.5.28,4.44,1.48,6.5,2.72v.16c-.79.36-1.71.6-2.5,1A5.39,5.39,0,0,0,39,58.21c-.63,1,.2,1.88.6,2.72,0,.4.08.88.44,1,1.27-1.36.08-3,.28-4.59a3.25,3.25,0,0,1,2.58-2.08c2.26-1,3.89.88,5.71,1.92a27.08,27.08,0,0,1-.2,5.39,4.94,4.94,0,0,1-1.87.28c-3.13.24-5.59,2-8.41,2.92-1.27.44-2.78.4-4,.88a9.85,9.85,0,0,0,3.05-.12C41,66,44,63,48.16,63.53l.08.12a9.38,9.38,0,0,1-1.86,2.6c-.12-.44-.16-.8-.56-1a.74.74,0,0,0-.91.32.55.55,0,0,0,0,.6,1.3,1.3,0,0,0,.87.56c-.08.36-.52.52-.75.84-1.11,1.88-3.37,1.12-4.68,2.44-.2.28-.91.44-.6.88a6,6,0,0,0,4.09-1c1.47-1.64,3-3.2,4.48-4.75a4.76,4.76,0,0,1-.87,3.64,4.67,4.67,0,0,0-1.07-.6,1,1,0,0,0-.71.8,2.35,2.35,0,0,0,.59.8c-1.35,1-3.05,1-4.6,1.48A78,78,0,0,1,33,71.8c-1.39-.08-3,.4-4.28,0-1.51.28-3.13-.2-4.36.64-.16.2,0,.4,0,.6,1.83,1.2,4.33.24,6.39.6H46.42a7,7,0,0,0,3.21-.6c2-1.16,3.13-3.24,4.17-5.27a8.19,8.19,0,0,0,.83-2.4,3.45,3.45,0,0,1,3-2.44A18.18,18.18,0,0,1,56.93,69c-.24,1.28-1.07,2.52-.56,3.88.12.64.79.64,1.31.72,4.8-.08,9.6-.28,14.68.08a11.93,11.93,0,0,0,2.7.4c.08-.12.36-.16.24-.4a1.51,1.51,0,0,0-1-1.12c-.08-.24-.43-.16-.55-.32-2.54-1.44-5.59-.68-8.57-.64-1.55.16-3.09.44-4.4-.44-.59-.72-.16-3-.16-3a57.37,57.37,0,0,1,2.46-7.71,6.9,6.9,0,0,0,.24-1.84,7.74,7.74,0,0,0,.24-2.72,18.53,18.53,0,0,1,1.23-3.72c.24-.6.44-1.24.67-1.84a6,6,0,0,1,.79-2.08c1.29.82,2.56.8,3.18,2.26L70,53.86c0,.2.16.6.44.36,1-.68.71-2.2.71-3.24.24-1.24-.63-1.84-1-2.92a4.78,4.78,0,0,1-.73-1.15c-.16-.88-2.08-1.48-1.65-2.56a3.25,3.25,0,0,1,1.35-2.28.41.41,0,0,1,.2.28l.48-.33,0-3.34c1.28,0,3.2.16,4.51.16.36.12.64.4,1,.44l.32-.44,3.21-.63c-1.36.15-2.19-1.42-3.49-1.42Z"/><path class="cls-2" d="M78.94,38.21l.3-.06-.3.06Z"/><path class="cls-2" d="M44.39,49.34a.88.88,0,0,1-.6.92c-.32-.12-.55-.16-.75-.48s.24-.76.55-.92c.32.08.71.12.79.48Z"/><path class="cls-2" d="M41.82,49.34a.87.87,0,0,1,.16.92c-.28.24-.71.44-1,.12s-.48-.52-.28-.84.75-.52,1.07-.2Z"/><path class="cls-2" d="M97,49.78l0,.06"/><path class="cls-2" d="M127.25,50.46c.16.44-.2.76-.51.92-.4-.12-.91-.2-.91-.72a.76.76,0,0,1,1.43-.2Z"/><path class="cls-2" d="M129.36,50.38c.12.2.4.52.08.72a1.53,1.53,0,0,0-.4.32.77.77,0,0,1-1-.48c-.08-.44.28-.64.6-.84s.48.12.68.28Z"/><path class="cls-2" d="M31.86,50.86a.78.78,0,0,1-1.07.52,1.66,1.66,0,0,1-.32-.52.74.74,0,0,1,.44-.68,1,1,0,0,1,1,.68Z"/><path class="cls-2" d="M45.23,51.54c0,.32-.4.6-.67.76a1,1,0,0,1-.87-.56.8.8,0,0,1,.48-.8.89.89,0,0,1,1.07.6Z"/><path class="cls-2" d="M42.89,51.26a.62.62,0,0,1,.12.64c-.24.2-.6.56-1,.32-.24-.2-.52-.36-.44-.76a1.76,1.76,0,0,1,.6-.48c.32-.08.48.12.71.28Z"/><path class="cls-2" d="M135.43,51.74a1.06,1.06,0,0,1-.52.76.78.78,0,0,1-.87-.2c-.24-.08-.16-.4-.16-.6a1.37,1.37,0,0,1,.75-.52,1.46,1.46,0,0,1,.79.56Z"/><path class="cls-2" d="M138,52.1a1,1,0,0,1-.75.72c-.24,0-.67-.12-.59-.48a.71.71,0,0,1,.36-.64.7.7,0,0,1,1,.4Z"/><path class="cls-2" d="M36.38,52.66a.78.78,0,0,1-.48,1c-.28.16-.55,0-.75-.2a.69.69,0,0,1-.2-.8c.08-.36.44-.28.67-.44a1,1,0,0,1,.75.48Z"/><path class="cls-2" d="M38.32,53c.12.32-.24.44-.32.68a.66.66,0,0,1-.71.08c-.28-.24-.6-.6-.32-1,.32-.6,1.15-.28,1.35.2Z"/><path class="cls-2" d="M133.08,52.82c0,.4-.32.68-.55.92a.68.68,0,0,1-.79-.48.83.83,0,0,1,.44-.76.86.86,0,0,1,.91.32Z"/><path class="cls-2" d="M136.34,53.46c-.08.36,0,.76-.44,1a1.13,1.13,0,0,1-1-.16.73.73,0,0,1-.16-.84.93.93,0,0,1,1-.48c.28.16.36.36.6.48Z"/><path class="cls-2" d="M34.87,54.3c.16.32-.2.4-.32.56a.8.8,0,0,1-.79-.08c-.28-.16-.16-.56-.12-.76.36-.68,1.07-.2,1.23.28Z"/><path class="cls-2" d="M133.84,55.06c.16,0,.08.28,0,.36a3,3,0,0,1-3.21-.16,12.39,12.39,0,0,0-1.59-.88c.2-.52.91-.48,1.43-.6,1.15.16,2.06,1.24,3.33,1.28Z"/><path class="cls-2" d="M36.78,54.7c.08.32-.16.44-.24.68s-.48.16-.67.08a.67.67,0,1,1,.91-.76Z"/><path class="cls-2" d="M40.27,54.94c.16.36-.08.68-.4.88s-.52-.08-.75-.12c-.2-.28-.55-.6-.2-.92.36-.6,1.07-.28,1.35.16Z"/><path class="cls-2" d="M86.13,56.63c-.07.8-1.39-.11-1.21.95a6.08,6.08,0,0,0,.79,2.24c.38.53.19,1.37.15,2a3.59,3.59,0,0,1-1.51,1.29c-1.13-.11-2.79.57-3.32-.84a5.65,5.65,0,0,1-.64-1.9c.11-.08.27-.08.38-.19,0-.27-.3-.42-.26-.68,1.28-.23-.53-1.37.57-1.44.9.95,2.37.65,3.17,1.67a3.48,3.48,0,0,0,.57.49c-.15-.95-.6-1.9-.75-2.92A1.32,1.32,0,0,1,84.51,56c.68-.53,1.24.23,1.62.64Z"/><path class="cls-2" d="M43.76,56.37c.12.4-.2.64-.44.84s-.55-.24-.71-.44c-.12-.4.16-.6.4-.8a.86.86,0,0,1,.75.4Z"/><path class="cls-2" d="M68.23,56.77a5.48,5.48,0,0,1-.48,4.47c0,.32.08.84-.36.8-1.07-1.48-.28-3.56.16-5.11.08-.4.55-.56.67-.16Z"/><path class="cls-2" d="M102.19,57.53a4.51,4.51,0,0,1,.08,3.72l-.32.32a9.13,9.13,0,0,1-.91-2.84,9.64,9.64,0,0,0,.48-2.12c.56-.12.52.6.67.92Z"/><path class="cls-2" d="M46.85,58c-.24.48-.91.6-1.35.92a4.73,4.73,0,0,1-3.53.68,4.31,4.31,0,0,1,4.52-1.88c.08.16.28.08.36.28Z"/><path class="cls-2" d="M30.55,59.41c1.47,1,1.86,2.48,2.74,3.91.12.16.52.2.36.52-.32.24-.63-.24-1.07-.16a4.39,4.39,0,0,1-2.42-4.11c0-.16.24-.16.4-.16Z"/><path class="cls-2" d="M100.64,60.65c0,.4,0,.8-.36.92a.72.72,0,0,1-.91-.48c-.12-.28.12-.44.2-.64a.7.7,0,0,1,1.07.2Z"/><path class="cls-2" d="M117.38,62.77a19.89,19.89,0,0,1,.28-2.2,1.45,1.45,0,0,0,.16-.84c1-1.28,2.9-.88,4.4-.76a8.42,8.42,0,0,0,2,.44,1.45,1.45,0,0,1,1-.2c1.27-.68.44-2.16.52-3.32l-.48-1.2a4.64,4.64,0,0,1-.32-.8c-.24-.28-.4-.8-.63-1.08-.67-1.76-2-2.76-3.09-4.15-2-2.64-5.2-4.12-8.37-5.15s-6.31.32-9.12,1.32a2.27,2.27,0,0,1-1.55-1.68,7.93,7.93,0,0,1,.75-4.23A15.64,15.64,0,0,1,104,36.24a28.51,28.51,0,0,0,1.63-6.87,3.6,3.6,0,0,0-2.14-3.16,2.16,2.16,0,0,0-2.18.44A5.79,5.79,0,0,1,98.7,29c-.08.68.75.24,1,.48.87.16,1.87-.12,2.58.44A6.79,6.79,0,0,1,100.64,34,31.74,31.74,0,0,0,97,40.23l-.16-.16.19,9.77c1.26,2.1,2.84,4.5,5.2,5.3,1.27,1,2.86,2.28,4.56,1.36.91-.28,1,1,1.43,1.52.48,1.48-.59,2.52-.67,3.87l-1,2.2c-1.19,2.32-2.26,4.79-4.08,6.75-.6,0-1,.64-1.55.68-.32.44-1,.12-1.35.28-1.23.52-3,.2-3.81,1.36a.54.54,0,0,0,.32.2c2.42,0,5.12.2,7.7.08a1,1,0,0,0,.63-.76c-.36-.68.12-1.28.44-1.8.2-1,.83-1.56,1.11-2.48.83-1.64,1.78-3.24,2.7-4.87l1.23-2a14.07,14.07,0,0,1,1.23-2.24,5.13,5.13,0,0,0,.71-1.08c0-.4-.16-.56-.4-.84.28-.28.71-.2,1.07-.28a4.49,4.49,0,0,1,2.22,2.64l.36,1,.16.48-.08,1.32.16,1.24A28.52,28.52,0,0,1,115,69.6c-.68,2.32-3.33,2.08-5.24,2.6-.48.32-1.39.16-1.39,1,2.3.48,5,.2,7.46.16.4-.16.48-.52.67-.88.08-.52.6-1,.44-1.52-.44-.56,0-1.44-.16-2.2a1.23,1.23,0,0,0,0-.76c.32-1.16.24-2.56.48-3.68l.16-1.52Z"/><path class="cls-2" d="M136.89,61.21c-1.27,1.8-2.62,3.83-4.84,4.47-.16,0-.32.08-.4-.12,1.35-1.44,2.06-3.68,4.17-4.2a1.29,1.29,0,0,1,1.07-.16Z"/><path class="cls-2" d="M28.61,63.17c-.2.16,0,.52-.4.56a.64.64,0,0,1-.83-.36.71.71,0,0,1,.51-.88c.32.16.63.28.71.68Z"/><path class="cls-2" d="M40,63.73c.12.36-.28.36-.48.44A4.32,4.32,0,0,1,35,63c0-.16,0-.32.16-.36,1.63.4,3.53.08,4.88,1.08Z"/><path class="cls-2" d="M30.79,63.21a1.05,1.05,0,0,1,.08.6.88.88,0,0,1-1,.36,1.29,1.29,0,0,1-.52-.52,1,1,0,0,1,.67-.76,1.19,1.19,0,0,1,.75.32Z"/><path class="cls-2" d="M68,63.41c.08.36-.24.6-.48.76a.78.78,0,0,1-.83-.32.58.58,0,0,1,.28-.76c.36-.08.91,0,1,.32Z"/><path class="cls-2" d="M138.4,63.57c.12.4-.24.6-.51.84a.87.87,0,0,1-.75-.12c0-.2-.28-.36-.2-.64a.85.85,0,0,1,.91-.48,4.61,4.61,0,0,1,.55.4Z"/><path class="cls-2" d="M141,63.41c.24.36,0,.64-.16.92a.54.54,0,0,1-.71.24c-.24-.24-.56-.36-.59-.72s.36-.56.59-.68c.4-.16.56.24.87.24Z"/><path class="cls-2" d="M26.94,64.56c0,.28-.2.44-.28.68-.2.08-.4.24-.64.16a1.17,1.17,0,0,1-.59-.64,1,1,0,0,1,.71-.8,1,1,0,0,1,.79.6Z"/><path class="cls-2" d="M110.48,64.56a1.15,1.15,0,0,1,0,.52c-.24.32-.55.6-1,.4-.24-.24-.52-.48-.4-.84a.78.78,0,0,1,1.31-.08Z"/><path class="cls-2" d="M33.33,65.16c-.08.28-.2.56-.55.6s-.48-.28-.67-.44c0-.36,0-.72.32-.92a.72.72,0,0,1,.91.76Z"/><path class="cls-2" d="M29.52,65.24a.84.84,0,0,1-.4.88.93.93,0,0,1-1.07-.56,1.13,1.13,0,0,1,.71-.92c.36,0,.56.4.75.6Z"/><path class="cls-2" d="M113.09,65.16a.79.79,0,0,1-.44,1c-.48.16-.87-.24-1.07-.56.2-.32.24-.76.71-.84a.91.91,0,0,1,.79.44Z"/><path class="cls-2" d="M31.38,65.32c.12.28-.12.4-.2.6-.2,0-.32.24-.55.16s-.48-.28-.52-.56.24-.6.52-.76a.73.73,0,0,1,.75.56Z"/><path class="cls-2" d="M136.22,65.64a1.19,1.19,0,0,1-.67.64c-.32.08-.52-.2-.75-.32s-.12-.52,0-.72a.8.8,0,0,1,1.47.4Z"/><path class="cls-2" d="M139.23,65.8a1,1,0,0,1-1,.68c-.36-.16-.75-.44-.48-.92.16-.16.24-.32.48-.36a.76.76,0,0,1,1,.6Z"/><path class="cls-2" d="M120.39,66.08c.2.52-.28.68-.59.92a1.81,1.81,0,0,1-.75-.32.92.92,0,0,1,.56-1,1,1,0,0,1,.79.44Z"/><path class="cls-2" d="M109.49,66.56c.2.08.12.36.08.48-.24.16-.55.56-.91.32a.68.68,0,0,1-.4-.76.74.74,0,0,1,1.23,0Z"/><path class="cls-2" d="M111.71,66.84a.54.54,0,0,1-.32.64c-.28.28-.6,0-.87-.12a.64.64,0,0,1,0-.6.88.88,0,0,1,.52-.32c.28.08.6.08.71.4Z"/><path class="cls-2" d="M44.39,66.88c.24.24,0,.52-.08.76a.77.77,0,0,1-1,.2c-.4-.16-.36-.68-.28-1,.24-.08.24-.36.55-.36a1.38,1.38,0,0,1,.79.4Z"/><path class="cls-2" d="M124.64,67c.08.4-.32.56-.59.64-.48.16-.71-.2-.91-.52,0-.24.24-.4.32-.6.56-.24.91.16,1.19.48Z"/><path class="cls-2" d="M122.49,67c.16.4-.28.6-.44.8a.79.79,0,0,1-.87-.16c-.2-.12-.2-.36-.2-.6.24-.2.36-.44.64-.52a1,1,0,0,1,.87.48Z"/><path class="cls-2" d="M140.38,67.52c.08.56-.63.28-.91.44-1.67,1-3.81.24-5.4-.36.12-.52.71-.32,1-.52,1.71-1.08,3.45.24,5.15.32l.12.12Z"/><path class="cls-2" d="M31.82,67l-.16.28a6.43,6.43,0,0,1-5.12.92L26.39,68a7.18,7.18,0,0,1,5.32-1.08l.12.12Z"/><path class="cls-2" d="M128.68,67.32a.91.91,0,0,1-.4.76.79.79,0,0,1-1-.44c-.12-.32.2-.64.52-.76s.75,0,.91.44Z"/><path class="cls-2" d="M38.92,67.48c-.16.32-.08.64-.48.8a.86.86,0,0,1-1-.52c-.12-.44.2-.56.4-.76.48-.24.83.12,1.07.48Z"/><path class="cls-2" d="M36.1,67.68c.12.28-.12.44-.2.64a.73.73,0,0,1-.79.12c-.28-.24-.55-.52-.44-1a2.25,2.25,0,0,1,.64-.44.9.9,0,0,1,.79.64Z"/><path class="cls-2" d="M131.46,68.6a.85.85,0,0,1-.63.72.9.9,0,0,1-.75-.4.63.63,0,0,1,.16-.76c.08-.12.36-.12.52-.2a.85.85,0,0,1,.71.64Z"/><path class="cls-2" d="M33.17,68.16c.12.32-.16.44-.2.68a5.85,5.85,0,0,1-.87,1.72c-.75.92-1.83.92-2.9,1.2L29,71.44a10.43,10.43,0,0,1,4-3.36l.12.08Z"/><path class="cls-2" d="M129.48,69c.08.48-.32.56-.59.76a.9.9,0,0,1-.79-.48c-.12-.44.28-.6.52-.8a.8.8,0,0,1,.87.52Z"/><path class="cls-2" d="M37.73,69c0,.08,0,.16.12.2,0,.44-.36.56-.6.76a1.07,1.07,0,0,1-.87-.4.67.67,0,0,1,.4-.92c.36,0,.83,0,1,.36Z"/><path class="cls-2" d="M136.77,70.24c.4,0,.47-.52.91-.6a1,1,0,0,1,1,.44c.16.48-.2.72-.52.92s-.87-.24-.83.28a1.24,1.24,0,0,1,.56.8c-.08.16-.36.12-.48,0a5,5,0,0,1-2.86-2.48c-.16-.36-.91-.64-.48-1a3.66,3.66,0,0,1,2.74,1.56Z"/><path class="cls-2" d="M140.58,69a.61.61,0,0,1,0,.76c-.2.4-.79.24-1.15.2-.2-.2-.4-.4-.32-.72a1.27,1.27,0,0,1,.6-.52,1.1,1.1,0,0,1,.91.28Z"/><path class="cls-2" d="M126.18,71.16a5.73,5.73,0,0,1,.87,1.6c-.08.12-.28.08-.36.08-1.35-.76-3.09-1.6-3.61-3.2-.12-.16-.44-.36-.4-.64,1-.2,2,.56,2.74,1.12.28.4.59.6.75,1Z"/><path class="cls-2" d="M35.51,69.64c.16.36-.16.64-.36.8a.91.91,0,0,1-.91-.32c-.28-.44.24-.8.56-1s.51.28.71.48Z"/><path class="cls-2" d="M131.14,70.56c0,.24-.28.4-.4.56-.32,0-.63.16-.91-.12-.08-.2-.28-.52,0-.72.44-.56,1.07-.12,1.35.28Z"/><path class="cls-2" d="M141,71.12a.94.94,0,0,1-.56,1,1,1,0,0,1-1-.36c-.2-.24,0-.48,0-.76a1,1,0,0,1,1-.28,2.13,2.13,0,0,1,.48.4Z"/><path class="cls-2" d="M113.57,76.63c0,.48-.87.36-1.23.72a8.49,8.49,0,0,1-4.16.6v-.24a5.89,5.89,0,0,1,5.39-1.08Z"/><path class="cls-2" d="M55.7,78.35a.66.66,0,0,1-1.27.28c-.16-.48.24-.68.52-.88a.93.93,0,0,1,.75.6Z"/><path class="cls-2" d="M112.9,78.79a1.14,1.14,0,0,1-.6.92c-.36.08-.6-.12-.87-.28s-.08-.44-.12-.64a.85.85,0,0,1,1.59,0Z"/><path class="cls-2" d="M120.79,78.95a6.5,6.5,0,0,1-3.41,1.4l-2.14,0-.2-.16c1.31-1.6,3.69-1.6,5.75-1.44v.24Z"/><path class="cls-2" d="M44.83,79.9a.73.73,0,0,1-.52.76.69.69,0,0,1-.52-1.28c.44-.28.87.2,1,.52Z"/><path class="cls-2" d="M46.81,80.3c.12.2-.08.32-.16.52a.65.65,0,0,1-.75,0,.5.5,0,0,1-.24-.68c.12-.24.36-.2.48-.36a1.12,1.12,0,0,1,.67.52Z"/><path class="cls-2" d="M31.62,84.34c-.4.48-1-.12-1.47-.36-1.39-.8-1.35-2.36-2.74-3.28.16-.48.51,0,.79,0a5.26,5.26,0,0,0,.83.44c1.35.76,1.67,2,2.58,3.24Z"/><path class="cls-2" d="M147.25,68.84a3.16,3.16,0,0,0-3-1.64A2.74,2.74,0,0,0,142,68.84a2,2,0,0,0,.75,2.2.61.61,0,0,0,.79-.2c.2-.52-.36-.52-.44-.92a1.32,1.32,0,0,1,.44-1.4c.4-.4,1.07-.2,1.55-.2a2.78,2.78,0,0,1,1.19,1.16,3.21,3.21,0,0,1,0,2.12,3.55,3.55,0,0,1-2.46,2c-3.29.48-39.43.32-39.43.32-4.24.4-9.08-.8-12.73,1.44-1.67.8-2.5,2.64-2.94,4.27a29,29,0,0,0-3.09,3.16l-.12-.12c.2-1,.63-1.8.83-2.76.59-.8.59-1.88,1-2.76,1.51-2.44,2.93-4.91,5.28-6.63,1-1.32,2.74-1.08,4.24-1.08a10.53,10.53,0,0,0,5.51.8.37.37,0,0,0,.12-.28c-.55-.52-1.47-.72-2.1-1.24-1.59-.76-3.09.24-4.76.12-.08-.08-.16-.12-.12-.24A23.45,23.45,0,0,1,100.52,66a33.71,33.71,0,0,1,4.32-1.72c.6,0,1.15-.52,1.71-.16l2.1-.56c.08,0,.16.16.32.12,1.78-.6,4,0,6.07-.08l.28.24,1.9.48c.71.08,1,.92,1.79,1,.4-.56-.44-.8-.63-1.16a4.36,4.36,0,0,1,2.66.4l-.39.44c-.24.44.12.76.48.92s.48-.12.67-.2c.52-.36,0-.72.12-1a37.86,37.86,0,0,1,8.45,2.4,6.77,6.77,0,0,0,2.3.76,10.43,10.43,0,0,0-3-1.6c-.67-.4-1.63-.44-2.14-1,.12-.2.4-.12.51-.28a5.89,5.89,0,0,0,3.45-2.24c.08-.24.51-.16.48-.48-.36-.4-1,.12-1.43.08-1.67.32-2.38,2.28-4,2.64-2-.48-4.09-1-6.11-1.48a12.34,12.34,0,0,1-3-.64l-2.22-.2h-4c0-.08-.16-.12-.12-.24,1.43-.36,2.66-1.2,4.09-1.56l10.63-4.87a26.13,26.13,0,0,0,3-3.28.75.75,0,0,0-.44-.76.66.66,0,0,0-.79.16c-.48.36,0,.8,0,1.24a6.71,6.71,0,0,1-1.82,1.56c-.16,0-10.95,4.91-10.95,4.91a27.28,27.28,0,0,1-4.84,1.8l-2.3.36a1.51,1.51,0,0,1-1,.92,9.46,9.46,0,0,1-1.82.52c-5.16,2-10.51,4.12-14.6,8.19a4.52,4.52,0,0,0,.4-1.68,3.31,3.31,0,0,0-.44-1.76c-.09-.22-.38-.86-.29-1.09l-.58.38a5.56,5.56,0,0,0-.32,3.4c.12.72.71,1.56.16,2.2-1.9,2.32-3,5.11-4.24,7.75-.48-.08-.71-.52-.91-1a13.32,13.32,0,0,0,2.82-5.83c.28-.2.08-.72.36-1-.08-.64.36-1.28,0-1.8.25-.87-1.16-1.68-.26-2.24l-.75.36c-1.71,2.24.89,5.59-1.06,7.75v.16a6.8,6.8,0,0,1-1.59,1.92c-1-.4-1.31-1.48-1.86-2.28a3.55,3.55,0,0,1-.36-3.72c.36-1.16-.24-2.16-.36-3.2l-.4-.24A4.61,4.61,0,0,0,80,74.35c.4.72.44,1.72,1,2.32a12.9,12.9,0,0,0,1.71,3c.16.4-.24.48-.44.68-.44-.28-.36-.92-.75-1.2a29.07,29.07,0,0,0-5.08-7.31c-.08-.36-.44-.68-.24-1.08a2.92,2.92,0,0,0,.52-3c-.08-.2-.32-.44-.28-.64l-.6-.48c.08,1.4-.83,2.64-.44,4.11v.08a75.49,75.49,0,0,0-13.2-8l-.37,1A27.42,27.42,0,0,1,66.09,66a27.31,27.31,0,0,1,4,2.12c5.39,3,9,8,11.38,13.46,0,.44.44.92.16,1.36a21.78,21.78,0,0,0-3-3,5.82,5.82,0,0,0-3-4.43c-.6-.88-1.86-1-2.86-1.24l-14.44-.08c-11.74-.16-22.45.36-34.11.16-1.63-.16-3.61-.72-4.09-2.44a2.66,2.66,0,0,1,0-2.2,2.42,2.42,0,0,1,2-1.08,2.12,2.12,0,0,1,1.35,1.12c0,.52-.44,1-.64,1.44,0,.16.2.48.48.36a1.86,1.86,0,0,0,1-1.28c0-.28.16-.68-.12-.88a2.66,2.66,0,0,0-1.86-1.64,3.31,3.31,0,0,0-2.7.92c-1,.8-.91,2.24-.63,3.36a5.36,5.36,0,0,0,4.28,3.2l38.6.16c3.77.2,8-.44,11.82.32a4.56,4.56,0,0,1,3.21,3c0,.08-.16,0-.28,0a17.19,17.19,0,0,0-11.27-2.32,13.78,13.78,0,0,0-4.44.92A2.25,2.25,0,0,1,59,76.67c-1.43-1.28-3.93-1.2-5.75-.72,0,.12,0,.24,0,.28,1.94-.16,3.09,1.52,4.84,1.72.4.08.71-.36,1.07,0a35.84,35.84,0,0,1-5.51,2.48c-.6-.12-.91-.68-1.39-1-.75-.84-2.14-.48-3.17-.56-.36.08-.67-.16-.91,0a3.37,3.37,0,0,0,1.71,1.32c1,.44,2.14,0,3.05.56a3.81,3.81,0,0,1-.83.56c-1.86.72-3.41,2.4-5.47,2.28a7.07,7.07,0,0,1-5.87-1.92,4,4,0,0,0-4-2.32c-.12.08-.28.08-.24.28.87.52,1.55,1.56,2.42,2.16.56.68,1.63,0,2.14.76a7.07,7.07,0,0,0,2.58,1.12,11.24,11.24,0,0,0,2.06.56l-.28.16c-3.61,1.2-7.77,1.32-11.82,1.16-1.19,0-2.34-.4-3.53-.36a2.24,2.24,0,0,0,1,.56A2.41,2.41,0,0,1,30,86a7.07,7.07,0,0,0-1.51.4,4,4,0,0,0-1.7.4,8.07,8.07,0,0,1-2.26,1.84c0,.16,0,.4.16.4.75-.32,1.71-.08,2.46-.4,1.31-.12,2.06-1.56,3.09-2.16,1.11-.88,2.7-.68,4-.48.79.2-.08.52.16,1,.32.28.59.6,1,.48a.69.69,0,0,1,.28-.2.91.91,0,0,0,0-1c.56-.36,1.31,0,1.9-.2,1.51,0,3-.36,4.48-.4.24,0,.52-.28.75,0-.12.32-.52.36-.36.8s.48.52.79.6c.4-.16.75-.44.6-1-.08-.28-.4-.32-.6-.44.83-.4,1.79-.52,2.62-.92a7.43,7.43,0,0,0,1.67-.56c.52,0,1-.52,1.43-.32a8.24,8.24,0,0,1-.83,1.92c-.63,2.12-1.11,4.91,0,7,.12,0,.16,0,.24-.08-.83-2.12-.36-4.55.36-6.55.56-3.4,4-4.39,6.55-5.67l.12.16c-.67,1.76-1.67,3.44-1.51,5.55.08.36-.16.72,0,1a4.2,4.2,0,0,0,1.47-1.84c.28-1.8-.75-4,1.07-5.35,3.25-1.28,6.31-3,10.07-3,.12.12.4-.08.44.16-.79.88-1.94,1.72-2.3,2.8-1.27,1.76-1.23,4.75-.67,6.91.36,1.24-.71,1.92-1.23,2.88-.25.34-.32.92-.54,1.31l.78.09a4.25,4.25,0,0,0,1.35-2.64,1.09,1.09,0,0,0,.75.8c.28-.44-.24-.76-.28-1.2.64-.36.91.44,1.43.6a10.11,10.11,0,0,0,2.42.56l.28-.28c-.87-1.36-2.62-1.6-4.13-1.68a8,8,0,0,1-.71-4.55A7,7,0,0,1,65,80.22a6,6,0,0,1,1.11-1.52,5.51,5.51,0,0,1,2.5-1.36h.12a.18.18,0,0,0,0,.12c-1.07.84-1.19,2-1.82,3A3.34,3.34,0,0,0,66.57,84c.24.52.12,1.32.67,1.68a8.85,8.85,0,0,0,.83-2.44c-.12-1.32-.91-2.56-.16-3.83a3.27,3.27,0,0,1,2.14-1.76c2.18-.2,4.09.92,6,1.76.4.28,1.07.52,1.15,1.08a3.24,3.24,0,0,1-5.08,2.64,2.74,2.74,0,0,1-.63-2.44A1.64,1.64,0,0,1,73.23,80c.4.2.75.6,1.27.36a.5.5,0,0,0,.16-.64c-.44-.24-.59-.84-1.19-.92a2.57,2.57,0,0,0-2.18.44,2.81,2.81,0,0,0-.91,2.8,3.42,3.42,0,0,0,2.46,2.56,4.6,4.6,0,0,0,4.88-1.68,5.42,5.42,0,0,0,.87-1.72,10.36,10.36,0,0,1,4.09,5.27,8.45,8.45,0,0,1,0,2l1.39.12a1.33,1.33,0,0,1,.12-1A12,12,0,0,1,88.3,81.1c.68-.4.52.52.68.8a5.34,5.34,0,0,0,3.45,3,4.35,4.35,0,0,0,4.28-1.4c.52-1,1.15-2.36.28-3.36a2.74,2.74,0,0,0-2.18-1,2.69,2.69,0,0,0-2.18,1.48c0,.32,0,.68.24.84.16,0,.48,0,.6-.2.08-.6.59-.88,1.07-1.2a1.24,1.24,0,0,1,1.27.24,2.09,2.09,0,0,1,.55,1.56A2.41,2.41,0,0,1,95,83.74a4,4,0,0,1-3.81-.36,8.78,8.78,0,0,1-1.11-1.76,2.91,2.91,0,0,1,0-1.84,13.41,13.41,0,0,1,5.67-2,4,4,0,0,1,2.1,1.32c1.82,1.88-.4,4.56.87,6.63.48-.08.48-.72.67-1.12.6-1.44-.16-3-.51-4.39a8.22,8.22,0,0,0-1.51-2.36,1,1,0,0,1,.48-.08,9.85,9.85,0,0,1,2.42,2.08,10.74,10.74,0,0,1,1.55,6.55c-.32,1.2-1.59,1.76-2.58,2.2a3.71,3.71,0,0,0-1.07,1.28c.48.28,1.15,0,1.63-.2.75-.28,1.19-1.24,1.71-1.68.08,0,0,.16.08.24,0,.44-.2,1,.2,1.16a14.23,14.23,0,0,0,.36-2,4,4,0,0,1,.75,2c.36.72,1,1.68,1.9,1.8.24-.36,0-.72-.12-1-.12-1-1-1.52-1.51-2.24-1.39-1.92-.75-4.91-1.82-7.07a8.4,8.4,0,0,0-2.14-3l.16-.16a23.48,23.48,0,0,1,5.35,1c2.18,1.08,5.35.84,6.39,3.68a10.49,10.49,0,0,0,2.26,4.31l.12-.08a1.62,1.62,0,0,0,0-1.48c-.24-2-2-2.48-2.9-4.15l.12-.16a26.85,26.85,0,0,1,2.9.92,8.54,8.54,0,0,1,5.79,7.23A15.63,15.63,0,0,1,118,95.76c-.12.32-.67.68-.32,1,.44-.32.52-.84.75-1.2a11.13,11.13,0,0,0,1.31-8c0-.52-.63-.92-.36-1.44a1.26,1.26,0,0,0,.68.36c.24-.16.6-.16.75-.44s.2-.52,0-.72a1.09,1.09,0,0,0-1.15-.28,1.91,1.91,0,0,0-.48.88,8.24,8.24,0,0,0-1.43-2.12l.08-.12c1.79.6,3.41,1.48,5.24,2a2.6,2.6,0,0,0,1.39.44,39.79,39.79,0,0,0,4.88,1.24c1.19-.12,2.18.44,3.37.16v-.08l0,0c-.44-.56-1.39,0-1.9-.44a29.92,29.92,0,0,1-7.81-2c0-.12.2-.08.32-.08a1,1,0,0,0,.63-1,1.07,1.07,0,0,0-.91-.44,1.12,1.12,0,0,0-.6.68,1,1,0,0,0,.6.76c-.08.08-.24,0-.36,0-1.23-.56-2.42-1.08-3.61-1.64-.44-.08-.79-.44-1.23-.52-.91-.44-1.82-.88-2.74-1.24a62.64,62.64,0,0,0-8.05-3l-1.71-.48c-1-.28-2-.52-3-.8-3.37-.84-7.89-.92-10.83.92-.48-.16-.75.6-1,.12.83-2.2,3.25-2.92,5.43-3,15.91-.16,30.82-.28,46.49-.52A5,5,0,0,0,147,72.51a4,4,0,0,0,.28-3.68ZM84.18,83.58a3.6,3.6,0,0,0-.44,1.4l-.16.08c.12-.6-.48-1-.32-1.6-.32-.48-.32-1.08-.59-1.6s.32-.92.59-1.36c.56.24.75.76,1.15,1.24.24.68-.28,1.2-.24,1.84Z"/><path class="cls-2" d="M127.21,81.06c0,.12.24.16.16.36a8.29,8.29,0,0,1-5.31,1.68c-.16,0-.32.16-.51.12s-.16-.2-.08-.28a6.05,6.05,0,0,1,5.75-1.88Z"/><path class="cls-2" d="M120.83,81.7c.16.56-.2.88-.64,1.08a1.13,1.13,0,0,1-.87-.64c-.12-.32.16-.48.28-.68a.75.75,0,0,1,1.23.24Z"/><path class="cls-2" d="M45.42,81.78a.82.82,0,0,1-.2.84.81.81,0,0,1-.72.2c-.28,0-.44-.36-.51-.6a.86.86,0,0,1,.51-.76c.32,0,.67,0,.91.32Z"/><path class="cls-2" d="M38.32,84.38v.28a3.09,3.09,0,0,1-2.58-.6,5.33,5.33,0,0,0-2.1-2c0-.12-.24-.28,0-.36,2,0,3.17,1.6,4.68,2.68Z"/><path class="cls-2" d="M133.24,81.74c-.91,1.36-1.71,3-3.33,3.64-.28,0-.52.4-.75.12a7.31,7.31,0,0,1,3.53-3.8,1.3,1.3,0,0,1,.55,0Z"/><path class="cls-2" d="M47.73,82.22c0,.44-.28.52-.56.76-.32,0-.48-.2-.67-.44-.16-.4.2-.56.4-.76a.83.83,0,0,1,.83.44Z"/><path class="cls-2" d="M138.24,82.46c-.36.52-.2,1.28-.55,1.84-.79.92-1.47,2-2.74,2.16-.2-.4.28-.8.48-1.16A5.72,5.72,0,0,1,138,82.22l.2.24Z"/><path class="cls-2" d="M26,82.82a.79.79,0,0,1,0,.88.93.93,0,0,1-.91.16.74.74,0,0,1-.32-1c.24-.36,1-.56,1.23-.08Z"/><path class="cls-2" d="M23.77,83.3c0,.2.16.36.12.56a.93.93,0,0,1-.55.48.83.83,0,0,1-.91-.52.78.78,0,0,1,.39-.84.81.81,0,0,1,1,.32Z"/><path class="cls-2" d="M28.45,83.54c.08.32.16.88-.32,1-.56.24-.87-.16-1.19-.48a.91.91,0,0,1,.48-.8,1.09,1.09,0,0,1,1,.32Z"/><path class="cls-2" d="M35,84.06c0,.28,0,.68-.28.76s-.55.12-.75.08c-.08-.24-.52-.44-.28-.72a1.49,1.49,0,0,1,.55-.44c.24.12.6,0,.75.32Z"/><path class="cls-2" d="M142,84.34c-.12.28-.28.64-.6.64s-.71-.08-.91-.44.2-.68.52-.8.91.16,1,.6Z"/><path class="cls-2" d="M134.79,84.54c0,.32-.32.56-.48.68a1,1,0,0,1-1.23-.6,1,1,0,0,1,.68-.72,1,1,0,0,1,1,.64Z"/><path class="cls-2" d="M139.71,84.46a.83.83,0,0,1-.36.68.92.92,0,0,1-1-.16c-.36-.32-.08-.6.16-.84s1-.16,1.15.32Z"/><path class="cls-2" d="M25,85.14a.84.84,0,0,1-.48,1,.91.91,0,0,1-.87-.56.75.75,0,0,1,.4-.84.91.91,0,0,1,1,.4Z"/><path class="cls-2" d="M132.81,85.58a.88.88,0,0,1-.56,1c-.32.08-.52-.08-.75-.28s-.36-.64,0-.84a.78.78,0,0,1,1.35.08Z"/><path class="cls-2" d="M46.34,86c.16.44-.32.52-.43.76-.16.08-.48.12-.6,0s-.44-.48-.32-.84c.2-.16.28-.32.52-.4.44-.12.6.28.83.52Z"/><path class="cls-2" d="M141.33,86.3c.08.28-.16.4-.2.6a1.07,1.07,0,0,1-.91.16c-.36-.2-.36-.52-.36-.88.24-.16.28-.36.56-.44a.91.91,0,0,1,.91.56Z"/><path class="cls-2" d="M138.88,86.42c.16.48-.28.72-.6.84-.16,0-.4-.08-.44.16a10.48,10.48,0,0,1,2.46,2.12v.32a5.36,5.36,0,0,1-3.93-1.52c-.28-.2-.75-.2-1.07-.48.52-.52,1.47-.32,2.18-.36.52-.56-.6-1,.08-1.44.24,0,.4-.28.71-.2a1.35,1.35,0,0,1,.6.56Z"/><path class="cls-2" d="M122.65,86.46c.08.2-.16.44-.2.64a.8.8,0,0,1-.87.16c-.2-.28-.52-.52-.4-.92a.82.82,0,0,1,1.47.12Z"/><path class="cls-2" d="M34,87.85c-.12.36-.28.6-.67.64a.78.78,0,0,1-.71-.48c0-.28.16-.44.2-.64.44-.36,1.23-.12,1.19.48Z"/><path class="cls-2" d="M37.17,87.34c0,.56-.6.88-.79,1.44a4.05,4.05,0,0,1-3.17,2.64c-.16-.36.52-.8.67-1.16.63-1.36,1.9-2.08,3.05-2.92Z"/><path class="cls-2" d="M121.7,87.89c0,.44-.36.76-.68.92s-.63-.16-.83-.32c-.32-.32-.12-.64,0-1,.48-.48,1.15-.08,1.47.36Z"/><path class="cls-2" d="M124.16,88.18a1,1,0,0,1-.71.88c-.08-.12-.28,0-.4-.08a.88.88,0,0,1-.52-.72c.2-.2.28-.52.56-.56s1,0,1.07.48Z"/><path class="cls-2" d="M43.32,88.13a.86.86,0,0,1-.59.84.78.78,0,0,1-.75-.48c-.08-.36.28-.6.48-.8.48-.16.6.2.87.44Z"/><path class="cls-2" d="M46.06,88.29a1,1,0,0,1-.75.68c-.28-.08-.59-.16-.71-.48s.28-.6.55-.8a.84.84,0,0,1,.91.6Z"/><path class="cls-2" d="M132.69,91.09c.2.16.55.36.47.64-.63.28-1.15-.44-1.74-.56a8.19,8.19,0,0,1-2.06-3.2c.36-.36.75.08,1.07.2a7.83,7.83,0,0,1,2.26,2.92Z"/><path class="cls-2" d="M134.16,88.29a1,1,0,0,1-.08.88c-.24.4-.75.32-1.11.24-.2-.24-.56-.56-.32-.92s.48-.4.75-.52.48.2.75.32Z"/><path class="cls-2" d="M49.71,89.33c0,.32.12.8-.28,1a.77.77,0,0,1-1-.48c-.2-.48.24-.56.48-.8.32-.08.51.08.75.28Z"/><path class="cls-2" d="M124,91.93a5.84,5.84,0,0,1,1,2.84c-.12.28.2.56,0,.76h-.16c-1.79-1.28-2.18-3.08-2.86-4.87a.33.33,0,0,1-.16-.4c.4-.36.67.36,1.07.48l1.11,1.2Z"/><path class="cls-2" d="M54.86,90.57s0,.08,0,.08c-1.59,1.12-3.81,1.8-5.63.72a.3.3,0,0,1,.2-.36A8.2,8.2,0,0,1,53,90.25l1.9.32Z"/><path class="cls-2" d="M45.82,90.77c-1.35.84-2.58,2.48-4.24,2.88-.32.12-.51.56-.91.32.71-2.16,3.05-3.32,5.16-3.52v.32Z"/><path class="cls-2" d="M121.7,92.57c.12.32,0,.76-.32.84a.55.55,0,0,1-.75,0c-.36-.16-.36-.52-.36-.8s.4-.32.59-.44c.36.08.63.08.83.4Z"/><path class="cls-2" d="M118.41,92.77a2.23,2.23,0,0,1-1.43,1c-1.35.48-2.58-.16-3.77-.48,0-.32.44-.2.63-.4a8.63,8.63,0,0,1,4-.2.42.42,0,0,1,.52,0Z"/><path class="cls-2" d="M45.82,93.93c-.12.16-.16.52-.48.64a.82.82,0,0,1-.79-.16c-.08-.24-.36-.44-.16-.72s.4-.36.63-.44a.85.85,0,0,1,.79.68Z"/><path class="cls-2" d="M48.16,94.29a1.46,1.46,0,0,1-.55.76.87.87,0,0,1-.79-.28,1,1,0,0,1-.12-.8c.08-.2.36-.24.55-.36.4,0,.75.36.91.68Z"/><path class="cls-2" d="M120.95,94.69a1.06,1.06,0,0,1-.28.76.67.67,0,0,1-.87.16c-.28,0-.36-.36-.48-.56s.16-.52.28-.8a.86.86,0,0,1,1.35.44Z"/><path class="cls-2" d="M122.69,94.61c0,.2.16.4.08.56-.24.2-.4.72-.87.52-.24.08-.36-.24-.47-.32a.76.76,0,0,1,.47-1.08c.36-.12.6.2.79.32Z"/><path class="cls-2" d="M46.73,95.76a1.08,1.08,0,0,1-.4,1.08c-.43.08-1,.08-1.15-.44a1.07,1.07,0,0,1,.48-1.16,1,1,0,0,1,1.07.52Z"/><path class="cls-2" d="M49,95.61c-.08,1.12-.32,2.48-1.43,3.12-.64.12-1.27.72-1.9.32v-.2c.83-1.2,2.34-2.12,3.33-3.24Z"/><path class="cls-2" d="M114.72,96.52c.16.24-.12.44-.24.64s-.68.16-1,0-.32-.52-.2-.8a.81.81,0,0,1,.52-.44c.36,0,.68.28.87.56Z"/><path class="cls-2" d="M53,98.36c.55.92.24,2.16.55,3.16-.67.08-1-.68-1.39-1.08-.87-1.2-.75-2.8-1.15-4.19a.21.21,0,0,1,.28-.08,10.11,10.11,0,0,1,1.51,1.68c-.08.28.24.28.2.52Z"/><path class="cls-2" d="M116.7,96.84c0,.32-.36.4-.55.6a1.45,1.45,0,0,1-.75-.36c-.12-.4.2-.52.4-.72a.66.66,0,0,1,.91.48Z"/><path class="cls-2" d="M121.42,100.4c0,.12,0,.36-.24.28H121c-1.15-1-2.3-2.2-2.14-3.8l.24,0c1.07.92,2.26,1.92,2.3,3.56Z"/><path class="cls-2" d="M118.45,99.12a.93.93,0,0,1-.36.76c-.44.12-1.11.08-1.19-.52,0-.4.4-.6.6-.8a.81.81,0,0,1,1,.56Z"/><path class="cls-2" d="M115.83,100c-.56,1.48-2.06,2.24-3.09,3.36-.2-.12-.12-.44-.08-.6a5.53,5.53,0,0,1,3.05-3.6c.63.08,0,.52.12.84Z"/><path class="cls-2" d="M118.81,101.16c0,.36-.36.52-.55.72a1.16,1.16,0,0,1-.87-.44c0-.4.28-.52.51-.72a.83.83,0,0,1,.91.44Z"/><path class="cls-2" d="M89.29,28.63a1,1,0,0,1,0,2H77.53a1,1,0,0,1,0-2ZM81,30.34c1.15,0,.06-1.39-.56-1.39H79.27c-1.15,0-.06,1.39.55,1.39Zm4.82,0c1.15,0,.06-1.39-.56-1.39H84.09c-1.15,0-.06,1.39.56,1.39Zm3.55-1.39h-.44c-1.15,0-.17,1.39.44,1.39s.82-1.39,0-1.39Z"/><path class="cls-2" d="M88.26,42.12l2.25.86,2.21-.86-.87,3.31,1.75-.36-.6,2,.6,1.92L92,48.58l.68,3.57-2.21-.86-2.25.86.91-3.57-1.79.5.48-2-.48-1.92,1.71.28-.84-3.31Zm3.32,6c.5,0,.55-.7.55-1.3,0-1.36-1.08,0-1.63-1.28-.4,1.08-1.51.08-1.51,1.24,0,.8,0,1.34.79,1.34Zm-2.2-1.23c0,.52.7.17,1.21.17s1.21.35,1.21-.17c0-.74-.7-.48-1.21-.48s-1.21-.26-1.21.48Z"/><polygon class="cls-2" points="83 46.99 83 46.57 82.62 46.5 82.92 46.19 82.73 45.85 83.12 45.9 83.35 45.49 83.58 45.89 83.97 45.85 83.79 46.19 84.09 46.5 83.71 46.57 83.71 46.99 83.35 46.72 83 46.99 83 46.99"/><polygon class="cls-2" points="81.25 49.24 81.25 48.82 80.88 48.75 81.17 48.44 80.99 48.1 81.38 48.14 81.61 47.73 81.84 48.14 82.23 48.1 82.05 48.44 82.34 48.75 81.97 48.82 81.97 49.24 81.61 48.97 81.25 49.24 81.25 49.24"/><polygon class="cls-2" points="84.21 48.95 84.21 48.53 83.84 48.46 84.13 48.15 83.95 47.81 84.34 47.86 84.57 47.45 84.8 47.85 85.19 47.81 85.01 48.15 85.3 48.46 84.93 48.53 84.93 48.95 84.57 48.69 84.21 48.95 84.21 48.95"/><polygon class="cls-2" points="84.56 50.63 84.56 50.39 84.35 50.35 84.52 50.18 84.41 49.99 84.63 50.01 84.76 49.78 84.89 50.01 85.11 49.99 85.01 50.18 85.18 50.35 84.97 50.39 84.97 50.63 84.76 50.48 84.56 50.63 84.56 50.63"/><polygon class="cls-2" points="81.81 52.55 81.81 51.83 81.17 51.71 81.67 51.18 81.36 50.6 82.02 50.67 82.42 49.97 82.81 50.66 83.49 50.6 83.17 51.18 83.68 51.71 83.03 51.83 83.03 52.55 82.42 52.09 81.81 52.55 81.81 52.55"/><polygon class="cls-2" points="83.22 14.86 84.61 18.3 88.15 17.26 86.35 20.5 89.37 22.64 85.73 23.24 85.95 26.95 83.22 24.46 80.47 26.95 80.7 23.24 77.06 22.64 80.08 20.5 78.28 17.26 81.82 18.3 83.22 14.86 83.22 14.86"/><path class="cls-2" d="M70.42,91.91c-.42.16-.58.27-.48.71l.5,2.1a1.89,1.89,0,0,1-.14,1.38,2.56,2.56,0,0,1-1.44.85,2.91,2.91,0,0,1-1.69,0,1.25,1.25,0,0,1-.83-1.06l-.52-2.21c-.13-.55-.34-.52-.79-.45L65,93l2.66-.64,0,.16c-.52.14-.76.21-.62.79l.52,2.21c.09.38.31,1.29,1.44,1a1.28,1.28,0,0,0,1.06-1.77l-.48-2c-.09-.4-.24-.61-.93-.47l0-.17,1.73-.42,0,.16Z"/><path class="cls-2" d="M74.36,92.35a1.69,1.69,0,0,0-1.82-.88c-.41.09-.8.39-.71.82s.26.47,1,.6l1.27.23a1.41,1.41,0,0,1,1.14,1c.13.58-.2,1.5-1.65,1.82a7,7,0,0,1-1.4.08c-.17,0-.18.17-.19.28l-.23.05-.36-1.64.23-.05a1.69,1.69,0,0,0,1.93,1.06c.95-.21.84-.88.82-1-.1-.44-.5-.52-1.06-.61l-.58-.09c-1.47-.24-1.6-.81-1.66-1.12s0-1.36,1.46-1.69a7.1,7.1,0,0,1,1.28-.06c.18,0,.2-.15.21-.28l.24-.05.32,1.44-.22.05Z"/><path class="cls-2" d="M79.59,95l-2.88.28,0-.17c.58-.1.78-.13.72-.7l-.34-3.56c-.56.08-1.39.19-1.45,1.29l-.23,0-.1-1.36,4.83-.46.14,1.36-.23,0c-.26-1.07-1.1-1-1.66-1l.34,3.56c.06.57.25.57.85.55V95Z"/><path class="cls-2" d="M86.32,95l-1.66,0L83,92.77h-.22l0,1.33c0,.54.17.57.7.64v.17l-2.73-.05v-.17c.55,0,.71-.06.72-.61l.06-3c0-.58-.24-.6-.7-.64v-.17l2.6.05c.57,0,2.28.1,2.26,1.24,0,.84-.85,1-1.29,1.14l1.59,2a.4.4,0,0,0,.33.14V95Zm-3.5-2.41c1.06,0,1.48-.13,1.5-1a.85.85,0,0,0-1-1c-.44,0-.46.07-.51.28l0,1.73Z"/><path class="cls-2" d="M91.63,95.65,89,95.32l0-.17c.5,0,.65,0,.67-.18a3.44,3.44,0,0,0-.26-.94l-1.81-.23a4,4,0,0,0-.46.82c0,.26.35.32.62.37l0,.17L86.17,95l0-.17c.44,0,.58-.21.88-.69l2.24-3.47.23,0,1.35,3.77c.27.77.37,1,.76,1l0,.17Zm-2.25-1.9L88.77,92l-1,1.54,1.57.2Z"/><path class="cls-2" d="M96.34,96.61l-4.6-.84,0-.17c.45,0,.7.06.77-.35L93.12,92c.08-.44-.24-.51-.6-.6l0-.17,2.78.51,0,.17c-.56-.08-.81-.12-.92.47l-.57,3.15c-.06.32.11.41.64.5a2,2,0,0,0,2.25-.94l.23,0-.6,1.46Z"/><path class="cls-2" d="M99.39,97.29l-2.77-.58,0-.17c.43.06.75.09.83-.32L98.15,93c.09-.44-.28-.53-.64-.63l0-.17,2.77.58,0,.17c-.38-.06-.76-.14-.85.31l-.67,3.21c-.09.43.22.51.65.63l0,.17Z"/><path class="cls-2" d="M105,98l-2.61-.27,0-.17c.5,0,.65,0,.67-.2a3.53,3.53,0,0,0-.28-.94L101,96.25a3.88,3.88,0,0,0-.44.83c0,.26.36.32.63.36l0,.17-1.63-.17,0-.17c.44,0,.58-.23.87-.71L102.59,93l.23,0,1.43,3.74c.29.76.39,1,.78,1l0,.17Zm-2.29-1.85-.65-1.73L101.15,96l1.57.16Z"/><path class="cls-2" d="M84.33,43.22c0-1.63-.91-.1-1.42-1.49-.37,1.17-1.47.19-1.47,1.45a1,1,0,0,0,.36.91v.48a.23.23,0,0,0,.22.23h1.73a.23.23,0,0,0,.23-.23v-.52a1.06,1.06,0,0,0,.35-.83Zm-1.41.31c-.48,0-1.12.33-1.12-.24,0-.8.54-.62,1-.62S84,42.5,84,43.3c0,.56-.64.24-1.12.24Z"/><path class="cls-2" d="M98.52,63.24a.66.66,0,1,0-.75-.66.71.71,0,0,0,.75.66Z"/><path class="cls-2" d="M95,39.08a4.11,4.11,0,0,0-.35.7.36.36,0,1,0,.71,0s-.36-.7-.36-.7Z"/><path class="cls-2" d="M71,39.08a4.12,4.12,0,0,0-.35.7.36.36,0,1,0,.71,0s-.36-.7-.36-.7Z"/><path class="cls-2" d="M77,39.08a4.12,4.12,0,0,0-.35.7.36.36,0,1,0,.71,0s-.36-.7-.36-.7Z"/><path class="cls-2" d="M83,39.08a4.12,4.12,0,0,0-.35.7.36.36,0,1,0,.71,0s-.36-.7-.36-.7Z"/><path class="cls-2" d="M89,39.08a4.12,4.12,0,0,0-.35.7.36.36,0,1,0,.71,0s-.36-.7-.36-.7Z"/><path class="cls-2" d="M71.06,47.3a4.11,4.11,0,0,1,.35.7.36.36,0,1,1-.71,0s.36-.7.36-.7Z"/><path class="cls-2" d="M71.06,55.29a4.14,4.14,0,0,1,.35.7.36.36,0,1,1-.71,0s.36-.7.36-.7Z"/><path class="cls-2" d="M72,61.62a4.11,4.11,0,0,1,.35.7.36.36,0,1,1-.71,0s.36-.7.36-.7Z"/><path class="cls-2" d="M77,65a4.12,4.12,0,0,1,.35.7.36.36,0,1,1-.71,0S77,65,77,65Z"/><path class="cls-2" d="M95.31,47.3A4.12,4.12,0,0,0,95,48a.36.36,0,1,0,.71,0s-.36-.7-.36-.7Z"/><path class="cls-2" d="M95.31,55.29A4.14,4.14,0,0,0,95,56a.36.36,0,1,0,.71,0s-.36-.7-.36-.7Z"/><path class="cls-2" d="M94.35,61.62a4.12,4.12,0,0,0-.35.7.36.36,0,1,0,.71,0s-.36-.7-.36-.7Z"/><path class="cls-2" d="M89.33,65a4.13,4.13,0,0,0-.35.7.36.36,0,1,0,.71,0s-.36-.7-.36-.7Z"/><path class="cls-2" d="M83.21,68.54a4.12,4.12,0,0,0-.35.7.36.36,0,1,0,.71,0s-.36-.7-.36-.7Z"/><path class="cls-2" d="M93,56.62c.07.11.26.15.5.07l.23-.64s-.26-.3-.43-.26c-.64.15-1.32.23-1.69.84a1.25,1.25,0,0,0,.6,1c.23-.08.26.15.41.27a.27.27,0,0,1-.26.34c-.45-.46-1.24.15-1.58-.42.15-.57.45-1.21,0-1.75,0-.11.23-.23.11-.34-.19-.53-.75-.11-1.09-.11a1.44,1.44,0,0,0-1.36.68,1.05,1.05,0,0,0,.3.57c.15,0,.23,0,.26.15l-.38.23a.81.81,0,0,1,.15.42c-.26.11-.53-.27-.64-.46s0-.84-.38-.91a1.6,1.6,0,0,0-.33.11,1.09,1.09,0,0,0-.15.63,2.58,2.58,0,0,0,.15.68,6.53,6.53,0,0,1,1.43,1.39c-.34.68-.34,1.63-1.13,2a.63.63,0,0,0-.23.61l.19.15c.49-.27,1.43-.34,1.36-1.18a3,3,0,0,1,.71-1,.78.78,0,0,1,.87.42,1.49,1.49,0,0,1-1,1.14c-.07.08,0,.19,0,.3.15.27.57.15.79.11.64-.42.91-1.18,1.47-1.4.07.38-.75.49-.23.87.34-.08.79,0,1-.42-.26-.64.9-.95.19-1.52,0-.57.6-.8.56-1.4-.23-.61-.94-.61-1.13-1.18a.83.83,0,0,1,.79,0Z"/><path class="cls-2" d="M65.44,63.53a.66.66,0,1,0-.75-.66.71.71,0,0,0,.75.66Z"/><path class="cls-2" d="M26.59,86.22a.71.71,0,1,0-.74-.71.72.72,0,0,0,.74.71Z"/><path class="cls-2" d="M51.31,91.74h0l0-.06h0v0s0,0,0,0h-.08s0,0,0,0v-.09s0,0,0,0h.08s.07,0,.07,0,0,0,0,0l0,.06h0Zm-.1-.07s0,0,0,0a0,0,0,0,0,0,0h0v0Z"/><path class="cls-2" d="M51.42,91.64a.05.05,0,0,0,0,0s0,0,0,0,0,0,0,0h0a0,0,0,0,1,0,0s0,0-.06,0h-.05v0h0a0,0,0,0,0,0,0s0,0,0,0,0,0,0,0h0s0,0,0,0,0,0,.05,0h.05v0Z"/><path class="cls-2" d="M51.66,91.61h0l0,.12h0l0-.09h0l0,.09h0l0-.12h0l0,.07h0l0-.06v0h0l0,.07h0l0-.07h0Z"/><path class="cls-2" d="M51.67,91.73a.07.07,0,0,0,.06-.05h0a0,0,0,0,1,0,0,0,0,0,0,1,.05,0,.05.05,0,0,1,.05.06s0,.07-.11.08Zm.06-.06h0v0s0-.05,0-.05,0,0,0,0,0,0,0,0Z"/><path class="cls-2" d="M51.81,91.64h.05a0,0,0,0,1,0,0s0,0-.07,0,0,0,0,0h0l0,0a0,0,0,0,0,0,0s0,0,0,0h-.05l0-.07h.08v0h-.06v0Z"/><path class="cls-2" d="M97,38.13v0H69.35v0h0l0,21.12c0,2.15.91,4,2.17,4.62l10.63,6.75a1.29,1.29,0,0,0,1.83.1l10.8-6.85c1.26-.58,2.17-2.46,2.17-4.62l0-21.12Zm-.78,21.41a4.74,4.74,0,0,1-1.79,3.68L84,69.85h-.06a1.28,1.28,0,0,1-1.62,0l-10.4-6.61a4.75,4.75,0,0,1-1.79-3.68V38.87H96.22V59.54Z"/><path class="cls-2" d="M86.9,68.92l.34-.16a1.74,1.74,0,0,0-.34.16Z"/><path class="cls-2" d="M66,97.79l-2.61.3,0-.17c.5-.09.64-.11.61-.34a3.43,3.43,0,0,0-.47-.85l-1.81.21a3.91,3.91,0,0,0-.25.91c0,.26.42.23.69.21l0,.17-1.63.19,0-.17c.43-.1.51-.35.7-.88l1.36-3.9.23,0L65,96.79c.45.68.6.89,1,.84l0,.17Zm-2.63-1.31-1-1.54-.57,1.73,1.57-.18Z"/><path class="cls-2" d="M111.82,87.89a4.17,4.17,0,0,0-2.7-2.48,3.47,3.47,0,0,0-3.45.88c-1.43,1.16-.44,3.08-.4,4.63,0,.32,0,.56-.28.72-5.75-.52-11.11-2-16.82-2.56-1.31-.23-2.63-.17-3.88-.43l-1.6-.17a67.24,67.24,0,0,0-14.56,1.64c-1,.32-2.1.4-3.09.76-.71-.12-1.31.4-2,.2l-1.31.31a1.09,1.09,0,0,1-.44,0c-.63-1.64,1.27-2.64.67-4.23a2.9,2.9,0,0,0-2.74-1.64,3.31,3.31,0,0,0-3.17,1.64c-.91,2,.24,4.07.6,6-.08.64.64,1.36,0,1.88a5.43,5.43,0,0,0-4.48-.92c-.48.24-1.35-.08-1.59.48,1.71.92,3.89.8,5.79.72.24-.08.4-.12.6,0,.16,1-.2,2.44.44,3.36A4.09,4.09,0,0,0,60.5,100c3.65-.12,6.9-1.2,10.23-2,.52,0,.91-.32,1.47-.32a29,29,0,0,1,5.63-.76,9.93,9.93,0,0,0-1.67,3.6c-.48,1.08.83,1.24,1.23,1.84-1.23.36-2.1,1.2-3.25,1.68-2.54-.08-4.68.88-7.06,1.16,0,.52.83.36.91.88-.12.36-.48.4-.75.6,0,.24,0,.28.24.32.24-.28.75-.08,1-.36.79,0,1.47-.24,2.22-.28a7.4,7.4,0,0,0,2-.8c.83-.24,1.35-.8,2.18-1,1.19,0,2.26-.4,3.37-.48v.24c-.91,1.48-1.86,3-2.82,4.39a.45.45,0,0,0,.28.64,2.06,2.06,0,0,0,1.55-.24c.83-1.44,1.59-2.8,2.26-4.27.28-1.36,1.27-2.08,2.26-3,.16-.08.4-.32.56-.08a18.21,18.21,0,0,0-1.9,2.8A3.37,3.37,0,0,0,81,108c.48.4,1.19.28,1.83.32,1.55-.8,3.53.48,4.72-1,.71-.12.83.72,1.23,1.12.68.2,1.39.88,2.06.4,0-.44-.52-.84-.75-1.24-.48-.84-1.07-1.52-1.51-2.28a7.94,7.94,0,0,1-.64-1.48,12.54,12.54,0,0,0,2.14.84,13.22,13.22,0,0,1,2.14.64,7.29,7.29,0,0,0,2,1.52c1,.48,2.1.56,3.13,1,.4,0,1,.36,1.27,0a1.67,1.67,0,0,0-.59-.44c-.12-.52.71-.24,1-.64a.56.56,0,0,0-.46-.3c-.57-.3-2-.41-2.36-.62a9.28,9.28,0,0,1-1.39-.44c-2.38,0-3.69-2.16-5.59-3,.44-.4,1.11-.72,1.39-1.32a2.22,2.22,0,0,0,.12-2.12c-.36-1.24-1.94-1.08-2.86-1.76L88,97a16.58,16.58,0,0,1,4.28.56c3.81.52,7.34,2,11.31,2,2.18,0,4.92.12,6-2,.2-1.24.44-2.48.63-3.72.48-2,1.78-3.84,1.59-6ZM69,106.11l-.55-.52c.28-.36.87-.16,1.31-.4a6.89,6.89,0,0,1,3.37-.48c-1.19,1-2.74,1.08-4.13,1.4Zm24.76-.64a17.32,17.32,0,0,0,4.23,1c-.12.54-1.09,0-1,.8-1.23-.48-2.66-.72-3.57-1.68.08,0,.16-.16.32-.12Zm-37.22-17a2.89,2.89,0,0,1,1-2,3.35,3.35,0,0,1,3.14.12,1.53,1.53,0,0,1,.64.76,1.78,1.78,0,0,1-.6,1.8h-.4a4.41,4.41,0,0,1,.24-1.8c0-.48-.44-.52-.75-.72a2.31,2.31,0,0,0-1.79.4,1.8,1.8,0,0,0-.51,1.76c.28.44,0,1,.2,1.52l-.12.16a2.46,2.46,0,0,1-1-2Zm1.86,1.14c.59.44,1.43.24,2.14.36a1.51,1.51,0,0,1-.2,1.36c-.67-.16-1.55-.08-1.9-.72.08-.28-.12-.68,0-1Zm-.12-1.34c.12-.32,0-.8.44-.88.28-.08.71-.08.75.24a7.9,7.9,0,0,1-.2,1.4.92.92,0,0,1-1-.76Zm18.6,12.82a4.33,4.33,0,0,1,1.27-3.6,2.29,2.29,0,0,1,1.71.08c-1,.28-2.34.52-2.58,1.84,0,.52-.12.8.12,1.24.44.76,1.43.44,2,1a.51.51,0,0,1-.36.48,15.33,15.33,0,0,1-2.14-1.08Zm-1.43,2.76c1-.4,1.94-1.24,3-.88a5.46,5.46,0,0,1-3,.88Zm3.77.4A30.63,30.63,0,0,1,77.28,108c-.08.2-.4.24-.63.28,0-.56.56-1,.79-1.48.83-1.08,1.07-2.24,2-3.28.24.24-.24.4-.24.72Zm1-2.32v.16h-.08v-.2h.16a.24.24,0,0,0-.16,0Zm-.36-1.08a9.46,9.46,0,0,1-1.9-.48c-.4-.4,0-.84,0-1.28.55-.88,2.14-1.32,2.9-.52a4.24,4.24,0,0,1-1,2.28Zm.87,0a6.69,6.69,0,0,1,.63-1.68,3.35,3.35,0,0,1-.63,1.68Zm.44-3.24c-.52-.12-.79-.72-1.35-.72a3.17,3.17,0,0,1,1.51,0c.2.28-.12.52-.16.76Zm.48,1.2h0V98.4h0v.44Zm0,1.84c0-.16.08-.36.12-.56.2-.2.4.16.48.28a.59.59,0,0,1-.6.28Zm.6-2.48a4.44,4.44,0,0,1,.6-1.48,2.32,2.32,0,0,1,1.07.16c.08.8,1.07,1.88,0,2.56-.36.16-.87.52-1.27.16a1.11,1.11,0,0,1-.4-1.4Zm2.9-1.12c-.08-.36.36-.08.52-.24l1.23.08c-.64-.08-1.43,1.4-1.75.16Zm2,.52c-.48.16-.83.72-1.31.84a1.61,1.61,0,0,1,1.31-.84Zm-1.67,2.48v.12h0v-.12Zm.08,2.44c0,.08,0,.2-.08.28l-.91-.72a1,1,0,0,1,1,.44Zm-1.07-1.24a.3.3,0,0,1,.36,0Zm-.56-.6c.16-.24.36-.6.63-.6,0,0,0,.08.08.12a2,2,0,0,1-.71.48ZM83,100.6h-.16l.24-.24c.12.08,0,.16-.08.24Zm.12,1.52c.52-.56,1,.32,1.19.76.6.88,2.14,1.68,1.55,2.88-.75.68-1.94,0-2.78.56-.44,0-1.19.08-1.43-.36a23.3,23.3,0,0,1,1.47-3.84Zm-1.11.76.2-.32a17,17,0,0,1-1.31,2.88c-.24-1,.75-1.72,1.11-2.56Zm1.75,4.75c-.75,0-1.9.48-2.62-.16,0-.32-.32-.48-.28-.8.63-.24,1.19.52,1.79,0a16.14,16.14,0,0,1,2.78.08c.44.12,1.11-.72,1.19.12-.32,1.32-1.9.4-2.85.8Zm2.3-5.75v-.12h.08v.12Zm.24,2.52c0,.4.44.56.2.92a1.22,1.22,0,0,1-.2-.92Zm1.11,2.4-.2.08c-.2-.16-.12-.6-.08-.84.24.2.44.48.28.76Zm2,1c0,.12-.24.12-.32,0A21.24,21.24,0,0,1,86.6,103l.16,0c1,1.56,1.71,3.28,2.66,4.79Zm1.47-3.68a.16.16,0,0,0-.08.16A4.54,4.54,0,0,1,88,103l0-.2a7.51,7.51,0,0,1,2.9,1.28Zm-1-5.31c.48.12.52.64.56,1a2.36,2.36,0,0,1-2.9,2.12,2.53,2.53,0,0,0,2.38-1.36l0-1.8ZM89,98.6a2.68,2.68,0,0,1,.36,1.76c-.4.76-1.19.76-1.9.92a1.24,1.24,0,0,1-.91-.28.41.41,0,0,0-.16-.4c.12-.52-.91-1-.2-1.48.63-.6,2.14-2,2.82-.52Zm20.15-2.92c-.32.4,0,1-.44,1.4,0,.72-.6,1.08-1.11,1.36-4.72,1-9.36-.56-13.92-1.36a48.52,48.52,0,0,0-20.35-.32c-3.05.56-6,1.28-9,2.12a13,13,0,0,1-5.55,0c-1.43-.68-.83-2.52-1.27-3.8a20.89,20.89,0,0,0-.32-2.76,2.37,2.37,0,0,1-.16-1c.59.08,1.19.52,1.82.68,3.33.64,6.31-.44,9.4-1a68.51,68.51,0,0,1,9.16-1.4,58.68,58.68,0,0,1,10.63.36c1.11,0,2.06.32,3.13.4,2.22.28,4.29.88,6.55,1a10.85,10.85,0,0,0,1.19.2c3.57.56,7.57,1.56,11,0a29.47,29.47,0,0,1-.79,4.15ZM108,90.81c0,.64-.56.48-.87.72h-1a2.18,2.18,0,0,1-.12-1.12,8,8,0,0,1,1.94.4Zm-.44-1c.44-.44-.12-3,1.11-1.32,0,.32,0,.8-.28,1s-.52.48-.83.28Zm3.21-.4a2.28,2.28,0,0,1-1.71,1.36c0-1,.91-1.64.6-2.72a2.39,2.39,0,0,0-2.5-.8c-.36.24-.2.64-.32,1l-.16,1.32c-.79,0-.83-.72-1.07-1.28a2.31,2.31,0,0,1,1.23-2.08,2.73,2.73,0,0,1,2.3.08,1.78,1.78,0,0,1,1.31.84c.6.56.44,1.56.32,2.28Z"/><line class="cls-3" x1="159.64" y1="74.52" x2="441.92" y2="74.52"/><path class="cls-1" d="M169.31,97.49H163.7L163,99a3.44,3.44,0,0,0-.33,1.28,1.06,1.06,0,0,0,.54,1,4.52,4.52,0,0,0,1.56.28V102h-5.29v-.43a2.38,2.38,0,0,0,1.41-.7,9.57,9.57,0,0,0,1.36-2.4L168,85.79h.22l5.73,13a7.92,7.92,0,0,0,1.35,2.33,1.84,1.84,0,0,0,1.13.42V102h-7.69v-.43H169a2.41,2.41,0,0,0,1.3-.26.63.63,0,0,0,.26-.54,1.44,1.44,0,0,0-.07-.43q0-.11-.35-.88l-.84-2Zm-.4-.87-2.37-5.47-2.44,5.47Z"/><path class="cls-2" d="M186.49,91.05v8.58a3.19,3.19,0,0,0,.23,1.57,1.36,1.36,0,0,0,.95.39V102h-4.46v-1.46a5.74,5.74,0,0,1-1.57,1.37,3.66,3.66,0,0,1-1.76.42,2.63,2.63,0,0,1-1.65-.56,2.82,2.82,0,0,1-1-1.34,9.81,9.81,0,0,1-.25-2.66V93.43a3.08,3.08,0,0,0-.23-1.55,1.37,1.37,0,0,0-.95-.4v-.43h4.46v7.49a6.56,6.56,0,0,0,.11,1.51,1,1,0,0,0,.35.52.94.94,0,0,0,.56.18,1.36,1.36,0,0,0,.76-.22,4.84,4.84,0,0,0,1.13-1.23V93.43a3.08,3.08,0,0,0-.23-1.55,1.37,1.37,0,0,0-.95-.4v-.43Z"/><path class="cls-2" d="M195.7,90.75l.18,3.74h-.4A5.84,5.84,0,0,0,194,92.21a2.44,2.44,0,0,0-1.52-.61,1.14,1.14,0,0,0-.82.33,1,1,0,0,0-.34.74,1,1,0,0,0,.23.61,11.3,11.3,0,0,0,2.1,1.65,8.4,8.4,0,0,1,2.26,2,3.16,3.16,0,0,1,.55,1.82,3.84,3.84,0,0,1-.46,1.79,3.21,3.21,0,0,1-1.29,1.35,3.69,3.69,0,0,1-1.84.47,6.38,6.38,0,0,1-2.1-.49,1.78,1.78,0,0,0-.48-.13q-.39,0-.64.59h-.39l-.19-3.94h.4a5.12,5.12,0,0,0,1.44,2.32,2.8,2.8,0,0,0,1.75.77,1.26,1.26,0,0,0,.91-.34,1.14,1.14,0,0,0,.36-.84,1.45,1.45,0,0,0-.35-1A9.19,9.19,0,0,0,192,98.06a12.3,12.3,0,0,1-2.32-1.9,3.3,3.3,0,0,1-.77-2.12,3.44,3.44,0,0,1,.87-2.29,3.14,3.14,0,0,1,2.53-1,3.69,3.69,0,0,1,1.72.43,1.14,1.14,0,0,0,.52.18.62.62,0,0,0,.34-.08,2.43,2.43,0,0,0,.41-.5Z"/><path class="cls-2" d="M202,87v4h2.6v1.16H202V99a5.58,5.58,0,0,0,.08,1.23,1,1,0,0,0,.32.45.71.71,0,0,0,.41.16q.76,0,1.44-1.16l.35.26a3.2,3.2,0,0,1-3.08,2.25,2.76,2.76,0,0,1-1.77-.57,2.59,2.59,0,0,1-.91-1.3,11,11,0,0,1-.12-2.16V92.21h-1.43V91.8a14.92,14.92,0,0,0,2.51-2.19A13.22,13.22,0,0,0,201.6,87Z"/><path class="cls-2" d="M210.18,91.05v2.48a7.91,7.91,0,0,1,1.91-2.25,2.81,2.81,0,0,1,1.58-.56,1.37,1.37,0,0,1,1,.41,1.54,1.54,0,0,1,.4,1.14,1.77,1.77,0,0,1-.39,1.22,1.16,1.16,0,0,1-.91.43,1.59,1.59,0,0,1-1.08-.4,6.71,6.71,0,0,0-.54-.45.51.51,0,0,0-.27-.07,1,1,0,0,0-.64.26,2.43,2.43,0,0,0-.73,1.14,8,8,0,0,0-.37,2.51v3.18a2.69,2.69,0,0,0,.08.86,1,1,0,0,0,.41.47,2.57,2.57,0,0,0,.94.18V102H205.7v-.42a1.28,1.28,0,0,0,1-.39,3.61,3.61,0,0,0,.26-1.77V93.37a4.55,4.55,0,0,0-.09-1.2,1,1,0,0,0-.34-.48,1.82,1.82,0,0,0-.79-.21v-.43Z"/><path class="cls-1" d="M221.61,100.39a5.78,5.78,0,0,1-3.6,1.77,2.13,2.13,0,0,1-1.56-.61,2.1,2.1,0,0,1-.62-1.55,3,3,0,0,1,1.08-2.25,20.22,20.22,0,0,1,4.7-2.67V94a5.06,5.06,0,0,0-.14-1.56,1.19,1.19,0,0,0-.5-.56,1.5,1.5,0,0,0-.84-.25,2.16,2.16,0,0,0-1.25.34.6.6,0,0,0-.3.49,1,1,0,0,0,.33.61,1.5,1.5,0,0,1,.45,1,1.31,1.31,0,0,1-.43,1,1.55,1.55,0,0,1-1.11.4,1.81,1.81,0,0,1-1.24-.45,1.37,1.37,0,0,1-.49-1,2.41,2.41,0,0,1,.67-1.61,4.2,4.2,0,0,1,1.86-1.18,7.61,7.61,0,0,1,2.48-.41,4.05,4.05,0,0,1,2.46.67,3.07,3.07,0,0,1,1.18,1.43,9.35,9.35,0,0,1,.16,2.26v4.25a4.5,4.5,0,0,0,.06.95.56.56,0,0,0,.18.28.42.42,0,0,0,.27.09q.3,0,.62-.43l.35.28a4.31,4.31,0,0,1-1.22,1.27,2.63,2.63,0,0,1-1.42.39,2.24,2.24,0,0,1-1.46-.43,2,2,0,0,1-.64-1.34Zm0-.86V95.87a6.85,6.85,0,0,0-2.11,1.78,2.17,2.17,0,0,0-.46,1.28,1.34,1.34,0,0,0,.39.95,1.06,1.06,0,0,0,.82.32,2.25,2.25,0,0,0,1.36-.66Z"/><path class="cls-2" d="M231.37,86.12V99.74a2.64,2.64,0,0,0,.27,1.49,1.48,1.48,0,0,0,1.05.36V102h-5.92v-.42a1.43,1.43,0,0,0,1.08-.42,2.62,2.62,0,0,0,.23-1.43V88.39a2.55,2.55,0,0,0-.27-1.46,1.43,1.43,0,0,0-1-.37v-.43Z"/><path class="cls-1" d="M236.63,85.74a1.82,1.82,0,1,1-1.28.54,1.74,1.74,0,0,1,1.28-.54Zm1.64,5.31v8.68a2.64,2.64,0,0,0,.27,1.49,1.48,1.48,0,0,0,1.05.36V102h-5.92v-.42a1.43,1.43,0,0,0,1.08-.42,2.62,2.62,0,0,0,.23-1.43v-6.4a2.58,2.58,0,0,0-.27-1.48,1.43,1.43,0,0,0-1-.37v-.43Z"/><path class="cls-1" d="M246.47,100.39a5.78,5.78,0,0,1-3.6,1.77,2.13,2.13,0,0,1-1.56-.61,2.1,2.1,0,0,1-.62-1.55,3,3,0,0,1,1.08-2.25,20.23,20.23,0,0,1,4.7-2.67V94a5.06,5.06,0,0,0-.14-1.56,1.19,1.19,0,0,0-.5-.56,1.5,1.5,0,0,0-.84-.25,2.16,2.16,0,0,0-1.25.34.6.6,0,0,0-.3.49,1,1,0,0,0,.33.61,1.51,1.51,0,0,1,.45,1,1.31,1.31,0,0,1-.43,1,1.55,1.55,0,0,1-1.11.4,1.81,1.81,0,0,1-1.24-.45,1.37,1.37,0,0,1-.49-1,2.41,2.41,0,0,1,.67-1.61,4.2,4.2,0,0,1,1.86-1.18,7.61,7.61,0,0,1,2.48-.41,4.05,4.05,0,0,1,2.46.67,3.07,3.07,0,0,1,1.18,1.43,9.32,9.32,0,0,1,.16,2.26v4.25a4.5,4.5,0,0,0,.06.95.56.56,0,0,0,.18.28.42.42,0,0,0,.27.09q.3,0,.62-.43l.35.28a4.31,4.31,0,0,1-1.22,1.27,2.63,2.63,0,0,1-1.42.39,2.24,2.24,0,0,1-1.46-.43,2,2,0,0,1-.64-1.34Zm0-.86V95.87a6.84,6.84,0,0,0-2.11,1.78,2.17,2.17,0,0,0-.46,1.28,1.34,1.34,0,0,0,.39.95,1.06,1.06,0,0,0,.82.32,2.25,2.25,0,0,0,1.36-.66Z"/><path class="cls-2" d="M256.18,91.05v1.42a6.33,6.33,0,0,1,1.62-1.32,3.42,3.42,0,0,1,1.66-.42,2.64,2.64,0,0,1,1.77.6,2.81,2.81,0,0,1,.94,1.46,11.37,11.37,0,0,1,.19,2.57v4.27a3.37,3.37,0,0,0,.22,1.58,1.38,1.38,0,0,0,1,.39V102H258v-.42a1.16,1.16,0,0,0,.89-.52,3.37,3.37,0,0,0,.19-1.45V94.74A8,8,0,0,0,259,93a1,1,0,0,0-.36-.54.86.86,0,0,0-.55-.2q-1,0-1.87,1.44v5.87a3.34,3.34,0,0,0,.22,1.56,1.19,1.19,0,0,0,.86.41V102h-5.54v-.42a1.36,1.36,0,0,0,1-.45,3.29,3.29,0,0,0,.2-1.52V93.43a3.08,3.08,0,0,0-.23-1.55,1.37,1.37,0,0,0-.95-.4v-.43Z"/><path class="cls-1" d="M275.42,94.77v4.45a5.14,5.14,0,0,0,.15,1.63,1.19,1.19,0,0,0,.56.53,3.75,3.75,0,0,0,1.49.2V102h-8.13v-.43a3.7,3.7,0,0,0,1.49-.2,1.19,1.19,0,0,0,.55-.54,4.71,4.71,0,0,0,.16-1.62V88.91a4.7,4.7,0,0,0-.16-1.62,1.12,1.12,0,0,0-.55-.54,3.76,3.76,0,0,0-1.49-.2v-.43h7.38a16.12,16.12,0,0,1,4.22.4A4.24,4.24,0,0,1,283.27,88a3.92,3.92,0,0,1,.84,2.51,3.75,3.75,0,0,1-1.27,2.91,5.23,5.23,0,0,1-2.26,1.09l3.82,5.38a8.09,8.09,0,0,0,1.07,1.3,2,2,0,0,0,1.11.4V102h-5l-5.12-7.24Zm0-7.79v7h.67a7.6,7.6,0,0,0,2.44-.29,2.43,2.43,0,0,0,1.27-1.08,4,4,0,0,0,.47-2A3.09,3.09,0,0,0,276.67,87Z"/><path class="cls-1" d="M295.74,96.14h-6a5.66,5.66,0,0,0,1.16,3.45,2.45,2.45,0,0,0,1.95,1,2.24,2.24,0,0,0,1.28-.39,5,5,0,0,0,1.23-1.42l.4.26a6.69,6.69,0,0,1-2,2.58,4.27,4.27,0,0,1-2.5.75,4.15,4.15,0,0,1-3.69-1.87,6.61,6.61,0,0,1-1-3.75,6.22,6.22,0,0,1,1.48-4.36,4.58,4.58,0,0,1,3.48-1.63,3.74,3.74,0,0,1,2.88,1.37,6.19,6.19,0,0,1,1.32,4Zm-2.88-.79a10.52,10.52,0,0,0-.21-2.59A2.09,2.09,0,0,0,292,91.7a1,1,0,0,0-.66-.21,1.15,1.15,0,0,0-1,.6,5.12,5.12,0,0,0-.69,2.86v.41Z"/><path class="cls-2" d="M304,90.75l.18,3.74h-.4a5.84,5.84,0,0,0-1.49-2.27,2.44,2.44,0,0,0-1.52-.61,1.14,1.14,0,0,0-.82.33,1,1,0,0,0-.34.74,1,1,0,0,0,.23.61,11.29,11.29,0,0,0,2.1,1.65,8.4,8.4,0,0,1,2.26,2,3.16,3.16,0,0,1,.55,1.82,3.85,3.85,0,0,1-.46,1.79,3.21,3.21,0,0,1-1.29,1.35,3.69,3.69,0,0,1-1.84.47,6.38,6.38,0,0,1-2.1-.49,1.78,1.78,0,0,0-.48-.13q-.39,0-.64.59h-.39l-.19-3.94h.4a5.12,5.12,0,0,0,1.44,2.32,2.8,2.8,0,0,0,1.75.77,1.26,1.26,0,0,0,.91-.34,1.13,1.13,0,0,0,.36-.84,1.45,1.45,0,0,0-.35-1,9.2,9.2,0,0,0-1.57-1.24,12.3,12.3,0,0,1-2.32-1.9,3.3,3.3,0,0,1-.77-2.12,3.44,3.44,0,0,1,.87-2.29,3.14,3.14,0,0,1,2.53-1,3.69,3.69,0,0,1,1.72.43,1.14,1.14,0,0,0,.52.18.62.62,0,0,0,.34-.08,2.43,2.43,0,0,0,.41-.5Z"/><path class="cls-1" d="M315.5,96.14h-6a5.66,5.66,0,0,0,1.16,3.45,2.45,2.45,0,0,0,1.95,1,2.24,2.24,0,0,0,1.28-.39,5,5,0,0,0,1.23-1.42l.4.26a6.69,6.69,0,0,1-2,2.58,4.27,4.27,0,0,1-2.5.75,4.15,4.15,0,0,1-3.69-1.87,6.61,6.61,0,0,1-1-3.75,6.22,6.22,0,0,1,1.48-4.36,4.58,4.58,0,0,1,3.48-1.63,3.74,3.74,0,0,1,2.88,1.37,6.19,6.19,0,0,1,1.32,4Zm-2.88-.79a10.52,10.52,0,0,0-.21-2.59,2.09,2.09,0,0,0-.63-1.07,1,1,0,0,0-.66-.21,1.15,1.15,0,0,0-1,.6,5.12,5.12,0,0,0-.69,2.86v.41Z"/><path class="cls-1" d="M322.67,100.39a5.78,5.78,0,0,1-3.6,1.77,2.13,2.13,0,0,1-1.56-.61,2.1,2.1,0,0,1-.62-1.55A3,3,0,0,1,318,97.76a20.22,20.22,0,0,1,4.7-2.67V94a5.05,5.05,0,0,0-.14-1.56,1.19,1.19,0,0,0-.5-.56,1.5,1.5,0,0,0-.84-.25,2.16,2.16,0,0,0-1.25.34.6.6,0,0,0-.3.49,1,1,0,0,0,.33.61,1.5,1.5,0,0,1,.45,1,1.31,1.31,0,0,1-.43,1,1.55,1.55,0,0,1-1.11.4,1.81,1.81,0,0,1-1.24-.45,1.36,1.36,0,0,1-.49-1,2.41,2.41,0,0,1,.67-1.61,4.2,4.2,0,0,1,1.86-1.18,7.61,7.61,0,0,1,2.48-.41,4.05,4.05,0,0,1,2.46.67,3.07,3.07,0,0,1,1.18,1.43,9.31,9.31,0,0,1,.16,2.26v4.25a4.5,4.5,0,0,0,.06.95.56.56,0,0,0,.18.28.42.42,0,0,0,.27.09q.3,0,.62-.43l.35.28a4.31,4.31,0,0,1-1.22,1.27,2.63,2.63,0,0,1-1.42.39,2.24,2.24,0,0,1-1.46-.43,2,2,0,0,1-.64-1.34Zm0-.86V95.87a6.84,6.84,0,0,0-2.11,1.78,2.17,2.17,0,0,0-.46,1.28,1.34,1.34,0,0,0,.39.95,1.06,1.06,0,0,0,.82.32,2.25,2.25,0,0,0,1.36-.66Z"/><path class="cls-2" d="M332.93,91.05v2.48a7.92,7.92,0,0,1,1.91-2.25,2.81,2.81,0,0,1,1.58-.56,1.37,1.37,0,0,1,1,.41,1.54,1.54,0,0,1,.4,1.14,1.77,1.77,0,0,1-.39,1.22,1.16,1.16,0,0,1-.91.43,1.59,1.59,0,0,1-1.08-.4,6.75,6.75,0,0,0-.54-.45.51.51,0,0,0-.27-.07,1,1,0,0,0-.64.26,2.43,2.43,0,0,0-.73,1.14,8,8,0,0,0-.37,2.51v3.18a2.69,2.69,0,0,0,.08.86,1,1,0,0,0,.41.47,2.57,2.57,0,0,0,.94.18V102h-5.92v-.42a1.28,1.28,0,0,0,1-.39,3.62,3.62,0,0,0,.26-1.77V93.37a4.55,4.55,0,0,0-.09-1.2,1,1,0,0,0-.34-.48,1.82,1.82,0,0,0-.79-.21v-.43Z"/><path class="cls-2" d="M347.26,99.18l.36.28a5.49,5.49,0,0,1-1.93,2.17,4.61,4.61,0,0,1-2.45.7,4.25,4.25,0,0,1-3.5-1.65,6.19,6.19,0,0,1-1.31-4,6.67,6.67,0,0,1,1.2-3.94,4.59,4.59,0,0,1,4-2.05,4,4,0,0,1,2.7.86,2.48,2.48,0,0,1,1,1.91A1.39,1.39,0,0,1,345.83,95a1.56,1.56,0,0,1-1.15-.46,2.68,2.68,0,0,1-.55-1.63,1.79,1.79,0,0,0-.34-1,.84.84,0,0,0-.63-.29,1.15,1.15,0,0,0-1,.6,5,5,0,0,0-.61,2.77,9,9,0,0,0,.49,3,4.55,4.55,0,0,0,1.35,2.1,2.4,2.4,0,0,0,1.52.5,2.32,2.32,0,0,0,1.09-.27,5,5,0,0,0,1.22-1Z"/><path class="cls-2" d="M352.73,86.12v6.34a6.56,6.56,0,0,1,1.65-1.34,3.28,3.28,0,0,1,1.56-.4,2.71,2.71,0,0,1,1.76.59,2.74,2.74,0,0,1,1,1.38,10,10,0,0,1,.25,2.66v4.28a3.19,3.19,0,0,0,.23,1.57,1.36,1.36,0,0,0,.95.39V102h-5.55v-.42a1.26,1.26,0,0,0,.88-.47,3.18,3.18,0,0,0,.21-1.49V94.74a7.87,7.87,0,0,0-.11-1.7,1,1,0,0,0-.36-.54.87.87,0,0,0-.56-.2,1.53,1.53,0,0,0-.91.33,4.06,4.06,0,0,0-1,1.13v5.87a3.61,3.61,0,0,0,.18,1.46,1.14,1.14,0,0,0,.91.49V102h-5.55v-.42a1.36,1.36,0,0,0,1-.45,3.25,3.25,0,0,0,.2-1.51V88.5a3.08,3.08,0,0,0-.23-1.55,1.37,1.37,0,0,0-.95-.4v-.43Z"/><path class="cls-1" d="M381.61,85.76v5.51h-.46a5.87,5.87,0,0,0-1.92-3.3A4.91,4.91,0,0,0,376,86.81a4.71,4.71,0,0,0-2.73.86,5,5,0,0,0-1.82,2.24,10.14,10.14,0,0,0-.74,3.94,13.22,13.22,0,0,0,.54,3.89,5.2,5.2,0,0,0,1.69,2.65,4.71,4.71,0,0,0,3,.89,5.78,5.78,0,0,0,2.74-.66,9.46,9.46,0,0,0,2.64-2.26v1.37a8.74,8.74,0,0,1-2.79,2,8.49,8.49,0,0,1-3.37.62,9.74,9.74,0,0,1-4.52-1,7.25,7.25,0,0,1-3-2.93,8.21,8.21,0,0,1-1.07-4.07,8.65,8.65,0,0,1,4.39-7.48,8.73,8.73,0,0,1,4.3-1.12,9.75,9.75,0,0,1,3.54.73,5.44,5.44,0,0,0,1.37.42.88.88,0,0,0,.64-.27,1.5,1.5,0,0,0,.36-.88Z"/><path class="cls-1" d="M387.7,90.72a5.08,5.08,0,0,1,2.66.74,4.69,4.69,0,0,1,1.86,2.1,6.86,6.86,0,0,1,.64,3,6.3,6.3,0,0,1-1.18,3.9,4.67,4.67,0,0,1-3.95,1.9,4.52,4.52,0,0,1-3.81-1.73,6.4,6.4,0,0,1-1.34-4,6.48,6.48,0,0,1,1.36-4.1,4.5,4.5,0,0,1,3.75-1.76Zm0,.83a1.37,1.37,0,0,0-1,.46,3.19,3.19,0,0,0-.56,1.78q-.13,1.32-.13,3.69a15.72,15.72,0,0,0,.16,2.34,2.26,2.26,0,0,0,.55,1.27,1.31,1.31,0,0,0,1,.43,1.33,1.33,0,0,0,.88-.29,2,2,0,0,0,.61-1.11,27.13,27.13,0,0,0,.23-4.5,11.06,11.06,0,0,0-.22-2.73,2.1,2.1,0,0,0-.66-1.09,1.23,1.23,0,0,0-.8-.25Z"/><path class="cls-2" d="M404.15,91.05v8.58a3.18,3.18,0,0,0,.23,1.57,1.36,1.36,0,0,0,.95.39V102h-4.46v-1.46a5.74,5.74,0,0,1-1.57,1.37,3.66,3.66,0,0,1-1.76.42,2.63,2.63,0,0,1-1.65-.56,2.82,2.82,0,0,1-1-1.34,9.81,9.81,0,0,1-.25-2.66V93.43a3.08,3.08,0,0,0-.23-1.55,1.37,1.37,0,0,0-.95-.4v-.43H398v7.49a6.54,6.54,0,0,0,.11,1.51,1,1,0,0,0,.35.52.94.94,0,0,0,.56.18,1.36,1.36,0,0,0,.76-.22,4.84,4.84,0,0,0,1.13-1.23V93.43a3.08,3.08,0,0,0-.23-1.55,1.37,1.37,0,0,0-.95-.4v-.43Z"/><path class="cls-2" d="M410.92,91.05v1.42a6.33,6.33,0,0,1,1.62-1.32,3.42,3.42,0,0,1,1.66-.42,2.64,2.64,0,0,1,1.77.6,2.81,2.81,0,0,1,.94,1.46,11.39,11.39,0,0,1,.19,2.57v4.27a3.37,3.37,0,0,0,.22,1.58,1.38,1.38,0,0,0,1,.39V102h-5.54v-.42a1.16,1.16,0,0,0,.89-.52,3.37,3.37,0,0,0,.19-1.45V94.74a8,8,0,0,0-.11-1.7,1,1,0,0,0-.36-.54.86.86,0,0,0-.55-.2q-1,0-1.87,1.44v5.87a3.34,3.34,0,0,0,.22,1.56,1.18,1.18,0,0,0,.86.41V102h-5.54v-.42a1.36,1.36,0,0,0,1-.45,3.29,3.29,0,0,0,.2-1.52V93.43a3.08,3.08,0,0,0-.23-1.55,1.37,1.37,0,0,0-.95-.4v-.43Z"/><path class="cls-2" d="M427.77,99.18l.36.28a5.49,5.49,0,0,1-1.93,2.17,4.61,4.61,0,0,1-2.45.7,4.25,4.25,0,0,1-3.5-1.65,6.19,6.19,0,0,1-1.31-4,6.67,6.67,0,0,1,1.2-3.94,4.59,4.59,0,0,1,4-2.05,4,4,0,0,1,2.7.86,2.48,2.48,0,0,1,1,1.91A1.39,1.39,0,0,1,426.34,95a1.56,1.56,0,0,1-1.15-.46,2.68,2.68,0,0,1-.55-1.63,1.79,1.79,0,0,0-.34-1,.84.84,0,0,0-.63-.29,1.15,1.15,0,0,0-1,.6,5,5,0,0,0-.61,2.77,9,9,0,0,0,.49,3,4.55,4.55,0,0,0,1.35,2.1,2.4,2.4,0,0,0,1.52.5,2.32,2.32,0,0,0,1.09-.27,5,5,0,0,0,1.22-1Z"/><path class="cls-1" d="M431.64,85.74a1.82,1.82,0,1,1-1.28.54,1.74,1.74,0,0,1,1.28-.54Zm1.64,5.31v8.68a2.65,2.65,0,0,0,.27,1.49,1.48,1.48,0,0,0,1.05.36V102h-5.92v-.42a1.43,1.43,0,0,0,1.08-.42,2.62,2.62,0,0,0,.23-1.43v-6.4a2.58,2.58,0,0,0-.27-1.48,1.43,1.43,0,0,0-1-.37v-.43Z"/><path class="cls-2" d="M440.56,86.12V99.74a2.64,2.64,0,0,0,.27,1.49,1.48,1.48,0,0,0,1.05.36V102H436v-.42a1.43,1.43,0,0,0,1.08-.42,2.62,2.62,0,0,0,.23-1.43V88.39a2.55,2.55,0,0,0-.27-1.46,1.43,1.43,0,0,0-1-.37v-.43Z"/><rect class="cls-4" width="461.2" height="118.05"/></g></g></svg>