<?xml version="1.0" encoding="utf-8"?>
<!-- Generator: Adobe Illustrator 15.1.0, SVG Export Plug-In . SVG Version: 6.00 Build 0)  -->
<!DOCTYPE svg PUBLIC "-//W3C//DTD SVG 1.1//EN" "http://www.w3.org/Graphics/SVG/1.1/DTD/svg11.dtd">
<svg version="1.1" id="Layer_1" xmlns="http://www.w3.org/2000/svg" xmlns:xlink="http://www.w3.org/1999/xlink" x="0px" y="0px"
	 width="1500px" height="1000px" viewBox="0 0 1500 1000" enable-background="new 0 0 1500 1000" xml:space="preserve">
<g>
	<path fill="#5A87C5" d="M508.583,433.199c8.101,0,16.297,2.033,23.809,6.298l-4.345,7.214c-1.034-1.18-2.262-2.219-3.671-3.07
		c-2.528-1.521-5.312-2.247-8.06-2.247c-5.304,0-10.473,2.698-13.408,7.57c-4.459,7.398-2.077,17.009,5.32,21.468
		c1.415,0.852,2.905,1.448,4.433,1.813l-4.553,7.553l-12.707-7.656c0.515,2.907,0.033,6-1.611,8.726
		c-2.373,3.943-6.555,6.123-10.838,6.123c-2.225,0-4.474-0.586-6.516-1.818c-5.983-3.603-7.909-11.374-4.305-17.354
		c1.644-2.726,4.155-4.601,6.966-5.5l-11.29-6.803C476.992,441.139,492.595,433.199,508.583,433.199"/>
</g>
<path fill="#094183" d="M586.92,475.679l-0.011-0.01c-0.145-0.107-0.257-0.258-0.333-0.422
	c-1.398-15.232-13.084-17.755-13.084-17.755c-1.66-1.669-3.257-3.096-4.379-4.057c-0.056-0.049-0.112-0.096-0.168-0.143
	c-0.861-0.733-1.402-1.162-1.402-1.162l-0.002,0.001c-7.472-5.926-16.806-9.592-26.996-9.973v11.878
	c0,0.409-0.229,0.785-0.592,0.974c-0.362,0.187-0.803,0.155-1.135-0.083c-1.884-1.334-4.172-2.121-6.659-2.121
	c-3.193,0-6.071,1.29-8.165,3.382c-2.09,2.095-3.382,4.974-3.382,8.167c0,3.196,1.292,6.074,3.38,8.166
	c2.095,2.094,4.973,3.383,8.166,3.383c2.486,0,4.775-0.786,6.659-2.12c0.332-0.235,0.773-0.269,1.136-0.08
	c0.362,0.188,0.591,0.564,0.591,0.971v12.315h6.551c-0.25-1.149-0.388-2.337-0.388-3.556c0.002-9.243,7.492-16.733,16.734-16.733
	c9.241,0,16.732,7.49,16.732,16.733c0,1.219-0.14,2.406-0.385,3.556h5.524h1.19h9.193c-1.289-3.12-3.199-5.739-4.92-7.667
	C588.802,477.104,587.086,475.8,586.92,475.679z"/>
<path fill="#5A87C5" d="M597.232,494.455c0-0.935-0.091-1.836-0.225-2.717h-10.504h-0.971h-11.711c-0.41,0-0.782-0.227-0.97-0.587
	c-0.191-0.362-0.161-0.798,0.07-1.134c1.303-1.875,2.07-4.131,2.07-6.583c0-3.193-1.292-6.073-3.383-8.168
	c-2.094-2.092-4.975-3.381-8.167-3.384c-3.194,0.003-6.076,1.292-8.167,3.384c-2.092,2.095-3.382,4.975-3.382,8.168
	c0,2.452,0.763,4.711,2.066,6.586c0.232,0.333,0.258,0.77,0.07,1.131c-0.189,0.36-0.562,0.587-0.968,0.587h-12.517v6.811
	c1.358-0.364,2.784-0.569,4.263-0.569c9.239,0.001,16.729,7.493,16.729,16.732c0,9.243-7.49,16.735-16.729,16.735
	c-1.479,0-2.904-0.206-4.263-0.567v0.979v5.836v0.412h7.067c0.174,0,0.348,0.041,0.501,0.12c5.442,2.802,9.615,6.583,13.452,11.459
	c0.916,1.167,2.289,2.219,3.771,2.953c1.479,0.739,3.067,1.155,4.346,1.152c0.756,0,1.392-0.142,1.856-0.39
	c0.465-0.253,0.781-0.577,1.003-1.11c0.147-0.355,0.242-0.813,0.242-1.412c0.002-0.837-0.194-1.938-0.676-3.302
	c-2.047-5.786-3.003-9.951-3.458-12.631c-0.113-0.968-0.143-2.047,0.041-3.004c0-0.009-0.005-0.01-0.004-0.02
	c0-0.006,0-0.011,0-0.017l0.41-1.498c3.304-0.143,7.391-0.789,11.196-2.661l0.024-0.016c2.451-1.173,4.207-2.646,5.492-4.212
	c1.274-1.56,2.082-3.227,2.59-4.798l0.015-0.067c0.019-0.075,0.043-0.187,0.073-0.33c0.06-0.291,0.141-0.718,0.215-1.254
	l0.004-0.022c0.386-2.371,0.525-4.406,0.525-6.102c0-0.096-0.005-0.18-0.005-0.271c1.327-0.942,2.059-1.902,2.059-1.902l0,0
	c0.531-0.527,0.978-1.032,1.337-1.483c0.003,0.003,0.006,0.009,0.007,0.014c0.065-0.089,0.121-0.177,0.186-0.266
	c0.738-0.964,1.08-1.634,1.08-1.634l-0.002-0.002C596.324,501.444,597.228,497.783,597.232,494.455z"/>
<path fill="#094183" d="M552.972,506.543c-2.094-2.089-4.975-3.381-8.166-3.381c-2.742,0-5.245,0.957-7.23,2.549
	c-0.328,0.262-0.776,0.316-1.158,0.134c-0.38-0.184-0.621-0.566-0.621-0.988v-13.118h-7.195c0.429,1.475,0.666,3.034,0.666,4.65
	c0,9.24-7.488,16.732-16.73,16.732c-9.243,0-16.732-7.49-16.733-16.732c0-1.607,0.236-3.153,0.662-4.62
	c-0.873,0.028-1.687,0.087-2.473,0.156c-8.536,1.241-15.093,8.589-15.093,17.47c0,4.047,1.365,7.771,3.655,10.75
	c2.005,2.386,4.284,4.265,6.01,5.516c0.64,0.475,1.351,0.955,2.125,1.426c0.369,0.226,0.584,0.347,0.584,0.347
	c3.403,1.95,7.956,3.603,13.678,3.603c1.269,0,2.595-0.079,3.98-0.258c0.312-0.041,0.63,0.059,0.865,0.267l0,0l0.005,0.005
	l0.037,0.029c0.037,0.028,0.094,0.078,0.174,0.139c0.161,0.119,0.408,0.294,0.735,0.49c0.652,0.39,1.619,0.865,2.84,1.175
	c0.043,0.012,0.081,0.033,0.124,0.049c0.058,0.014,0.125,0.028,0.186,0.044c1.48,2.947,3.624,4.382,3.64,4.395
	c3.23,2.598,8.97,4.747,18.257,0.737v-0.412v-5.92v-7.211c0-0.419,0.241-0.802,0.623-0.983c0.38-0.183,0.828-0.132,1.157,0.134
	c1.984,1.593,4.487,2.548,7.229,2.548c3.191,0,6.071-1.289,8.166-3.382c2.09-2.094,3.38-4.973,3.38-8.168
	C556.353,511.52,555.063,508.64,552.972,506.543z"/>
<g>
	<path fill="#5A87C5" d="M644.107,446.808l-8.969,18.979h4.032l1.78-3.794h9.206l1.755,3.794h4.034l-8.969-18.979H644.107z
		 M642.352,458.932l3.201-6.83l3.157,6.83H642.352z"/>
	<path fill="#5A87C5" d="M676.545,463.281c-0.143-0.412-0.271-0.792-0.39-1.13c-0.118-0.338-0.227-0.654-0.331-0.949
		c-0.103-0.29-0.2-0.57-0.293-0.84c-0.096-0.27-0.197-0.539-0.308-0.808c-0.22-0.586-0.518-1.089-0.896-1.505
		c-0.377-0.423-0.865-0.74-1.46-0.962c0.519-0.175,0.994-0.432,1.424-0.771c0.431-0.34,0.806-0.73,1.119-1.175
		c0.314-0.446,0.56-0.927,0.731-1.448c0.173-0.521,0.259-1.057,0.259-1.612c0-0.777-0.141-1.496-0.426-2.159
		c-0.284-0.663-0.679-1.239-1.184-1.731c-0.505-0.493-1.104-0.872-1.799-1.151c-0.695-0.275-1.444-0.417-2.249-0.417l-7.484,0.024
		v18.957h3.628v-7.544h1.373c0.569,0,1.061,0.081,1.479,0.239c0.418,0.154,0.778,0.378,1.077,0.662
		c0.3,0.283,0.557,0.624,0.77,1.021c0.212,0.395,0.39,0.83,0.531,1.305l1.35,4.317h4.049c-0.174-0.283-0.335-0.611-0.485-0.983
		C676.88,464.248,676.72,463.803,676.545,463.281z M672.476,453.541c-0.167,0.356-0.392,0.66-0.675,0.912
		c-0.285,0.256-0.622,0.448-1.009,0.583c-0.388,0.133-0.803,0.2-1.247,0.2h-2.658v-5.909h2.658c0.444,0,0.858,0.077,1.247,0.229
		c0.387,0.15,0.724,0.356,1.009,0.628c0.284,0.267,0.509,0.581,0.675,0.946c0.167,0.365,0.249,0.768,0.249,1.211
		C672.725,452.783,672.644,453.186,672.476,453.541z"/>
	<path fill="#5A87C5" d="M697.738,461.47c-0.901,0.529-1.938,0.795-3.108,0.795c-0.885,0-1.722-0.175-2.503-0.514
		c-0.784-0.338-1.467-0.799-2.052-1.375c-0.585-0.575-1.047-1.249-1.388-2.018c-0.339-0.763-0.51-1.578-0.51-2.431
		c0-0.867,0.17-1.687,0.51-2.454c0.341-0.766,0.803-1.438,1.388-2.017c0.585-0.58,1.269-1.036,2.052-1.377
		c0.782-0.338,1.618-0.512,2.503-0.512c1.107,0,2.124,0.258,3.048,0.771c0.926,0.515,1.681,1.191,2.267,2.031l2.539-2.61
		c-0.902-1.091-2.029-1.977-3.38-2.658c-1.353-0.677-2.843-1.018-4.473-1.018c-1.408,0-2.728,0.252-3.961,0.759
		c-1.235,0.506-2.307,1.204-3.22,2.097c-0.913,0.895-1.634,1.937-2.162,3.133c-0.524,1.193-0.789,2.477-0.789,3.854
		c0,1.374,0.264,2.663,0.789,3.856c0.528,1.192,1.249,2.233,2.162,3.12c0.913,0.887,1.984,1.584,3.22,2.096
		c1.233,0.517,2.553,0.777,3.961,0.777c1.629,0,3.12-0.347,4.473-1.021c1.352-0.685,2.501-1.599,3.45-2.755l-2.561-2.631
		C699.389,460.239,698.639,460.941,697.738,461.47z"/>
	<path fill="#5A87C5" d="M912.266,459.404c-0.902,0.527-1.939,0.792-3.111,0.792c-0.881,0-1.715-0.166-2.502-0.507
		c-0.781-0.343-1.465-0.802-2.051-1.378c-0.586-0.577-1.047-1.249-1.389-2.016c-0.34-0.768-0.51-1.579-0.51-2.435
		c0-0.867,0.17-1.687,0.51-2.451c0.342-0.77,0.803-1.441,1.389-2.019c0.586-0.576,1.27-1.034,2.051-1.38
		c0.787-0.337,1.621-0.507,2.502-0.507c1.109,0,2.123,0.26,3.049,0.772c0.928,0.513,1.684,1.188,2.268,2.028l2.537-2.611
		c-0.9-1.089-2.025-1.975-3.379-2.656c-1.354-0.68-2.842-1.021-4.475-1.021c-1.404,0-2.725,0.254-3.959,0.758
		c-1.234,0.507-2.311,1.207-3.223,2.103c-0.908,0.89-1.629,1.938-2.156,3.131c-0.523,1.195-0.791,2.479-0.791,3.853
		c0,1.378,0.268,2.665,0.791,3.855c0.527,1.195,1.248,2.237,2.156,3.123c0.912,0.886,1.988,1.587,3.223,2.099
		c1.234,0.514,2.555,0.771,3.959,0.771c1.633,0,3.121-0.341,4.475-1.017c1.354-0.682,2.504-1.599,3.453-2.752l-2.564-2.639
		C913.918,458.175,913.164,458.873,912.266,459.404z"/>
	<polygon fill="#5A87C5" points="924.42,463.168 936.943,463.168 936.943,459.966 928.025,459.966 928.025,454.744 936.826,454.744 
		936.826,451.781 928.025,451.781 928.025,447.25 936.943,447.25 936.943,444.213 924.42,444.213 	"/>
	<polygon fill="#5A87C5" points="957.379,456.387 949.334,444 945.209,444 945.209,462.982 948.813,462.982 948.813,449.671 
		957.379,462.982 960.982,462.982 960.982,444 957.379,444 	"/>
	<path fill="#5A87C5" d="M1004.055,460.285c-0.139-0.409-0.27-0.786-0.387-1.127c-0.119-0.34-0.229-0.655-0.33-0.946
		c-0.102-0.297-0.199-0.576-0.295-0.846c-0.096-0.267-0.197-0.533-0.309-0.807c-0.217-0.585-0.518-1.084-0.895-1.502
		c-0.373-0.422-0.861-0.742-1.461-0.964c0.52-0.174,0.994-0.429,1.428-0.772c0.432-0.34,0.805-0.728,1.119-1.171
		c0.314-0.446,0.557-0.926,0.729-1.45c0.172-0.521,0.262-1.06,0.262-1.609c0-0.778-0.143-1.496-0.426-2.159
		c-0.287-0.666-0.682-1.244-1.184-1.732c-0.508-0.493-1.107-0.875-1.801-1.152c-0.695-0.276-1.445-0.416-2.252-0.416l-7.482,0.025
		v18.954h3.629v-7.542h1.373c0.568,0,1.061,0.078,1.479,0.236c0.422,0.158,0.775,0.378,1.078,0.666
		c0.301,0.282,0.555,0.626,0.77,1.017c0.213,0.397,0.389,0.834,0.529,1.306l1.354,4.317h4.047c-0.174-0.285-0.334-0.612-0.486-0.985
		C1004.393,461.253,1004.232,460.807,1004.055,460.285z M999.988,450.551c-0.166,0.353-0.391,0.658-0.676,0.909
		c-0.285,0.254-0.619,0.448-1.01,0.584c-0.385,0.132-0.801,0.198-1.246,0.198H994.4v-5.905h2.656c0.445,0,0.861,0.073,1.246,0.225
		c0.391,0.152,0.725,0.361,1.01,0.628c0.285,0.272,0.51,0.587,0.676,0.95c0.164,0.363,0.25,0.769,0.25,1.21
		S1000.152,450.189,999.988,450.551z"/>
	<polygon fill="#5A87C5" points="1025.25,446.507 1025.25,443.471 1012.723,443.471 1012.723,462.427 1025.25,462.427 
		1025.25,459.223 1016.33,459.223 1016.33,454.004 1025.129,454.004 1025.129,451.04 1016.33,451.04 1016.33,446.507 	"/>
	<polygon fill="#5A87C5" points="968.773,447.093 974.018,447.093 974.018,462.796 977.738,462.796 977.738,447.093 
		982.986,447.093 982.986,443.816 968.773,443.816 	"/>
	<polygon fill="#5A87C5" points="719.939,449.577 725.159,449.577 725.159,465.191 728.869,465.191 728.869,449.577 
		734.091,449.577 734.091,446.314 719.939,446.314 	"/>
	<path fill="#5A87C5" d="M755.1,462.692c-0.141-0.407-0.271-0.78-0.387-1.121c-0.117-0.342-0.229-0.653-0.33-0.947
		c-0.102-0.29-0.199-0.567-0.295-0.84c-0.094-0.264-0.195-0.531-0.303-0.803c-0.221-0.581-0.516-1.079-0.893-1.498
		c-0.375-0.418-0.861-0.736-1.457-0.957c0.518-0.173,0.99-0.428,1.422-0.769c0.432-0.336,0.801-0.727,1.113-1.168
		s0.557-0.919,0.729-1.442c0.172-0.521,0.26-1.054,0.26-1.608c0-0.769-0.143-1.486-0.426-2.147c-0.283-0.663-0.674-1.236-1.18-1.727
		c-0.502-0.488-1.1-0.868-1.791-1.146c-0.691-0.275-1.441-0.413-2.242-0.413l-7.453,0.024v18.875h3.615v-7.513h1.369
		c0.564,0,1.053,0.084,1.473,0.239c0.416,0.158,0.771,0.375,1.07,0.66c0.301,0.281,0.555,0.623,0.768,1.015
		c0.213,0.396,0.389,0.828,0.529,1.303l1.344,4.296h4.033c-0.174-0.282-0.334-0.607-0.486-0.979
		C755.434,463.657,755.271,463.214,755.1,462.692z M751.047,452.994c-0.166,0.354-0.389,0.658-0.672,0.91
		c-0.285,0.252-0.619,0.446-1.004,0.58c-0.387,0.133-0.803,0.197-1.242,0.197h-2.646V448.8h2.646c0.439,0,0.855,0.077,1.242,0.226
		c0.385,0.149,0.719,0.357,1.004,0.626c0.283,0.268,0.506,0.581,0.672,0.942c0.166,0.365,0.248,0.769,0.248,1.207
		C751.295,452.24,751.213,452.639,751.047,452.994z"/>
	<path fill="#5A87C5" d="M771.029,445.92l-8.932,18.902h4.018l1.771-3.78h9.166l1.748,3.78h4.02l-8.932-18.902H771.029z
		 M769.281,457.995l3.188-6.807l3.145,6.807H769.281z"/>
	<rect x="790.123" y="445.758" fill="#5A87C5" width="3.664" height="18.878"/>
	<polygon fill="#5A87C5" points="814.867,457.884 806.859,445.549 802.748,445.549 802.748,464.45 806.338,464.45 806.338,451.198 
		814.867,464.45 818.459,464.45 818.459,445.549 814.867,445.549 	"/>
	<rect x="827.42" y="445.388" fill="#5A87C5" width="3.662" height="18.877"/>
	<polygon fill="#5A87C5" points="852.162,457.512 844.154,445.178 840.041,445.178 840.041,464.078 843.633,464.078 
		843.633,450.827 852.162,464.078 855.754,464.078 855.754,445.178 852.162,445.178 	"/>
	<path fill="#5A87C5" d="M874.709,457.232h3.873v1.82c-0.596,0.52-1.271,0.938-2.027,1.252c-0.756,0.315-1.555,0.471-2.404,0.471
		c-0.895,0-1.736-0.164-2.523-0.494c-0.783-0.331-1.473-0.789-2.064-1.372c-0.588-0.579-1.051-1.256-1.387-2.019
		c-0.34-0.765-0.51-1.588-0.51-2.47c0-0.869,0.17-1.682,0.51-2.445c0.336-0.767,0.799-1.434,1.391-2.008
		c0.592-0.575,1.277-1.03,2.063-1.357c0.785-0.331,1.629-0.496,2.521-0.496c1.088,0,2.07,0.208,2.953,0.624
		c0.879,0.416,1.674,1.105,2.381,2.067l2.477-2.526c-0.928-1.103-2.059-1.987-3.391-2.646c-1.328-0.661-2.805-0.994-4.43-0.994
		c-1.4,0-2.717,0.256-3.943,0.768c-1.232,0.514-2.307,1.209-3.227,2.092c-0.922,0.881-1.645,1.919-2.174,3.108
		c-0.527,1.187-0.791,2.461-0.791,3.814c0,1.386,0.268,2.679,0.801,3.872c0.537,1.199,1.264,2.242,2.176,3.121
		c0.914,0.885,1.982,1.574,3.215,2.081c1.227,0.505,2.543,0.754,3.943,0.754c0.711,0,1.42-0.074,2.139-0.226
		c0.719-0.148,1.418-0.379,2.105-0.694c0.684-0.314,1.342-0.714,1.971-1.194c0.629-0.479,1.213-1.05,1.748-1.713v-6.308h-7.395
		V457.232z"/>
</g>
<g>
	<rect x="634.837" y="477.966" fill="#094183" width="3.752" height="19.344"/>
	<polygon fill="#094183" points="656.369,490.579 648.161,477.94 643.948,477.94 643.948,497.31 647.628,497.31 647.628,483.728 
		656.369,497.31 660.049,497.31 660.049,477.94 656.369,477.94 	"/>
	<path fill="#094183" d="M689.272,493.28c-0.92,0.54-1.978,0.81-3.172,0.81c-0.904,0-1.756-0.171-2.555-0.521
		c-0.798-0.345-1.497-0.814-2.094-1.404c-0.597-0.589-1.069-1.273-1.416-2.061c-0.348-0.778-0.521-1.607-0.521-2.479
		c0-0.887,0.174-1.721,0.521-2.506c0.347-0.782,0.818-1.467,1.416-2.059c0.597-0.588,1.295-1.055,2.094-1.404
		c0.799-0.346,1.651-0.518,2.555-0.518c1.128,0,2.167,0.261,3.111,0.785c0.943,0.526,1.713,1.215,2.312,2.07l2.59-2.664
		c-0.919-1.112-2.07-2.016-3.449-2.71c-1.381-0.694-2.902-1.045-4.564-1.045c-1.437,0-2.785,0.263-4.043,0.777
		c-1.26,0.518-2.355,1.231-3.287,2.143c-0.932,0.913-1.667,1.978-2.203,3.197c-0.537,1.218-0.806,2.528-0.806,3.933
		s0.269,2.716,0.806,3.934c0.537,1.22,1.271,2.28,2.203,3.186c0.931,0.905,2.027,1.617,3.287,2.144
		c1.258,0.522,2.606,0.784,4.043,0.784c1.662,0,3.183-0.344,4.564-1.04c1.379-0.691,2.553-1.633,3.523-2.808l-2.614-2.686
		C690.958,492.023,690.191,492.739,689.272,493.28z"/>
	<path fill="#094183" d="M713.858,480.495c-0.936-0.911-2.024-1.625-3.265-2.143c-1.243-0.515-2.563-0.777-3.966-0.777
		c-1.402,0-2.728,0.263-3.978,0.777c-1.25,0.518-2.341,1.228-3.277,2.13c-0.935,0.905-1.672,1.971-2.213,3.195
		c-0.539,1.228-0.809,2.543-0.809,3.947s0.27,2.716,0.809,3.934c0.541,1.22,1.278,2.28,2.213,3.186
		c0.936,0.905,2.028,1.617,3.277,2.144c1.25,0.522,2.576,0.784,3.978,0.784c1.403,0,2.723-0.262,3.966-0.784
		c1.241-0.526,2.329-1.238,3.265-2.144c0.935-0.905,1.672-1.968,2.212-3.195c0.542-1.227,0.812-2.534,0.812-3.924
		c0-1.404-0.27-2.715-0.812-3.933C715.531,482.473,714.793,481.408,713.858,480.495z M712.619,490.12
		c-0.339,0.791-0.804,1.48-1.395,2.07c-0.59,0.588-1.282,1.058-2.073,1.403c-0.792,0.35-1.634,0.521-2.524,0.521
		c-0.905,0-1.754-0.171-2.546-0.521c-0.793-0.346-1.484-0.815-2.075-1.403c-0.59-0.59-1.055-1.279-1.395-2.07
		s-0.51-1.623-0.51-2.495c0-0.887,0.17-1.721,0.51-2.506c0.339-0.782,0.804-1.467,1.395-2.059c0.59-0.588,1.282-1.055,2.075-1.404
		c0.792-0.346,1.641-0.518,2.546-0.518c0.89,0,1.732,0.172,2.524,0.518c0.791,0.35,1.483,0.816,2.073,1.404
		c0.59,0.592,1.055,1.276,1.395,2.059c0.34,0.785,0.51,1.619,0.51,2.506C713.128,488.497,712.958,489.329,712.619,490.12z"/>
	<path fill="#094183" d="M731.778,490.483h3.972v1.865c-0.613,0.53-1.305,0.958-2.079,1.283c-0.773,0.322-1.594,0.482-2.464,0.482
		c-0.919,0-1.779-0.17-2.583-0.508c-0.807-0.34-1.512-0.808-2.115-1.407c-0.604-0.597-1.079-1.283-1.424-2.069
		c-0.348-0.781-0.521-1.624-0.521-2.529c0-0.887,0.172-1.721,0.521-2.505c0.346-0.783,0.82-1.468,1.424-2.058
		c0.605-0.588,1.309-1.054,2.116-1.394c0.804-0.335,1.667-0.506,2.585-0.506c1.112,0,2.119,0.212,3.023,0.64
		c0.901,0.428,1.716,1.136,2.44,2.119l2.539-2.588c-0.953-1.135-2.111-2.039-3.475-2.716c-1.363-0.676-2.876-1.019-4.54-1.019
		c-1.438,0-2.784,0.266-4.045,0.788c-1.259,0.525-2.36,1.241-3.304,2.145c-0.944,0.901-1.688,1.965-2.228,3.185
		c-0.54,1.218-0.812,2.522-0.812,3.908c0,1.422,0.274,2.745,0.824,3.974c0.548,1.225,1.292,2.292,2.228,3.195
		c0.938,0.906,2.033,1.614,3.292,2.129c1.261,0.517,2.606,0.773,4.045,0.773c0.725,0,1.456-0.076,2.19-0.227
		c0.734-0.154,1.455-0.395,2.154-0.717c0.703-0.323,1.379-0.727,2.023-1.222c0.645-0.491,1.242-1.075,1.791-1.755v-6.465h-7.58
		V490.483z"/>
	<polygon fill="#094183" points="756.412,490.579 748.203,477.94 743.99,477.94 743.99,497.31 747.672,497.31 747.672,483.728 
		756.412,497.31 760.09,497.31 760.09,477.94 756.412,477.94 	"/>
	<rect x="765.449" y="477.966" fill="#094183" width="3.754" height="19.344"/>
	<polygon fill="#094183" points="773.352,481.31 778.699,481.31 778.699,497.31 782.502,497.31 782.502,481.31 787.85,481.31 
		787.85,477.966 773.352,477.966 	"/>
	<rect x="792" y="477.966" fill="#094183" width="3.752" height="19.344"/>
	<polygon fill="#094183" points="808.738,491.549 803.703,477.94 799.539,477.94 807.045,497.31 810.482,497.31 817.818,477.94 
		813.703,477.94 	"/>
	<polygon fill="#094183" points="821.604,497.31 834.387,497.31 834.387,494.041 825.283,494.041 825.283,488.714 834.266,488.714 
		834.266,485.689 825.283,485.689 825.283,481.064 834.387,481.064 834.387,477.966 821.604,477.966 	"/>
	<path fill="#094183" d="M863.75,493.28c-0.924,0.54-1.982,0.81-3.174,0.81c-0.904,0-1.756-0.171-2.555-0.521
		c-0.799-0.345-1.496-0.814-2.094-1.404c-0.598-0.589-1.07-1.273-1.418-2.061c-0.35-0.778-0.52-1.607-0.52-2.479
		c0-0.887,0.17-1.721,0.52-2.506c0.348-0.782,0.82-1.467,1.418-2.059c0.598-0.588,1.295-1.055,2.094-1.404
		c0.799-0.346,1.65-0.518,2.555-0.518c1.127,0,2.166,0.261,3.111,0.785c0.943,0.526,1.713,1.215,2.311,2.07l2.592-2.664
		c-0.92-1.112-2.068-2.016-3.449-2.71s-2.904-1.045-4.564-1.045c-1.439,0-2.787,0.263-4.045,0.777
		c-1.258,0.518-2.354,1.231-3.285,2.143c-0.93,0.913-1.666,1.978-2.203,3.197c-0.539,1.218-0.805,2.528-0.805,3.933
		s0.266,2.716,0.805,3.934c0.537,1.22,1.273,2.28,2.203,3.186c0.932,0.905,2.027,1.617,3.285,2.144
		c1.258,0.522,2.605,0.784,4.045,0.784c1.66,0,3.184-0.344,4.564-1.04c1.381-0.691,2.553-1.633,3.521-2.808l-2.613-2.686
		C865.436,492.023,864.666,492.739,863.75,493.28z"/>
	<path fill="#094183" d="M888.334,480.495c-0.936-0.911-2.023-1.625-3.266-2.143c-1.24-0.515-2.561-0.777-3.967-0.777
		c-1.404,0-2.727,0.263-3.977,0.777c-1.25,0.518-2.342,1.228-3.277,2.13c-0.934,0.905-1.672,1.971-2.211,3.195
		c-0.543,1.228-0.813,2.543-0.813,3.947s0.27,2.716,0.813,3.934c0.539,1.22,1.277,2.28,2.211,3.186
		c0.936,0.905,2.027,1.617,3.277,2.144c1.25,0.522,2.572,0.784,3.977,0.784c1.406,0,2.727-0.262,3.967-0.784
		c1.242-0.526,2.33-1.238,3.266-2.144s1.674-1.968,2.213-3.195c0.539-1.227,0.811-2.534,0.811-3.924
		c0-1.404-0.271-2.715-0.811-3.933C890.008,482.473,889.27,481.408,888.334,480.495z M887.096,490.12
		c-0.342,0.791-0.807,1.48-1.393,2.07c-0.592,0.588-1.283,1.058-2.076,1.403c-0.795,0.35-1.635,0.521-2.525,0.521
		c-0.906,0-1.754-0.171-2.547-0.521c-0.791-0.346-1.482-0.815-2.072-1.403c-0.59-0.59-1.057-1.279-1.395-2.07
		c-0.34-0.791-0.51-1.623-0.51-2.495c0-0.887,0.17-1.721,0.51-2.506c0.338-0.782,0.805-1.467,1.395-2.059
		c0.59-0.588,1.281-1.055,2.072-1.404c0.793-0.346,1.641-0.518,2.547-0.518c0.891,0,1.73,0.172,2.525,0.518
		c0.793,0.35,1.484,0.816,2.076,1.404c0.586,0.592,1.051,1.276,1.393,2.059c0.34,0.785,0.508,1.619,0.508,2.506
		C887.604,488.497,887.436,489.329,887.096,490.12z"/>
	<polygon fill="#094183" points="905.627,487.554 900.25,477.94 896.014,477.94 896.014,497.31 899.691,497.31 899.691,484.282 
		905.553,494.673 911.652,484.38 911.652,497.31 915.334,497.31 915.334,477.94 911.242,477.94 	"/>
	<path fill="#094183" d="M932.336,479.83c-0.6-0.581-1.303-1.039-2.109-1.368c-0.811-0.331-1.668-0.496-2.57-0.496h-6.961v19.344
		h3.75v-6.318h3.205c0.904,0,1.764-0.167,2.574-0.497c0.809-0.331,1.51-0.79,2.109-1.378c0.598-0.592,1.074-1.283,1.418-2.083
		c0.35-0.799,0.523-1.658,0.523-2.579c0-0.92-0.174-1.775-0.52-2.567C933.408,481.099,932.934,480.41,932.336,479.83z
		 M930.244,485.822c-0.188,0.445-0.439,0.836-0.764,1.174c-0.322,0.338-0.701,0.61-1.137,0.812
		c-0.436,0.202-0.904,0.302-1.404,0.302h-2.494v-7.309h2.494c0.5,0,0.969,0.096,1.404,0.288c0.436,0.193,0.814,0.45,1.137,0.774
		c0.324,0.324,0.576,0.699,0.764,1.138c0.186,0.437,0.279,0.906,0.279,1.405S930.43,485.379,930.244,485.822z"/>
	<path fill="#094183" d="M951.568,488.642c0,0.775-0.1,1.487-0.301,2.133c-0.201,0.642-0.5,1.204-0.895,1.682
		c-0.396,0.478-0.898,0.848-1.502,1.113c-0.605,0.267-1.318,0.4-2.143,0.4c-0.775,0-1.465-0.141-2.07-0.425
		c-0.605-0.283-1.109-0.666-1.512-1.152c-0.404-0.481-0.711-1.051-0.922-1.702c-0.209-0.656-0.313-1.352-0.313-2.096V477.94h-3.754
		v10.628c0,1.275,0.199,2.467,0.604,3.573s0.98,2.066,1.73,2.879c0.75,0.817,1.66,1.46,2.725,1.928c1.066,0.467,2.262,0.7,3.584,0.7
		c1.355,0,2.563-0.238,3.617-0.713c1.061-0.478,1.955-1.129,2.691-1.962c0.732-0.833,1.291-1.804,1.68-2.917
		c0.387-1.114,0.582-2.315,0.582-3.606v-10.51h-3.803V488.642z"/>
	<polygon fill="#094183" points="959.035,481.31 964.387,481.31 964.387,497.31 968.188,497.31 968.188,481.31 973.539,481.31 
		973.539,477.966 959.035,477.966 	"/>
	<rect x="977.688" y="477.966" fill="#094183" width="3.752" height="19.344"/>
	<polygon fill="#094183" points="999.221,490.579 991.014,477.94 986.799,477.94 986.799,497.31 990.479,497.31 990.479,483.728 
		999.221,497.31 1002.898,497.31 1002.898,477.94 999.221,477.94 	"/>
	<path fill="#094183" d="M1018.5,487.287v3.196h3.971v1.865c-0.611,0.53-1.309,0.958-2.078,1.283
		c-0.775,0.322-1.596,0.482-2.465,0.482c-0.916,0-1.779-0.17-2.586-0.508c-0.805-0.34-1.51-0.808-2.113-1.407
		c-0.604-0.597-1.078-1.283-1.426-2.069c-0.348-0.781-0.518-1.624-0.518-2.529c0-0.887,0.17-1.721,0.518-2.505
		c0.348-0.783,0.822-1.468,1.428-2.058c0.604-0.588,1.307-1.054,2.113-1.394c0.807-0.335,1.668-0.506,2.588-0.506
		c1.111,0,2.117,0.212,3.02,0.64c0.904,0.428,1.717,1.136,2.443,2.119l2.535-2.588c-0.949-1.135-2.109-2.039-3.473-2.716
		c-1.363-0.676-2.875-1.019-4.541-1.019c-1.436,0-2.783,0.266-4.041,0.788c-1.258,0.525-2.361,1.241-3.305,2.145
		c-0.943,0.901-1.688,1.965-2.227,3.185c-0.543,1.218-0.813,2.522-0.813,3.908c0,1.422,0.273,2.745,0.822,3.974
		c0.549,1.225,1.293,2.292,2.229,3.195c0.936,0.906,2.035,1.614,3.293,2.129c1.258,0.517,2.605,0.773,4.041,0.773
		c0.727,0,1.457-0.076,2.195-0.227c0.732-0.154,1.451-0.395,2.152-0.717c0.701-0.323,1.377-0.727,2.021-1.222
		c0.646-0.491,1.242-1.075,1.791-1.755v-6.465H1018.5z"/>
</g>
<g>
	<polygon fill="#094183" points="634.837,528.878 638.452,528.878 638.452,520.46 647.276,520.46 647.276,517.461 638.452,517.461 
		638.452,513.039 647.395,513.039 647.395,509.874 634.837,509.874 	"/>
	<path fill="#094183" d="M666.258,512.359c-0.917-0.896-1.987-1.597-3.205-2.104c-1.222-0.506-2.52-0.761-3.898-0.761
		c-1.376,0-2.681,0.255-3.907,0.761c-1.228,0.507-2.301,1.207-3.22,2.091c-0.918,0.89-1.644,1.938-2.173,3.143
		c-0.531,1.208-0.796,2.497-0.796,3.876c0,1.38,0.265,2.667,0.796,3.865c0.529,1.197,1.254,2.238,2.173,3.125
		c0.919,0.889,1.992,1.592,3.22,2.109c1.226,0.513,2.53,0.772,3.907,0.772c1.378,0,2.676-0.26,3.898-0.772
		c1.218-0.518,2.288-1.221,3.205-2.109c0.92-0.887,1.644-1.932,2.175-3.135c0.53-1.208,0.795-2.491,0.795-3.855
		c0-1.379-0.265-2.665-0.795-3.866C667.902,514.305,667.178,513.258,666.258,512.359z M665.042,521.814
		c-0.334,0.775-0.791,1.456-1.37,2.035c-0.581,0.578-1.259,1.037-2.038,1.377c-0.779,0.342-1.605,0.512-2.479,0.512
		c-0.889,0-1.723-0.17-2.5-0.512c-0.78-0.34-1.459-0.799-2.039-1.377c-0.58-0.579-1.035-1.26-1.37-2.035
		c-0.334-0.777-0.501-1.596-0.501-2.449c0-0.873,0.167-1.69,0.501-2.462c0.334-0.771,0.79-1.444,1.37-2.019
		c0.58-0.58,1.259-1.042,2.039-1.382c0.777-0.344,1.611-0.512,2.5-0.512c0.874,0,1.7,0.168,2.479,0.512
		c0.778,0.34,1.457,0.802,2.038,1.382c0.58,0.574,1.036,1.247,1.37,2.019c0.333,0.771,0.5,1.589,0.5,2.462
		C665.542,520.219,665.375,521.037,665.042,521.814z"/>
	<path fill="#094183" d="M685.425,526.547c-0.141-0.412-0.271-0.787-0.39-1.128c-0.118-0.342-0.228-0.66-0.331-0.951
		c-0.102-0.295-0.201-0.577-0.294-0.847c-0.094-0.27-0.198-0.538-0.306-0.809c-0.222-0.585-0.521-1.088-0.899-1.509
		c-0.378-0.421-0.867-0.74-1.465-0.962c0.52-0.176,0.996-0.434,1.43-0.771c0.433-0.346,0.807-0.736,1.122-1.181
		c0.314-0.443,0.559-0.929,0.731-1.449c0.174-0.524,0.26-1.064,0.26-1.618c0-0.774-0.143-1.498-0.427-2.164
		c-0.286-0.669-0.681-1.244-1.187-1.738c-0.506-0.49-1.107-0.877-1.805-1.155c-0.696-0.275-1.449-0.412-2.254-0.412l-7.503,0.021
		v19.004h3.639v-7.563h1.376c0.57,0,1.062,0.08,1.481,0.239c0.42,0.157,0.779,0.38,1.081,0.665c0.3,0.282,0.556,0.626,0.771,1.024
		c0.213,0.394,0.39,0.83,0.533,1.305l1.353,4.329h4.06c-0.175-0.286-0.337-0.616-0.488-0.988
		C685.763,527.52,685.6,527.07,685.425,526.547z M681.346,516.785c-0.167,0.355-0.393,0.66-0.678,0.914
		c-0.286,0.257-0.624,0.448-1.011,0.582c-0.389,0.136-0.805,0.204-1.25,0.204h-2.663v-5.924h2.663c0.445,0,0.86,0.079,1.25,0.229
		c0.387,0.151,0.725,0.359,1.011,0.627c0.285,0.272,0.511,0.589,0.678,0.954s0.25,0.769,0.25,1.211
		C681.596,516.026,681.513,516.429,681.346,516.785z"/>
	<polygon fill="#094183" points="705.618,519.292 700.338,509.853 696.175,509.853 696.175,528.878 699.792,528.878 
		699.792,516.082 705.547,526.286 711.541,516.181 711.541,528.878 715.157,528.878 715.157,509.853 711.135,509.853 	"/>
	<polygon fill="#094183" points="718.723,528.878 731.28,528.878 731.28,525.669 722.338,525.669 722.338,520.436 731.162,520.436 
		731.162,517.461 722.338,517.461 722.338,512.918 731.28,512.918 731.28,509.874 718.723,509.874 	"/>
	<path fill="#094183" d="M748.525,512.657c-0.793-0.855-1.74-1.54-2.844-2.045c-1.102-0.507-2.301-0.76-3.602-0.76h-7.943v19.025
		h7.943c1.301,0,2.5-0.246,3.602-0.748c1.104-0.499,2.051-1.181,2.844-2.045c0.793-0.865,1.41-1.871,1.855-3.021
		c0.443-1.147,0.664-2.381,0.664-3.698c0-1.301-0.221-2.527-0.664-3.687C749.936,514.521,749.318,513.515,748.525,512.657z
		 M746.848,521.852c-0.295,0.783-0.709,1.467-1.248,2.043c-0.537,0.579-1.193,1.032-1.965,1.356
		c-0.766,0.326-1.637,0.487-2.602,0.487h-3.211v-12.984h3.211c0.982,0,1.865,0.169,2.65,0.51c0.787,0.339,1.449,0.809,1.986,1.404
		c0.539,0.593,0.951,1.286,1.236,2.082c0.287,0.791,0.422,1.634,0.404,2.518C747.295,520.206,747.141,521.065,746.848,521.852z"/>
	<rect x="753.898" y="509.874" fill="#094183" width="3.689" height="19.004"/>
	<path fill="#094183" d="M773.711,524.916c-0.904,0.533-1.941,0.8-3.115,0.8c-0.889,0-1.725-0.171-2.51-0.511
		c-0.783-0.342-1.469-0.801-2.057-1.382c-0.586-0.577-1.051-1.25-1.391-2.021c-0.342-0.768-0.512-1.583-0.512-2.437
		c0-0.873,0.17-1.69,0.512-2.462c0.34-0.771,0.805-1.444,1.391-2.019c0.588-0.58,1.273-1.042,2.057-1.382
		c0.785-0.344,1.621-0.512,2.51-0.512c1.109,0,2.129,0.257,3.057,0.771c0.93,0.516,1.686,1.196,2.271,2.036l2.545-2.618
		c-0.902-1.095-2.033-1.981-3.389-2.663c-1.357-0.685-2.85-1.022-4.484-1.022c-1.412,0-2.734,0.255-3.971,0.761
		c-1.236,0.507-2.314,1.208-3.23,2.104c-0.914,0.898-1.635,1.945-2.162,3.14c-0.529,1.201-0.793,2.487-0.793,3.866
		c0,1.38,0.264,2.667,0.793,3.865c0.527,1.197,1.248,2.238,2.162,3.125c0.916,0.889,1.994,1.592,3.23,2.109
		c1.236,0.513,2.559,0.772,3.971,0.772c1.635,0,3.127-0.344,4.484-1.026c1.355-0.679,2.506-1.6,3.459-2.758l-2.568-2.641
		C775.369,523.684,774.615,524.39,773.711,524.916z"/>
	<path fill="#094183" d="M787.793,509.853l-8.99,19.025h4.041l1.785-3.804h9.229l1.76,3.804h4.043l-8.99-19.025H787.793z
		 M786.033,522.006l3.211-6.849l3.164,6.849H786.033z"/>
	<polygon fill="#094183" points="805.322,509.874 801.563,509.874 801.563,528.878 814.43,528.878 814.43,525.311 805.322,525.311 	
		"/>
	<polygon fill="#094183" points="822.875,513.158 828.129,513.158 828.129,528.878 831.863,528.878 831.863,513.158 
		837.121,513.158 837.121,509.874 822.875,509.874 	"/>
	<polygon fill="#094183" points="839.498,528.878 852.057,528.878 852.057,525.669 843.113,525.669 843.113,520.436 
		851.936,520.436 851.936,517.461 843.113,517.461 843.113,512.918 852.057,512.918 852.057,509.874 839.498,509.874 	"/>
	<path fill="#094183" d="M867.469,524.916c-0.902,0.533-1.943,0.8-3.115,0.8c-0.889,0-1.723-0.171-2.51-0.511
		c-0.785-0.342-1.471-0.801-2.057-1.382c-0.588-0.577-1.053-1.25-1.391-2.021c-0.344-0.768-0.514-1.583-0.514-2.437
		c0-0.873,0.17-1.69,0.514-2.462c0.338-0.771,0.803-1.444,1.391-2.019c0.586-0.58,1.271-1.042,2.057-1.382
		c0.787-0.344,1.621-0.512,2.51-0.512c1.109,0,2.129,0.257,3.057,0.771c0.926,0.516,1.684,1.196,2.271,2.036l2.541-2.618
		c-0.9-1.095-2.027-1.981-3.387-2.663c-1.354-0.685-2.852-1.022-4.482-1.022c-1.41,0-2.736,0.255-3.973,0.761
		c-1.236,0.507-2.313,1.208-3.225,2.104c-0.918,0.898-1.639,1.945-2.168,3.14c-0.527,1.201-0.789,2.487-0.789,3.866
		c0,1.38,0.262,2.667,0.789,3.865c0.529,1.197,1.25,2.238,2.168,3.125c0.912,0.889,1.988,1.592,3.225,2.109
		c1.236,0.513,2.563,0.772,3.973,0.772c1.631,0,3.129-0.344,4.482-1.026c1.359-0.679,2.51-1.6,3.461-2.758l-2.57-2.641
		C869.129,523.684,868.373,524.39,867.469,524.916z"/>
	<polygon fill="#094183" points="885.402,517.414 877.906,517.414 877.906,509.874 874.223,509.874 874.223,528.878 
		877.906,528.878 877.906,520.46 885.402,520.46 885.402,528.878 889.088,528.878 889.088,509.874 885.402,509.874 	"/>
	<polygon fill="#094183" points="904.859,522.268 896.795,509.853 892.658,509.853 892.658,528.878 896.271,528.878 
		896.271,515.536 904.859,528.878 908.473,528.878 908.473,509.853 904.859,509.853 	"/>
	<path fill="#094183" d="M928.527,512.359c-0.92-0.896-1.986-1.597-3.209-2.104c-1.221-0.506-2.52-0.761-3.895-0.761
		c-1.379,0-2.682,0.255-3.908,0.761c-1.227,0.507-2.299,1.207-3.219,2.091c-0.918,0.89-1.645,1.938-2.174,3.143
		c-0.531,1.208-0.797,2.497-0.797,3.876c0,1.38,0.266,2.667,0.797,3.865c0.529,1.197,1.256,2.238,2.174,3.125
		c0.92,0.889,1.992,1.592,3.219,2.109c1.227,0.513,2.529,0.772,3.908,0.772c1.375,0,2.674-0.26,3.895-0.772
		c1.223-0.518,2.289-1.221,3.209-2.109c0.918-0.887,1.643-1.932,2.174-3.135c0.527-1.208,0.795-2.491,0.795-3.855
		c0-1.379-0.268-2.665-0.795-3.866C930.17,514.305,929.445,513.258,928.527,512.359z M927.309,521.814
		c-0.332,0.775-0.793,1.456-1.369,2.035c-0.582,0.578-1.26,1.037-2.039,1.377c-0.781,0.342-1.604,0.512-2.477,0.512
		c-0.889,0-1.725-0.17-2.504-0.512c-0.775-0.34-1.457-0.799-2.035-1.377c-0.582-0.579-1.037-1.26-1.371-2.035
		c-0.334-0.777-0.5-1.596-0.5-2.449c0-0.873,0.166-1.69,0.5-2.462s0.789-1.444,1.371-2.019c0.578-0.58,1.26-1.042,2.035-1.382
		c0.779-0.344,1.615-0.512,2.504-0.512c0.873,0,1.695,0.168,2.477,0.512c0.779,0.34,1.457,0.802,2.039,1.382
		c0.576,0.574,1.037,1.247,1.369,2.019c0.334,0.771,0.5,1.589,0.5,2.462C927.809,520.219,927.643,521.037,927.309,521.814z"/>
	<polygon fill="#094183" points="938.131,509.874 934.375,509.874 934.375,528.878 947.24,528.878 947.24,525.311 938.131,525.311 	
		"/>
	<path fill="#094183" d="M964.605,512.359c-0.918-0.896-1.986-1.597-3.207-2.104c-1.219-0.506-2.516-0.761-3.896-0.761
		c-1.377,0-2.68,0.255-3.91,0.761c-1.223,0.507-2.299,1.207-3.215,2.091c-0.92,0.89-1.645,1.938-2.174,3.143
		c-0.529,1.208-0.797,2.497-0.797,3.876c0,1.38,0.268,2.667,0.797,3.865c0.529,1.197,1.254,2.238,2.174,3.125
		c0.916,0.889,1.992,1.592,3.215,2.109c1.23,0.513,2.533,0.772,3.91,0.772c1.381,0,2.678-0.26,3.896-0.772
		c1.221-0.518,2.289-1.221,3.207-2.109c0.92-0.887,1.645-1.932,2.176-3.135c0.529-1.208,0.795-2.491,0.795-3.855
		c0-1.379-0.266-2.665-0.795-3.866C966.25,514.305,965.525,513.258,964.605,512.359z M963.389,521.814
		c-0.332,0.775-0.791,1.456-1.369,2.035c-0.58,0.578-1.258,1.037-2.037,1.377c-0.781,0.342-1.607,0.512-2.48,0.512
		c-0.887,0-1.721-0.17-2.5-0.512c-0.779-0.34-1.459-0.799-2.037-1.377c-0.58-0.579-1.037-1.26-1.369-2.035
		c-0.336-0.777-0.502-1.596-0.502-2.449c0-0.873,0.166-1.69,0.502-2.462c0.332-0.771,0.789-1.444,1.369-2.019
		c0.578-0.58,1.258-1.042,2.037-1.382c0.779-0.344,1.613-0.512,2.5-0.512c0.873,0,1.699,0.168,2.48,0.512
		c0.779,0.34,1.457,0.802,2.037,1.382c0.578,0.574,1.037,1.247,1.369,2.019c0.334,0.771,0.502,1.589,0.502,2.462
		C963.891,520.219,963.723,521.037,963.389,521.814z"/>
	<path fill="#094183" d="M980.514,522.172h3.902v1.833c-0.602,0.521-1.283,0.94-2.043,1.259c-0.76,0.316-1.564,0.475-2.42,0.475
		c-0.902,0-1.748-0.167-2.541-0.496c-0.787-0.335-1.482-0.796-2.074-1.382s-1.061-1.265-1.4-2.033s-0.512-1.599-0.512-2.486
		c0-0.873,0.172-1.691,0.512-2.463c0.34-0.766,0.809-1.44,1.402-2.021c0.594-0.578,1.285-1.032,2.078-1.366
		c0.787-0.332,1.637-0.499,2.537-0.499c1.094,0,2.084,0.208,2.967,0.63c0.889,0.42,1.689,1.115,2.404,2.082l2.49-2.545
		c-0.936-1.108-2.074-1.998-3.414-2.665c-1.34-0.666-2.824-0.998-4.459-0.998c-1.41,0-2.734,0.258-3.973,0.77
		c-1.236,0.518-2.318,1.221-3.246,2.106c-0.926,0.891-1.656,1.934-2.188,3.128c-0.531,1.201-0.799,2.479-0.799,3.842
		c0,1.396,0.27,2.697,0.811,3.903c0.539,1.202,1.268,2.249,2.189,3.136c0.92,0.89,1.996,1.587,3.232,2.094
		c1.238,0.507,2.563,0.764,3.973,0.764c0.713,0,1.432-0.078,2.154-0.229c0.721-0.148,1.426-0.381,2.115-0.701
		c0.691-0.318,1.352-0.715,1.988-1.199c0.631-0.486,1.217-1.059,1.758-1.724v-6.353h-7.445V522.172z"/>
	<rect x="990.814" y="509.874" fill="#094183" width="3.686" height="19.004"/>
	<polygon fill="#094183" points="998.066,528.878 1010.625,528.878 1010.625,525.669 1001.684,525.669 1001.684,520.436 
		1010.506,520.436 1010.506,517.461 1001.684,517.461 1001.684,512.918 1010.625,512.918 1010.625,509.874 998.066,509.874 	"/>
	<path fill="#094183" d="M1025.871,521.874c-0.207-0.596-0.525-1.129-0.951-1.605c-0.43-0.475-0.984-0.911-1.668-1.309
		c-0.678-0.394-1.496-0.762-2.447-1.093c-0.742-0.271-1.369-0.521-1.867-0.751c-0.5-0.229-0.898-0.459-1.201-0.688
		c-0.303-0.229-0.514-0.468-0.641-0.716c-0.129-0.241-0.191-0.518-0.191-0.818c0-0.271,0.068-0.529,0.203-0.772
		c0.133-0.247,0.313-0.459,0.533-0.644c0.223-0.183,0.488-0.329,0.797-0.439s0.645-0.166,1.012-0.166
		c0.791,0,1.482,0.124,2.068,0.37c0.586,0.244,1.119,0.597,1.596,1.057l2.566-2.595c-0.777-0.729-1.664-1.282-2.66-1.666
		c-1-0.377-2.23-0.567-3.689-0.567c-0.871,0-1.686,0.135-2.438,0.402c-0.756,0.27-1.41,0.648-1.975,1.13
		c-0.563,0.484-1.006,1.066-1.33,1.75c-0.326,0.681-0.49,1.425-0.49,2.234c0,0.839,0.148,1.57,0.443,2.189
		c0.291,0.618,0.68,1.157,1.162,1.615c0.482,0.459,1.049,0.853,1.689,1.18c0.643,0.322,1.314,0.614,2.008,0.866
		c0.793,0.285,1.445,0.544,1.953,0.773c0.508,0.23,0.904,0.459,1.188,0.679c0.285,0.221,0.484,0.451,0.596,0.688
		c0.109,0.241,0.168,0.508,0.168,0.809c0,0.286-0.068,0.549-0.201,0.784c-0.137,0.238-0.318,0.441-0.549,0.62
		c-0.232,0.175-0.5,0.311-0.809,0.413c-0.309,0.107-0.639,0.158-0.988,0.158c-0.855,0-1.648-0.131-2.377-0.395
		c-0.73-0.257-1.475-0.709-2.234-1.342l-2.619,2.638c0.57,0.462,1.121,0.854,1.652,1.18c0.533,0.323,1.088,0.592,1.666,0.795
		c0.58,0.206,1.199,0.358,1.854,0.452c0.66,0.095,1.402,0.146,2.225,0.146c0.922,0,1.76-0.151,2.52-0.438
		c0.764-0.296,1.42-0.689,1.977-1.182c0.553-0.49,0.984-1.058,1.295-1.699c0.309-0.641,0.467-1.32,0.467-2.032
		C1026.182,523.139,1026.078,522.469,1025.871,521.874z"/>
</g>
</svg>
