<?xml version="1.0" encoding="UTF-8" standalone="no"?>
<!-- Generator: Adobe Illustrator 15.1.0, SVG Export Plug-In . SVG Version: 6.00 Build 0)  -->

<svg
   xmlns:dc="http://purl.org/dc/elements/1.1/"
   xmlns:cc="http://creativecommons.org/ns#"
   xmlns:rdf="http://www.w3.org/1999/02/22-rdf-syntax-ns#"
   xmlns:svg="http://www.w3.org/2000/svg"
   xmlns="http://www.w3.org/2000/svg"
   xmlns:sodipodi="http://sodipodi.sourceforge.net/DTD/sodipodi-0.dtd"
   xmlns:inkscape="http://www.inkscape.org/namespaces/inkscape"
   version="1.1"
   id="Layer_1"
   x="0px"
   y="0px"
   width="558.37701"
   height="120.59202"
   viewBox="0 0 558.37701 120.59202"
   enable-background="new 0 0 1500 1000"
   xml:space="preserve"
   sodipodi:docname="logo.svg"
   inkscape:version="0.92.3 (2405546, 2018-03-11)"><metadata
   id="metadata141"><rdf:RDF><cc:Work
       rdf:about=""><dc:format>image/svg+xml</dc:format><dc:type
         rdf:resource="http://purl.org/dc/dcmitype/StillImage" /><dc:title></dc:title></cc:Work></rdf:RDF></metadata><defs
   id="defs139" /><sodipodi:namedview
   pagecolor="#ffffff"
   bordercolor="#666666"
   borderopacity="1"
   objecttolerance="10"
   gridtolerance="10"
   guidetolerance="10"
   inkscape:pageopacity="0"
   inkscape:pageshadow="2"
   inkscape:window-width="1920"
   inkscape:window-height="1025"
   id="namedview137"
   showgrid="false"
   fit-margin-top="0"
   fit-margin-left="0"
   fit-margin-right="0"
   fit-margin-bottom="0"
   inkscape:zoom="0.228"
   inkscape:cx="282.193"
   inkscape:cy="53.791016"
   inkscape:window-x="0"
   inkscape:window-y="27"
   inkscape:window-maximized="1"
   inkscape:current-layer="Layer_1" />
<g
   id="g4"
   transform="translate(-467.807,-433.199)">
	<path
   d="m 508.583,433.199 c 8.101,0 16.297,2.033 23.809,6.298 l -4.345,7.214 c -1.034,-1.18 -2.262,-2.219 -3.671,-3.07 -2.528,-1.521 -5.312,-2.247 -8.06,-2.247 -5.304,0 -10.473,2.698 -13.408,7.57 -4.459,7.398 -2.077,17.009 5.32,21.468 1.415,0.852 2.905,1.448 4.433,1.813 l -4.553,7.553 -12.707,-7.656 c 0.515,2.907 0.033,6 -1.611,8.726 -2.373,3.943 -6.555,6.123 -10.838,6.123 -2.225,0 -4.474,-0.586 -6.516,-1.818 -5.983,-3.603 -7.909,-11.374 -4.305,-17.354 1.644,-2.726 4.155,-4.601 6.966,-5.5 l -11.29,-6.803 c 9.185,-14.377 24.788,-22.317 40.776,-22.317"
   id="path2"
   inkscape:connector-curvature="0"
   style="fill:#5a87c5" />
</g>
<path
   d="m 119.113,42.48 -0.011,-0.01 c -0.145,-0.107 -0.257,-0.258 -0.333,-0.422 -1.398,-15.232 -13.084,-17.755 -13.084,-17.755 -1.66,-1.669 -3.257,-3.096 -4.379,-4.057 -0.056,-0.049 -0.112,-0.096 -0.168,-0.143 -0.861,-0.733 -1.402,-1.162 -1.402,-1.162 l -0.002,10e-4 C 92.262,13.006 82.928,9.34 72.738,8.959 v 11.878 c 0,0.409 -0.229,0.785 -0.592,0.974 -0.362,0.187 -0.803,0.155 -1.135,-0.083 -1.884,-1.334 -4.172,-2.121 -6.659,-2.121 -3.193,0 -6.071,1.29 -8.165,3.382 -2.09,2.095 -3.382,4.974 -3.382,8.167 0,3.196 1.292,6.074 3.38,8.166 2.095,2.094 4.973,3.383 8.166,3.383 2.486,0 4.775,-0.786 6.659,-2.12 0.332,-0.235 0.773,-0.269 1.136,-0.08 0.362,0.188 0.591,0.564 0.591,0.971 v 12.315 h 6.551 C 79.038,52.642 78.9,51.454 78.9,50.235 c 0.002,-9.243 7.492,-16.733 16.734,-16.733 9.241,0 16.732,7.49 16.732,16.733 0,1.219 -0.14,2.406 -0.385,3.556 h 5.524 1.19 9.193 c -1.289,-3.12 -3.199,-5.739 -4.92,-7.667 -1.973,-2.219 -3.689,-3.523 -3.855,-3.644 z"
   id="path6"
   inkscape:connector-curvature="0"
   style="fill:#094183" />
<path
   d="m 129.425,61.256 c 0,-0.935 -0.091,-1.836 -0.225,-2.717 h -10.504 -0.971 -11.711 c -0.41,0 -0.782,-0.227 -0.97,-0.587 -0.191,-0.362 -0.161,-0.798 0.07,-1.134 1.303,-1.875 2.07,-4.131 2.07,-6.583 0,-3.193 -1.292,-6.073 -3.383,-8.168 -2.094,-2.092 -4.975,-3.381 -8.167,-3.384 -3.194,0.003 -6.076,1.292 -8.167,3.384 -2.092,2.095 -3.382,4.975 -3.382,8.168 0,2.452 0.763,4.711 2.066,6.586 0.232,0.333 0.258,0.77 0.07,1.131 -0.189,0.36 -0.562,0.587 -0.968,0.587 H 72.736 v 6.811 c 1.358,-0.364 2.784,-0.569 4.263,-0.569 9.239,10e-4 16.729,7.493 16.729,16.732 0,9.243 -7.49,16.735 -16.729,16.735 -1.479,0 -2.904,-0.206 -4.263,-0.567 v 0.979 5.836 0.412 h 7.067 c 0.174,0 0.348,0.041 0.501,0.12 5.442,2.802 9.615,6.583 13.452,11.459 0.916,1.167 2.289,2.219 3.771,2.953 1.479,0.739 3.067,1.155 4.346,1.152 0.756,0 1.392,-0.142 1.856,-0.39 0.465,-0.253 0.781,-0.577 1.003,-1.11 0.147,-0.355 0.242,-0.813 0.242,-1.412 0.002,-0.837 -0.194,-1.938 -0.676,-3.302 -2.047,-5.786 -3.003,-9.951 -3.458,-12.631 -0.113,-0.968 -0.143,-2.047 0.041,-3.004 0,-0.009 -0.005,-0.01 -0.004,-0.02 0,-0.006 0,-0.011 0,-0.017 l 0.41,-1.498 c 3.304,-0.143 7.391,-0.789 11.196,-2.661 l 0.024,-0.016 c 2.451,-1.173 4.207,-2.646 5.492,-4.212 1.274,-1.56 2.082,-3.227 2.59,-4.798 l 0.015,-0.067 c 0.019,-0.075 0.043,-0.187 0.073,-0.33 0.06,-0.291 0.141,-0.718 0.215,-1.254 l 0.004,-0.022 c 0.386,-2.371 0.525,-4.406 0.525,-6.102 0,-0.096 -0.005,-0.18 -0.005,-0.271 1.327,-0.942 2.059,-1.902 2.059,-1.902 v 0 c 0.531,-0.527 0.978,-1.032 1.337,-1.483 0.003,0.003 0.006,0.009 0.007,0.014 0.065,-0.089 0.121,-0.177 0.186,-0.266 0.738,-0.964 1.08,-1.634 1.08,-1.634 l -0.002,-0.002 c 2.434,-3.957 3.338,-7.618 3.342,-10.946 z"
   id="path8"
   inkscape:connector-curvature="0"
   style="fill:#5a87c5" />
<path
   d="m 85.165,73.344 c -2.094,-2.089 -4.975,-3.381 -8.166,-3.381 -2.742,0 -5.245,0.957 -7.23,2.549 -0.328,0.262 -0.776,0.316 -1.158,0.134 C 68.231,72.462 67.99,72.08 67.99,71.658 V 58.54 h -7.195 c 0.429,1.475 0.666,3.034 0.666,4.65 0,9.24 -7.488,16.732 -16.73,16.732 -9.243,0 -16.732,-7.49 -16.733,-16.732 0,-1.607 0.236,-3.153 0.662,-4.62 -0.873,0.028 -1.687,0.087 -2.473,0.156 -8.536,1.241 -15.093,8.589 -15.093,17.47 0,4.047 1.365,7.771 3.655,10.75 2.005,2.386 4.284,4.265 6.01,5.516 0.64,0.475 1.351,0.955 2.125,1.426 0.369,0.226 0.584,0.347 0.584,0.347 3.403,1.95 7.956,3.603 13.678,3.603 1.269,0 2.595,-0.079 3.98,-0.258 0.312,-0.041 0.63,0.059 0.865,0.267 v 0 l 0.005,0.005 0.037,0.029 c 0.037,0.028 0.094,0.078 0.174,0.139 0.161,0.119 0.408,0.294 0.735,0.49 0.652,0.39 1.619,0.865 2.84,1.175 0.043,0.012 0.081,0.033 0.124,0.049 0.058,0.014 0.125,0.028 0.186,0.044 1.48,2.947 3.624,4.382 3.64,4.395 3.23,2.598 8.97,4.747 18.257,0.737 v -0.412 -5.92 -7.211 c 0,-0.419 0.241,-0.802 0.623,-0.983 0.38,-0.183 0.828,-0.132 1.157,0.134 1.984,1.593 4.487,2.548 7.229,2.548 3.191,0 6.071,-1.289 8.166,-3.382 2.09,-2.094 3.38,-4.973 3.38,-8.168 0.002,-3.195 -1.288,-6.075 -3.379,-8.172 z"
   id="path10"
   inkscape:connector-curvature="0"
   style="fill:#094183" />
<g
   id="g46"
   transform="translate(-467.807,-433.199)">
	<path
   d="m 644.107,446.808 -8.969,18.979 h 4.032 l 1.78,-3.794 h 9.206 l 1.755,3.794 h 4.034 l -8.969,-18.979 z m -1.755,12.124 3.201,-6.83 3.157,6.83 z"
   id="path12"
   inkscape:connector-curvature="0"
   style="fill:#5a87c5" />
	<path
   d="m 676.545,463.281 c -0.143,-0.412 -0.271,-0.792 -0.39,-1.13 -0.118,-0.338 -0.227,-0.654 -0.331,-0.949 -0.103,-0.29 -0.2,-0.57 -0.293,-0.84 -0.096,-0.27 -0.197,-0.539 -0.308,-0.808 -0.22,-0.586 -0.518,-1.089 -0.896,-1.505 -0.377,-0.423 -0.865,-0.74 -1.46,-0.962 0.519,-0.175 0.994,-0.432 1.424,-0.771 0.431,-0.34 0.806,-0.73 1.119,-1.175 0.314,-0.446 0.56,-0.927 0.731,-1.448 0.173,-0.521 0.259,-1.057 0.259,-1.612 0,-0.777 -0.141,-1.496 -0.426,-2.159 -0.284,-0.663 -0.679,-1.239 -1.184,-1.731 -0.505,-0.493 -1.104,-0.872 -1.799,-1.151 -0.695,-0.275 -1.444,-0.417 -2.249,-0.417 l -7.484,0.024 v 18.957 h 3.628 v -7.544 h 1.373 c 0.569,0 1.061,0.081 1.479,0.239 0.418,0.154 0.778,0.378 1.077,0.662 0.3,0.283 0.557,0.624 0.77,1.021 0.212,0.395 0.39,0.83 0.531,1.305 l 1.35,4.317 h 4.049 c -0.174,-0.283 -0.335,-0.611 -0.485,-0.983 -0.15,-0.373 -0.31,-0.818 -0.485,-1.34 z m -4.069,-9.74 c -0.167,0.356 -0.392,0.66 -0.675,0.912 -0.285,0.256 -0.622,0.448 -1.009,0.583 -0.388,0.133 -0.803,0.2 -1.247,0.2 h -2.658 v -5.909 h 2.658 c 0.444,0 0.858,0.077 1.247,0.229 0.387,0.15 0.724,0.356 1.009,0.628 0.284,0.267 0.509,0.581 0.675,0.946 0.167,0.365 0.249,0.768 0.249,1.211 0,0.442 -0.081,0.845 -0.249,1.2 z"
   id="path14"
   inkscape:connector-curvature="0"
   style="fill:#5a87c5" />
	<path
   d="m 697.738,461.47 c -0.901,0.529 -1.938,0.795 -3.108,0.795 -0.885,0 -1.722,-0.175 -2.503,-0.514 -0.784,-0.338 -1.467,-0.799 -2.052,-1.375 -0.585,-0.575 -1.047,-1.249 -1.388,-2.018 -0.339,-0.763 -0.51,-1.578 -0.51,-2.431 0,-0.867 0.17,-1.687 0.51,-2.454 0.341,-0.766 0.803,-1.438 1.388,-2.017 0.585,-0.58 1.269,-1.036 2.052,-1.377 0.782,-0.338 1.618,-0.512 2.503,-0.512 1.107,0 2.124,0.258 3.048,0.771 0.926,0.515 1.681,1.191 2.267,2.031 l 2.539,-2.61 c -0.902,-1.091 -2.029,-1.977 -3.38,-2.658 -1.353,-0.677 -2.843,-1.018 -4.473,-1.018 -1.408,0 -2.728,0.252 -3.961,0.759 -1.235,0.506 -2.307,1.204 -3.22,2.097 -0.913,0.895 -1.634,1.937 -2.162,3.133 -0.524,1.193 -0.789,2.477 -0.789,3.854 0,1.374 0.264,2.663 0.789,3.856 0.528,1.192 1.249,2.233 2.162,3.12 0.913,0.887 1.984,1.584 3.22,2.096 1.233,0.517 2.553,0.777 3.961,0.777 1.629,0 3.12,-0.347 4.473,-1.021 1.352,-0.685 2.501,-1.599 3.45,-2.755 l -2.561,-2.631 c -0.604,0.871 -1.354,1.573 -2.255,2.102 z"
   id="path16"
   inkscape:connector-curvature="0"
   style="fill:#5a87c5" />
	<path
   d="m 912.266,459.404 c -0.902,0.527 -1.939,0.792 -3.111,0.792 -0.881,0 -1.715,-0.166 -2.502,-0.507 -0.781,-0.343 -1.465,-0.802 -2.051,-1.378 -0.586,-0.577 -1.047,-1.249 -1.389,-2.016 -0.34,-0.768 -0.51,-1.579 -0.51,-2.435 0,-0.867 0.17,-1.687 0.51,-2.451 0.342,-0.77 0.803,-1.441 1.389,-2.019 0.586,-0.576 1.27,-1.034 2.051,-1.38 0.787,-0.337 1.621,-0.507 2.502,-0.507 1.109,0 2.123,0.26 3.049,0.772 0.928,0.513 1.684,1.188 2.268,2.028 l 2.537,-2.611 c -0.9,-1.089 -2.025,-1.975 -3.379,-2.656 -1.354,-0.68 -2.842,-1.021 -4.475,-1.021 -1.404,0 -2.725,0.254 -3.959,0.758 -1.234,0.507 -2.311,1.207 -3.223,2.103 -0.908,0.89 -1.629,1.938 -2.156,3.131 -0.523,1.195 -0.791,2.479 -0.791,3.853 0,1.378 0.268,2.665 0.791,3.855 0.527,1.195 1.248,2.237 2.156,3.123 0.912,0.886 1.988,1.587 3.223,2.099 1.234,0.514 2.555,0.771 3.959,0.771 1.633,0 3.121,-0.341 4.475,-1.017 1.354,-0.682 2.504,-1.599 3.453,-2.752 l -2.564,-2.639 c -0.601,0.875 -1.355,1.573 -2.253,2.104 z"
   id="path18"
   inkscape:connector-curvature="0"
   style="fill:#5a87c5" />
	<polygon
   points="936.943,459.966 928.025,459.966 928.025,454.744 936.826,454.744 936.826,451.781 928.025,451.781 928.025,447.25 936.943,447.25 936.943,444.213 924.42,444.213 924.42,463.168 936.943,463.168 "
   id="polygon20"
   style="fill:#5a87c5" />
	<polygon
   points="945.209,444 945.209,462.982 948.813,462.982 948.813,449.671 957.379,462.982 960.982,462.982 960.982,444 957.379,444 957.379,456.387 949.334,444 "
   id="polygon22"
   style="fill:#5a87c5" />
	<path
   d="m 1004.055,460.285 c -0.139,-0.409 -0.27,-0.786 -0.387,-1.127 -0.119,-0.34 -0.229,-0.655 -0.33,-0.946 -0.102,-0.297 -0.199,-0.576 -0.295,-0.846 -0.096,-0.267 -0.197,-0.533 -0.309,-0.807 -0.217,-0.585 -0.518,-1.084 -0.895,-1.502 -0.373,-0.422 -0.861,-0.742 -1.461,-0.964 0.52,-0.174 0.994,-0.429 1.428,-0.772 0.432,-0.34 0.805,-0.728 1.119,-1.171 0.314,-0.446 0.557,-0.926 0.729,-1.45 0.172,-0.521 0.262,-1.06 0.262,-1.609 0,-0.778 -0.143,-1.496 -0.426,-2.159 -0.287,-0.666 -0.682,-1.244 -1.184,-1.732 -0.508,-0.493 -1.107,-0.875 -1.801,-1.152 -0.695,-0.276 -1.445,-0.416 -2.252,-0.416 l -7.482,0.025 v 18.954 h 3.629 v -7.542 h 1.373 c 0.568,0 1.061,0.078 1.479,0.236 0.422,0.158 0.775,0.378 1.078,0.666 0.301,0.282 0.555,0.626 0.77,1.017 0.213,0.397 0.389,0.834 0.529,1.306 l 1.354,4.317 h 4.047 c -0.174,-0.285 -0.334,-0.612 -0.486,-0.985 -0.151,-0.373 -0.312,-0.819 -0.489,-1.341 z m -4.067,-9.734 c -0.166,0.353 -0.391,0.658 -0.676,0.909 -0.285,0.254 -0.619,0.448 -1.01,0.584 -0.385,0.132 -0.801,0.198 -1.246,0.198 H 994.4 v -5.905 h 2.656 c 0.445,0 0.861,0.073 1.246,0.225 0.391,0.152 0.725,0.361 1.01,0.628 0.285,0.272 0.51,0.587 0.676,0.95 0.164,0.363 0.25,0.769 0.25,1.21 0,0.441 -0.086,0.839 -0.25,1.201 z"
   id="path24"
   inkscape:connector-curvature="0"
   style="fill:#5a87c5" />
	<polygon
   points="1012.723,443.471 1012.723,462.427 1025.25,462.427 1025.25,459.223 1016.33,459.223 1016.33,454.004 1025.129,454.004 1025.129,451.04 1016.33,451.04 1016.33,446.507 1025.25,446.507 1025.25,443.471 "
   id="polygon26"
   style="fill:#5a87c5" />
	<polygon
   points="974.018,462.796 977.738,462.796 977.738,447.093 982.986,447.093 982.986,443.816 968.773,443.816 968.773,447.093 974.018,447.093 "
   id="polygon28"
   style="fill:#5a87c5" />
	<polygon
   points="725.159,465.191 728.869,465.191 728.869,449.577 734.091,449.577 734.091,446.314 719.939,446.314 719.939,449.577 725.159,449.577 "
   id="polygon30"
   style="fill:#5a87c5" />
	<path
   d="m 755.1,462.692 c -0.141,-0.407 -0.271,-0.78 -0.387,-1.121 -0.117,-0.342 -0.229,-0.653 -0.33,-0.947 -0.102,-0.29 -0.199,-0.567 -0.295,-0.84 -0.094,-0.264 -0.195,-0.531 -0.303,-0.803 -0.221,-0.581 -0.516,-1.079 -0.893,-1.498 -0.375,-0.418 -0.861,-0.736 -1.457,-0.957 0.518,-0.173 0.99,-0.428 1.422,-0.769 0.432,-0.336 0.801,-0.727 1.113,-1.168 0.312,-0.441 0.557,-0.919 0.729,-1.442 0.172,-0.521 0.26,-1.054 0.26,-1.608 0,-0.769 -0.143,-1.486 -0.426,-2.147 -0.283,-0.663 -0.674,-1.236 -1.18,-1.727 -0.502,-0.488 -1.1,-0.868 -1.791,-1.146 -0.691,-0.275 -1.441,-0.413 -2.242,-0.413 l -7.453,0.024 v 18.875 h 3.615 v -7.513 h 1.369 c 0.564,0 1.053,0.084 1.473,0.239 0.416,0.158 0.771,0.375 1.07,0.66 0.301,0.281 0.555,0.623 0.768,1.015 0.213,0.396 0.389,0.828 0.529,1.303 l 1.344,4.296 h 4.033 c -0.174,-0.282 -0.334,-0.607 -0.486,-0.979 -0.148,-0.369 -0.311,-0.812 -0.482,-1.334 z m -4.053,-9.698 c -0.166,0.354 -0.389,0.658 -0.672,0.91 -0.285,0.252 -0.619,0.446 -1.004,0.58 -0.387,0.133 -0.803,0.197 -1.242,0.197 h -2.646 V 448.8 h 2.646 c 0.439,0 0.855,0.077 1.242,0.226 0.385,0.149 0.719,0.357 1.004,0.626 0.283,0.268 0.506,0.581 0.672,0.942 0.166,0.365 0.248,0.769 0.248,1.207 0,0.439 -0.082,0.838 -0.248,1.193 z"
   id="path32"
   inkscape:connector-curvature="0"
   style="fill:#5a87c5" />
	<path
   d="m 771.029,445.92 -8.932,18.902 h 4.018 l 1.771,-3.78 h 9.166 l 1.748,3.78 h 4.02 l -8.932,-18.902 z m -1.748,12.075 3.188,-6.807 3.145,6.807 z"
   id="path34"
   inkscape:connector-curvature="0"
   style="fill:#5a87c5" />
	<rect
   x="790.12299"
   y="445.758"
   width="3.664"
   height="18.878"
   id="rect36"
   style="fill:#5a87c5" />
	<polygon
   points="802.748,445.549 802.748,464.45 806.338,464.45 806.338,451.198 814.867,464.45 818.459,464.45 818.459,445.549 814.867,445.549 814.867,457.884 806.859,445.549 "
   id="polygon38"
   style="fill:#5a87c5" />
	<rect
   x="827.41998"
   y="445.388"
   width="3.6619999"
   height="18.877001"
   id="rect40"
   style="fill:#5a87c5" />
	<polygon
   points="840.041,445.178 840.041,464.078 843.633,464.078 843.633,450.827 852.162,464.078 855.754,464.078 855.754,445.178 852.162,445.178 852.162,457.512 844.154,445.178 "
   id="polygon42"
   style="fill:#5a87c5" />
	<path
   d="m 874.709,457.232 h 3.873 v 1.82 c -0.596,0.52 -1.271,0.938 -2.027,1.252 -0.756,0.315 -1.555,0.471 -2.404,0.471 -0.895,0 -1.736,-0.164 -2.523,-0.494 -0.783,-0.331 -1.473,-0.789 -2.064,-1.372 -0.588,-0.579 -1.051,-1.256 -1.387,-2.019 -0.34,-0.765 -0.51,-1.588 -0.51,-2.47 0,-0.869 0.17,-1.682 0.51,-2.445 0.336,-0.767 0.799,-1.434 1.391,-2.008 0.592,-0.575 1.277,-1.03 2.063,-1.357 0.785,-0.331 1.629,-0.496 2.521,-0.496 1.088,0 2.07,0.208 2.953,0.624 0.879,0.416 1.674,1.105 2.381,2.067 l 2.477,-2.526 c -0.928,-1.103 -2.059,-1.987 -3.391,-2.646 -1.328,-0.661 -2.805,-0.994 -4.43,-0.994 -1.4,0 -2.717,0.256 -3.943,0.768 -1.232,0.514 -2.307,1.209 -3.227,2.092 -0.922,0.881 -1.645,1.919 -2.174,3.108 -0.527,1.187 -0.791,2.461 -0.791,3.814 0,1.386 0.268,2.679 0.801,3.872 0.537,1.199 1.264,2.242 2.176,3.121 0.914,0.885 1.982,1.574 3.215,2.081 1.227,0.505 2.543,0.754 3.943,0.754 0.711,0 1.42,-0.074 2.139,-0.226 0.719,-0.148 1.418,-0.379 2.105,-0.694 0.684,-0.314 1.342,-0.714 1.971,-1.194 0.629,-0.479 1.213,-1.05 1.748,-1.713 v -6.308 h -7.395 v 3.118 z"
   id="path44"
   inkscape:connector-curvature="0"
   style="fill:#5a87c5" />
</g>
<g
   id="g88"
   transform="translate(-467.807,-433.199)">
	<rect
   x="634.83698"
   y="477.966"
   width="3.7520001"
   height="19.344"
   id="rect48"
   style="fill:#094183" />
	<polygon
   points="643.948,477.94 643.948,497.31 647.628,497.31 647.628,483.728 656.369,497.31 660.049,497.31 660.049,477.94 656.369,477.94 656.369,490.579 648.161,477.94 "
   id="polygon50"
   style="fill:#094183" />
	<path
   d="m 689.272,493.28 c -0.92,0.54 -1.978,0.81 -3.172,0.81 -0.904,0 -1.756,-0.171 -2.555,-0.521 -0.798,-0.345 -1.497,-0.814 -2.094,-1.404 -0.597,-0.589 -1.069,-1.273 -1.416,-2.061 -0.348,-0.778 -0.521,-1.607 -0.521,-2.479 0,-0.887 0.174,-1.721 0.521,-2.506 0.347,-0.782 0.818,-1.467 1.416,-2.059 0.597,-0.588 1.295,-1.055 2.094,-1.404 0.799,-0.346 1.651,-0.518 2.555,-0.518 1.128,0 2.167,0.261 3.111,0.785 0.943,0.526 1.713,1.215 2.312,2.07 l 2.59,-2.664 c -0.919,-1.112 -2.07,-2.016 -3.449,-2.71 -1.381,-0.694 -2.902,-1.045 -4.564,-1.045 -1.437,0 -2.785,0.263 -4.043,0.777 -1.26,0.518 -2.355,1.231 -3.287,2.143 -0.932,0.913 -1.667,1.978 -2.203,3.197 -0.537,1.218 -0.806,2.528 -0.806,3.933 0,1.405 0.269,2.716 0.806,3.934 0.537,1.22 1.271,2.28 2.203,3.186 0.931,0.905 2.027,1.617 3.287,2.144 1.258,0.522 2.606,0.784 4.043,0.784 1.662,0 3.183,-0.344 4.564,-1.04 1.379,-0.691 2.553,-1.633 3.523,-2.808 l -2.614,-2.686 c -0.615,0.885 -1.382,1.601 -2.301,2.142 z"
   id="path52"
   inkscape:connector-curvature="0"
   style="fill:#094183" />
	<path
   d="m 713.858,480.495 c -0.936,-0.911 -2.024,-1.625 -3.265,-2.143 -1.243,-0.515 -2.563,-0.777 -3.966,-0.777 -1.402,0 -2.728,0.263 -3.978,0.777 -1.25,0.518 -2.341,1.228 -3.277,2.13 -0.935,0.905 -1.672,1.971 -2.213,3.195 -0.539,1.228 -0.809,2.543 -0.809,3.947 0,1.404 0.27,2.716 0.809,3.934 0.541,1.22 1.278,2.28 2.213,3.186 0.936,0.905 2.028,1.617 3.277,2.144 1.25,0.522 2.576,0.784 3.978,0.784 1.403,0 2.723,-0.262 3.966,-0.784 1.241,-0.526 2.329,-1.238 3.265,-2.144 0.935,-0.905 1.672,-1.968 2.212,-3.195 0.542,-1.227 0.812,-2.534 0.812,-3.924 0,-1.404 -0.27,-2.715 -0.812,-3.933 -0.539,-1.219 -1.277,-2.284 -2.212,-3.197 z m -1.239,9.625 c -0.339,0.791 -0.804,1.48 -1.395,2.07 -0.59,0.588 -1.282,1.058 -2.073,1.403 -0.792,0.35 -1.634,0.521 -2.524,0.521 -0.905,0 -1.754,-0.171 -2.546,-0.521 -0.793,-0.346 -1.484,-0.815 -2.075,-1.403 -0.59,-0.59 -1.055,-1.279 -1.395,-2.07 -0.34,-0.791 -0.51,-1.623 -0.51,-2.495 0,-0.887 0.17,-1.721 0.51,-2.506 0.339,-0.782 0.804,-1.467 1.395,-2.059 0.59,-0.588 1.282,-1.055 2.075,-1.404 0.792,-0.346 1.641,-0.518 2.546,-0.518 0.89,0 1.732,0.172 2.524,0.518 0.791,0.35 1.483,0.816 2.073,1.404 0.59,0.592 1.055,1.276 1.395,2.059 0.34,0.785 0.51,1.619 0.51,2.506 -10e-4,0.872 -0.171,1.704 -0.51,2.495 z"
   id="path54"
   inkscape:connector-curvature="0"
   style="fill:#094183" />
	<path
   d="m 731.778,490.483 h 3.972 v 1.865 c -0.613,0.53 -1.305,0.958 -2.079,1.283 -0.773,0.322 -1.594,0.482 -2.464,0.482 -0.919,0 -1.779,-0.17 -2.583,-0.508 -0.807,-0.34 -1.512,-0.808 -2.115,-1.407 -0.604,-0.597 -1.079,-1.283 -1.424,-2.069 -0.348,-0.781 -0.521,-1.624 -0.521,-2.529 0,-0.887 0.172,-1.721 0.521,-2.505 0.346,-0.783 0.82,-1.468 1.424,-2.058 0.605,-0.588 1.309,-1.054 2.116,-1.394 0.804,-0.335 1.667,-0.506 2.585,-0.506 1.112,0 2.119,0.212 3.023,0.64 0.901,0.428 1.716,1.136 2.44,2.119 l 2.539,-2.588 c -0.953,-1.135 -2.111,-2.039 -3.475,-2.716 -1.363,-0.676 -2.876,-1.019 -4.54,-1.019 -1.438,0 -2.784,0.266 -4.045,0.788 -1.259,0.525 -2.36,1.241 -3.304,2.145 -0.944,0.901 -1.688,1.965 -2.228,3.185 -0.54,1.218 -0.812,2.522 -0.812,3.908 0,1.422 0.274,2.745 0.824,3.974 0.548,1.225 1.292,2.292 2.228,3.195 0.938,0.906 2.033,1.614 3.292,2.129 1.261,0.517 2.606,0.773 4.045,0.773 0.725,0 1.456,-0.076 2.19,-0.227 0.734,-0.154 1.455,-0.395 2.154,-0.717 0.703,-0.323 1.379,-0.727 2.023,-1.222 0.645,-0.491 1.242,-1.075 1.791,-1.755 v -6.465 h -7.58 v 3.199 z"
   id="path56"
   inkscape:connector-curvature="0"
   style="fill:#094183" />
	<polygon
   points="743.99,477.94 743.99,497.31 747.672,497.31 747.672,483.728 756.412,497.31 760.09,497.31 760.09,477.94 756.412,477.94 756.412,490.579 748.203,477.94 "
   id="polygon58"
   style="fill:#094183" />
	<rect
   x="765.44897"
   y="477.966"
   width="3.7539999"
   height="19.344"
   id="rect60"
   style="fill:#094183" />
	<polygon
   points="778.699,497.31 782.502,497.31 782.502,481.31 787.85,481.31 787.85,477.966 773.352,477.966 773.352,481.31 778.699,481.31 "
   id="polygon62"
   style="fill:#094183" />
	<rect
   x="792"
   y="477.966"
   width="3.7520001"
   height="19.344"
   id="rect64"
   style="fill:#094183" />
	<polygon
   points="799.539,477.94 807.045,497.31 810.482,497.31 817.818,477.94 813.703,477.94 808.738,491.549 803.703,477.94 "
   id="polygon66"
   style="fill:#094183" />
	<polygon
   points="834.387,494.041 825.283,494.041 825.283,488.714 834.266,488.714 834.266,485.689 825.283,485.689 825.283,481.064 834.387,481.064 834.387,477.966 821.604,477.966 821.604,497.31 834.387,497.31 "
   id="polygon68"
   style="fill:#094183" />
	<path
   d="m 863.75,493.28 c -0.924,0.54 -1.982,0.81 -3.174,0.81 -0.904,0 -1.756,-0.171 -2.555,-0.521 -0.799,-0.345 -1.496,-0.814 -2.094,-1.404 -0.598,-0.589 -1.07,-1.273 -1.418,-2.061 -0.35,-0.778 -0.52,-1.607 -0.52,-2.479 0,-0.887 0.17,-1.721 0.52,-2.506 0.348,-0.782 0.82,-1.467 1.418,-2.059 0.598,-0.588 1.295,-1.055 2.094,-1.404 0.799,-0.346 1.65,-0.518 2.555,-0.518 1.127,0 2.166,0.261 3.111,0.785 0.943,0.526 1.713,1.215 2.311,2.07 l 2.592,-2.664 c -0.92,-1.112 -2.068,-2.016 -3.449,-2.71 -1.381,-0.694 -2.904,-1.045 -4.564,-1.045 -1.439,0 -2.787,0.263 -4.045,0.777 -1.258,0.518 -2.354,1.231 -3.285,2.143 -0.93,0.913 -1.666,1.978 -2.203,3.197 -0.539,1.218 -0.805,2.528 -0.805,3.933 0,1.405 0.266,2.716 0.805,3.934 0.537,1.22 1.273,2.28 2.203,3.186 0.932,0.905 2.027,1.617 3.285,2.144 1.258,0.522 2.605,0.784 4.045,0.784 1.66,0 3.184,-0.344 4.564,-1.04 1.381,-0.691 2.553,-1.633 3.521,-2.808 l -2.613,-2.686 c -0.613,0.885 -1.383,1.601 -2.299,2.142 z"
   id="path70"
   inkscape:connector-curvature="0"
   style="fill:#094183" />
	<path
   d="m 888.334,480.495 c -0.936,-0.911 -2.023,-1.625 -3.266,-2.143 -1.24,-0.515 -2.561,-0.777 -3.967,-0.777 -1.404,0 -2.727,0.263 -3.977,0.777 -1.25,0.518 -2.342,1.228 -3.277,2.13 -0.934,0.905 -1.672,1.971 -2.211,3.195 -0.543,1.228 -0.813,2.543 -0.813,3.947 0,1.404 0.27,2.716 0.813,3.934 0.539,1.22 1.277,2.28 2.211,3.186 0.936,0.905 2.027,1.617 3.277,2.144 1.25,0.522 2.572,0.784 3.977,0.784 1.406,0 2.727,-0.262 3.967,-0.784 1.242,-0.526 2.33,-1.238 3.266,-2.144 0.936,-0.906 1.674,-1.968 2.213,-3.195 0.539,-1.227 0.811,-2.534 0.811,-3.924 0,-1.404 -0.271,-2.715 -0.811,-3.933 -0.539,-1.219 -1.277,-2.284 -2.213,-3.197 z m -1.238,9.625 c -0.342,0.791 -0.807,1.48 -1.393,2.07 -0.592,0.588 -1.283,1.058 -2.076,1.403 -0.795,0.35 -1.635,0.521 -2.525,0.521 -0.906,0 -1.754,-0.171 -2.547,-0.521 -0.791,-0.346 -1.482,-0.815 -2.072,-1.403 -0.59,-0.59 -1.057,-1.279 -1.395,-2.07 -0.34,-0.791 -0.51,-1.623 -0.51,-2.495 0,-0.887 0.17,-1.721 0.51,-2.506 0.338,-0.782 0.805,-1.467 1.395,-2.059 0.59,-0.588 1.281,-1.055 2.072,-1.404 0.793,-0.346 1.641,-0.518 2.547,-0.518 0.891,0 1.73,0.172 2.525,0.518 0.793,0.35 1.484,0.816 2.076,1.404 0.586,0.592 1.051,1.276 1.393,2.059 0.34,0.785 0.508,1.619 0.508,2.506 0,0.872 -0.168,1.704 -0.508,2.495 z"
   id="path72"
   inkscape:connector-curvature="0"
   style="fill:#094183" />
	<polygon
   points="896.014,477.94 896.014,497.31 899.691,497.31 899.691,484.282 905.553,494.673 911.652,484.38 911.652,497.31 915.334,497.31 915.334,477.94 911.242,477.94 905.627,487.554 900.25,477.94 "
   id="polygon74"
   style="fill:#094183" />
	<path
   d="m 932.336,479.83 c -0.6,-0.581 -1.303,-1.039 -2.109,-1.368 -0.811,-0.331 -1.668,-0.496 -2.57,-0.496 h -6.961 v 19.344 h 3.75 v -6.318 h 3.205 c 0.904,0 1.764,-0.167 2.574,-0.497 0.809,-0.331 1.51,-0.79 2.109,-1.378 0.598,-0.592 1.074,-1.283 1.418,-2.083 0.35,-0.799 0.523,-1.658 0.523,-2.579 0,-0.92 -0.174,-1.775 -0.52,-2.567 -0.347,-0.789 -0.821,-1.478 -1.419,-2.058 z m -2.092,5.992 c -0.188,0.445 -0.439,0.836 -0.764,1.174 -0.322,0.338 -0.701,0.61 -1.137,0.812 -0.436,0.202 -0.904,0.302 -1.404,0.302 h -2.494 v -7.309 h 2.494 c 0.5,0 0.969,0.096 1.404,0.288 0.436,0.193 0.814,0.45 1.137,0.774 0.324,0.324 0.576,0.699 0.764,1.138 0.186,0.437 0.279,0.906 0.279,1.405 0,0.499 -0.093,0.973 -0.279,1.416 z"
   id="path76"
   inkscape:connector-curvature="0"
   style="fill:#094183" />
	<path
   d="m 951.568,488.642 c 0,0.775 -0.1,1.487 -0.301,2.133 -0.201,0.642 -0.5,1.204 -0.895,1.682 -0.396,0.478 -0.898,0.848 -1.502,1.113 -0.605,0.267 -1.318,0.4 -2.143,0.4 -0.775,0 -1.465,-0.141 -2.07,-0.425 -0.605,-0.283 -1.109,-0.666 -1.512,-1.152 -0.404,-0.481 -0.711,-1.051 -0.922,-1.702 -0.209,-0.656 -0.313,-1.352 -0.313,-2.096 V 477.94 h -3.754 v 10.628 c 0,1.275 0.199,2.467 0.604,3.573 0.405,1.106 0.98,2.066 1.73,2.879 0.75,0.817 1.66,1.46 2.725,1.928 1.066,0.467 2.262,0.7 3.584,0.7 1.355,0 2.563,-0.238 3.617,-0.713 1.061,-0.478 1.955,-1.129 2.691,-1.962 0.732,-0.833 1.291,-1.804 1.68,-2.917 0.387,-1.114 0.582,-2.315 0.582,-3.606 v -10.51 h -3.803 v 10.702 z"
   id="path78"
   inkscape:connector-curvature="0"
   style="fill:#094183" />
	<polygon
   points="964.387,497.31 968.188,497.31 968.188,481.31 973.539,481.31 973.539,477.966 959.035,477.966 959.035,481.31 964.387,481.31 "
   id="polygon80"
   style="fill:#094183" />
	<rect
   x="977.68799"
   y="477.966"
   width="3.7520001"
   height="19.344"
   id="rect82"
   style="fill:#094183" />
	<polygon
   points="986.799,477.94 986.799,497.31 990.479,497.31 990.479,483.728 999.221,497.31 1002.898,497.31 1002.898,477.94 999.221,477.94 999.221,490.579 991.014,477.94 "
   id="polygon84"
   style="fill:#094183" />
	<path
   d="m 1018.5,487.287 v 3.196 h 3.971 v 1.865 c -0.611,0.53 -1.309,0.958 -2.078,1.283 -0.775,0.322 -1.596,0.482 -2.465,0.482 -0.916,0 -1.779,-0.17 -2.586,-0.508 -0.805,-0.34 -1.51,-0.808 -2.113,-1.407 -0.604,-0.597 -1.078,-1.283 -1.426,-2.069 -0.348,-0.781 -0.518,-1.624 -0.518,-2.529 0,-0.887 0.17,-1.721 0.518,-2.505 0.348,-0.783 0.822,-1.468 1.428,-2.058 0.604,-0.588 1.307,-1.054 2.113,-1.394 0.807,-0.335 1.668,-0.506 2.588,-0.506 1.111,0 2.117,0.212 3.02,0.64 0.904,0.428 1.717,1.136 2.443,2.119 l 2.535,-2.588 c -0.949,-1.135 -2.109,-2.039 -3.473,-2.716 -1.363,-0.676 -2.875,-1.019 -4.541,-1.019 -1.436,0 -2.783,0.266 -4.041,0.788 -1.258,0.525 -2.361,1.241 -3.305,2.145 -0.943,0.901 -1.688,1.965 -2.227,3.185 -0.543,1.218 -0.813,2.522 -0.813,3.908 0,1.422 0.273,2.745 0.822,3.974 0.549,1.225 1.293,2.292 2.229,3.195 0.936,0.906 2.035,1.614 3.293,2.129 1.258,0.517 2.605,0.773 4.041,0.773 0.727,0 1.457,-0.076 2.195,-0.227 0.732,-0.154 1.451,-0.395 2.152,-0.717 0.701,-0.323 1.377,-0.727 2.021,-1.222 0.646,-0.491 1.242,-1.075 1.791,-1.755 v -6.465 h -7.574 z"
   id="path86"
   inkscape:connector-curvature="0"
   style="fill:#094183" />
</g>
<g
   id="g134"
   transform="translate(-467.807,-433.199)">
	<polygon
   points="638.452,520.46 647.276,520.46 647.276,517.461 638.452,517.461 638.452,513.039 647.395,513.039 647.395,509.874 634.837,509.874 634.837,528.878 638.452,528.878 "
   id="polygon90"
   style="fill:#094183" />
	<path
   d="m 666.258,512.359 c -0.917,-0.896 -1.987,-1.597 -3.205,-2.104 -1.222,-0.506 -2.52,-0.761 -3.898,-0.761 -1.376,0 -2.681,0.255 -3.907,0.761 -1.228,0.507 -2.301,1.207 -3.22,2.091 -0.918,0.89 -1.644,1.938 -2.173,3.143 -0.531,1.208 -0.796,2.497 -0.796,3.876 0,1.38 0.265,2.667 0.796,3.865 0.529,1.197 1.254,2.238 2.173,3.125 0.919,0.889 1.992,1.592 3.22,2.109 1.226,0.513 2.53,0.772 3.907,0.772 1.378,0 2.676,-0.26 3.898,-0.772 1.218,-0.518 2.288,-1.221 3.205,-2.109 0.92,-0.887 1.644,-1.932 2.175,-3.135 0.53,-1.208 0.795,-2.491 0.795,-3.855 0,-1.379 -0.265,-2.665 -0.795,-3.866 -0.531,-1.194 -1.255,-2.241 -2.175,-3.14 z m -1.216,9.455 c -0.334,0.775 -0.791,1.456 -1.37,2.035 -0.581,0.578 -1.259,1.037 -2.038,1.377 -0.779,0.342 -1.605,0.512 -2.479,0.512 -0.889,0 -1.723,-0.17 -2.5,-0.512 -0.78,-0.34 -1.459,-0.799 -2.039,-1.377 -0.58,-0.579 -1.035,-1.26 -1.37,-2.035 -0.334,-0.777 -0.501,-1.596 -0.501,-2.449 0,-0.873 0.167,-1.69 0.501,-2.462 0.334,-0.771 0.79,-1.444 1.37,-2.019 0.58,-0.58 1.259,-1.042 2.039,-1.382 0.777,-0.344 1.611,-0.512 2.5,-0.512 0.874,0 1.7,0.168 2.479,0.512 0.778,0.34 1.457,0.802 2.038,1.382 0.58,0.574 1.036,1.247 1.37,2.019 0.333,0.771 0.5,1.589 0.5,2.462 0,0.854 -0.167,1.672 -0.5,2.449 z"
   id="path92"
   inkscape:connector-curvature="0"
   style="fill:#094183" />
	<path
   d="m 685.425,526.547 c -0.141,-0.412 -0.271,-0.787 -0.39,-1.128 -0.118,-0.342 -0.228,-0.66 -0.331,-0.951 -0.102,-0.295 -0.201,-0.577 -0.294,-0.847 -0.094,-0.27 -0.198,-0.538 -0.306,-0.809 -0.222,-0.585 -0.521,-1.088 -0.899,-1.509 -0.378,-0.421 -0.867,-0.74 -1.465,-0.962 0.52,-0.176 0.996,-0.434 1.43,-0.771 0.433,-0.346 0.807,-0.736 1.122,-1.181 0.314,-0.443 0.559,-0.929 0.731,-1.449 0.174,-0.524 0.26,-1.064 0.26,-1.618 0,-0.774 -0.143,-1.498 -0.427,-2.164 -0.286,-0.669 -0.681,-1.244 -1.187,-1.738 -0.506,-0.49 -1.107,-0.877 -1.805,-1.155 -0.696,-0.275 -1.449,-0.412 -2.254,-0.412 l -7.503,0.021 v 19.004 h 3.639 v -7.563 h 1.376 c 0.57,0 1.062,0.08 1.481,0.239 0.42,0.157 0.779,0.38 1.081,0.665 0.3,0.282 0.556,0.626 0.771,1.024 0.213,0.394 0.39,0.83 0.533,1.305 l 1.353,4.329 h 4.06 c -0.175,-0.286 -0.337,-0.616 -0.488,-0.988 -0.15,-0.369 -0.313,-0.819 -0.488,-1.342 z m -4.079,-9.762 c -0.167,0.355 -0.393,0.66 -0.678,0.914 -0.286,0.257 -0.624,0.448 -1.011,0.582 -0.389,0.136 -0.805,0.204 -1.25,0.204 h -2.663 v -5.924 h 2.663 c 0.445,0 0.86,0.079 1.25,0.229 0.387,0.151 0.725,0.359 1.011,0.627 0.285,0.272 0.511,0.589 0.678,0.954 0.167,0.365 0.25,0.769 0.25,1.211 0,0.444 -0.083,0.847 -0.25,1.203 z"
   id="path94"
   inkscape:connector-curvature="0"
   style="fill:#094183" />
	<polygon
   points="696.175,509.853 696.175,528.878 699.792,528.878 699.792,516.082 705.547,526.286 711.541,516.181 711.541,528.878 715.157,528.878 715.157,509.853 711.135,509.853 705.618,519.292 700.338,509.853 "
   id="polygon96"
   style="fill:#094183" />
	<polygon
   points="731.28,525.669 722.338,525.669 722.338,520.436 731.162,520.436 731.162,517.461 722.338,517.461 722.338,512.918 731.28,512.918 731.28,509.874 718.723,509.874 718.723,528.878 731.28,528.878 "
   id="polygon98"
   style="fill:#094183" />
	<path
   d="m 748.525,512.657 c -0.793,-0.855 -1.74,-1.54 -2.844,-2.045 -1.102,-0.507 -2.301,-0.76 -3.602,-0.76 h -7.943 v 19.025 h 7.943 c 1.301,0 2.5,-0.246 3.602,-0.748 1.104,-0.499 2.051,-1.181 2.844,-2.045 0.793,-0.865 1.41,-1.871 1.855,-3.021 0.443,-1.147 0.664,-2.381 0.664,-3.698 0,-1.301 -0.221,-2.527 -0.664,-3.687 -0.444,-1.157 -1.062,-2.163 -1.855,-3.021 z m -1.677,9.195 c -0.295,0.783 -0.709,1.467 -1.248,2.043 -0.537,0.579 -1.193,1.032 -1.965,1.356 -0.766,0.326 -1.637,0.487 -2.602,0.487 h -3.211 v -12.984 h 3.211 c 0.982,0 1.865,0.169 2.65,0.51 0.787,0.339 1.449,0.809 1.986,1.404 0.539,0.593 0.951,1.286 1.236,2.082 0.287,0.791 0.422,1.634 0.404,2.518 -0.014,0.938 -0.168,1.797 -0.461,2.584 z"
   id="path100"
   inkscape:connector-curvature="0"
   style="fill:#094183" />
	<rect
   x="753.89801"
   y="509.87399"
   width="3.6889999"
   height="19.004"
   id="rect102"
   style="fill:#094183" />
	<path
   d="m 773.711,524.916 c -0.904,0.533 -1.941,0.8 -3.115,0.8 -0.889,0 -1.725,-0.171 -2.51,-0.511 -0.783,-0.342 -1.469,-0.801 -2.057,-1.382 -0.586,-0.577 -1.051,-1.25 -1.391,-2.021 -0.342,-0.768 -0.512,-1.583 -0.512,-2.437 0,-0.873 0.17,-1.69 0.512,-2.462 0.34,-0.771 0.805,-1.444 1.391,-2.019 0.588,-0.58 1.273,-1.042 2.057,-1.382 0.785,-0.344 1.621,-0.512 2.51,-0.512 1.109,0 2.129,0.257 3.057,0.771 0.93,0.516 1.686,1.196 2.271,2.036 l 2.545,-2.618 c -0.902,-1.095 -2.033,-1.981 -3.389,-2.663 -1.357,-0.685 -2.85,-1.022 -4.484,-1.022 -1.412,0 -2.734,0.255 -3.971,0.761 -1.236,0.507 -2.314,1.208 -3.23,2.104 -0.914,0.898 -1.635,1.945 -2.162,3.14 -0.529,1.201 -0.793,2.487 -0.793,3.866 0,1.38 0.264,2.667 0.793,3.865 0.527,1.197 1.248,2.238 2.162,3.125 0.916,0.889 1.994,1.592 3.23,2.109 1.236,0.513 2.559,0.772 3.971,0.772 1.635,0 3.127,-0.344 4.484,-1.026 1.355,-0.679 2.506,-1.6 3.459,-2.758 l -2.568,-2.641 c -0.602,0.873 -1.356,1.579 -2.26,2.105 z"
   id="path104"
   inkscape:connector-curvature="0"
   style="fill:#094183" />
	<path
   d="m 787.793,509.853 -8.99,19.025 h 4.041 l 1.785,-3.804 h 9.229 l 1.76,3.804 h 4.043 l -8.99,-19.025 z m -1.76,12.153 3.211,-6.849 3.164,6.849 z"
   id="path106"
   inkscape:connector-curvature="0"
   style="fill:#094183" />
	<polygon
   points="801.563,528.878 814.43,528.878 814.43,525.311 805.322,525.311 805.322,509.874 801.563,509.874 "
   id="polygon108"
   style="fill:#094183" />
	<polygon
   points="828.129,528.878 831.863,528.878 831.863,513.158 837.121,513.158 837.121,509.874 822.875,509.874 822.875,513.158 828.129,513.158 "
   id="polygon110"
   style="fill:#094183" />
	<polygon
   points="852.057,525.669 843.113,525.669 843.113,520.436 851.936,520.436 851.936,517.461 843.113,517.461 843.113,512.918 852.057,512.918 852.057,509.874 839.498,509.874 839.498,528.878 852.057,528.878 "
   id="polygon112"
   style="fill:#094183" />
	<path
   d="m 867.469,524.916 c -0.902,0.533 -1.943,0.8 -3.115,0.8 -0.889,0 -1.723,-0.171 -2.51,-0.511 -0.785,-0.342 -1.471,-0.801 -2.057,-1.382 -0.588,-0.577 -1.053,-1.25 -1.391,-2.021 -0.344,-0.768 -0.514,-1.583 -0.514,-2.437 0,-0.873 0.17,-1.69 0.514,-2.462 0.338,-0.771 0.803,-1.444 1.391,-2.019 0.586,-0.58 1.271,-1.042 2.057,-1.382 0.787,-0.344 1.621,-0.512 2.51,-0.512 1.109,0 2.129,0.257 3.057,0.771 0.926,0.516 1.684,1.196 2.271,2.036 l 2.541,-2.618 c -0.9,-1.095 -2.027,-1.981 -3.387,-2.663 -1.354,-0.685 -2.852,-1.022 -4.482,-1.022 -1.41,0 -2.736,0.255 -3.973,0.761 -1.236,0.507 -2.313,1.208 -3.225,2.104 -0.918,0.898 -1.639,1.945 -2.168,3.14 -0.527,1.201 -0.789,2.487 -0.789,3.866 0,1.38 0.262,2.667 0.789,3.865 0.529,1.197 1.25,2.238 2.168,3.125 0.912,0.889 1.988,1.592 3.225,2.109 1.236,0.513 2.563,0.772 3.973,0.772 1.631,0 3.129,-0.344 4.482,-1.026 1.359,-0.679 2.51,-1.6 3.461,-2.758 l -2.57,-2.641 c -0.598,0.873 -1.354,1.579 -2.258,2.105 z"
   id="path114"
   inkscape:connector-curvature="0"
   style="fill:#094183" />
	<polygon
   points="877.906,509.874 874.223,509.874 874.223,528.878 877.906,528.878 877.906,520.46 885.402,520.46 885.402,528.878 889.088,528.878 889.088,509.874 885.402,509.874 885.402,517.414 877.906,517.414 "
   id="polygon116"
   style="fill:#094183" />
	<polygon
   points="892.658,509.853 892.658,528.878 896.271,528.878 896.271,515.536 904.859,528.878 908.473,528.878 908.473,509.853 904.859,509.853 904.859,522.268 896.795,509.853 "
   id="polygon118"
   style="fill:#094183" />
	<path
   d="m 928.527,512.359 c -0.92,-0.896 -1.986,-1.597 -3.209,-2.104 -1.221,-0.506 -2.52,-0.761 -3.895,-0.761 -1.379,0 -2.682,0.255 -3.908,0.761 -1.227,0.507 -2.299,1.207 -3.219,2.091 -0.918,0.89 -1.645,1.938 -2.174,3.143 -0.531,1.208 -0.797,2.497 -0.797,3.876 0,1.38 0.266,2.667 0.797,3.865 0.529,1.197 1.256,2.238 2.174,3.125 0.92,0.889 1.992,1.592 3.219,2.109 1.227,0.513 2.529,0.772 3.908,0.772 1.375,0 2.674,-0.26 3.895,-0.772 1.223,-0.518 2.289,-1.221 3.209,-2.109 0.918,-0.887 1.643,-1.932 2.174,-3.135 0.527,-1.208 0.795,-2.491 0.795,-3.855 0,-1.379 -0.268,-2.665 -0.795,-3.866 -0.531,-1.194 -1.256,-2.241 -2.174,-3.14 z m -1.218,9.455 c -0.332,0.775 -0.793,1.456 -1.369,2.035 -0.582,0.578 -1.26,1.037 -2.039,1.377 -0.781,0.342 -1.604,0.512 -2.477,0.512 -0.889,0 -1.725,-0.17 -2.504,-0.512 -0.775,-0.34 -1.457,-0.799 -2.035,-1.377 -0.582,-0.579 -1.037,-1.26 -1.371,-2.035 -0.334,-0.777 -0.5,-1.596 -0.5,-2.449 0,-0.873 0.166,-1.69 0.5,-2.462 0.334,-0.772 0.789,-1.444 1.371,-2.019 0.578,-0.58 1.26,-1.042 2.035,-1.382 0.779,-0.344 1.615,-0.512 2.504,-0.512 0.873,0 1.695,0.168 2.477,0.512 0.779,0.34 1.457,0.802 2.039,1.382 0.576,0.574 1.037,1.247 1.369,2.019 0.334,0.771 0.5,1.589 0.5,2.462 0,0.854 -0.166,1.672 -0.5,2.449 z"
   id="path120"
   inkscape:connector-curvature="0"
   style="fill:#094183" />
	<polygon
   points="934.375,528.878 947.24,528.878 947.24,525.311 938.131,525.311 938.131,509.874 934.375,509.874 "
   id="polygon122"
   style="fill:#094183" />
	<path
   d="m 964.605,512.359 c -0.918,-0.896 -1.986,-1.597 -3.207,-2.104 -1.219,-0.506 -2.516,-0.761 -3.896,-0.761 -1.377,0 -2.68,0.255 -3.91,0.761 -1.223,0.507 -2.299,1.207 -3.215,2.091 -0.92,0.89 -1.645,1.938 -2.174,3.143 -0.529,1.208 -0.797,2.497 -0.797,3.876 0,1.38 0.268,2.667 0.797,3.865 0.529,1.197 1.254,2.238 2.174,3.125 0.916,0.889 1.992,1.592 3.215,2.109 1.23,0.513 2.533,0.772 3.91,0.772 1.381,0 2.678,-0.26 3.896,-0.772 1.221,-0.518 2.289,-1.221 3.207,-2.109 0.92,-0.887 1.645,-1.932 2.176,-3.135 0.529,-1.208 0.795,-2.491 0.795,-3.855 0,-1.379 -0.266,-2.665 -0.795,-3.866 -0.531,-1.194 -1.256,-2.241 -2.176,-3.14 z m -1.216,9.455 c -0.332,0.775 -0.791,1.456 -1.369,2.035 -0.58,0.578 -1.258,1.037 -2.037,1.377 -0.781,0.342 -1.607,0.512 -2.48,0.512 -0.887,0 -1.721,-0.17 -2.5,-0.512 -0.779,-0.34 -1.459,-0.799 -2.037,-1.377 -0.58,-0.579 -1.037,-1.26 -1.369,-2.035 -0.336,-0.777 -0.502,-1.596 -0.502,-2.449 0,-0.873 0.166,-1.69 0.502,-2.462 0.332,-0.771 0.789,-1.444 1.369,-2.019 0.578,-0.58 1.258,-1.042 2.037,-1.382 0.779,-0.344 1.613,-0.512 2.5,-0.512 0.873,0 1.699,0.168 2.48,0.512 0.779,0.34 1.457,0.802 2.037,1.382 0.578,0.574 1.037,1.247 1.369,2.019 0.334,0.771 0.502,1.589 0.502,2.462 0,0.854 -0.168,1.672 -0.502,2.449 z"
   id="path124"
   inkscape:connector-curvature="0"
   style="fill:#094183" />
	<path
   d="m 980.514,522.172 h 3.902 v 1.833 c -0.602,0.521 -1.283,0.94 -2.043,1.259 -0.76,0.316 -1.564,0.475 -2.42,0.475 -0.902,0 -1.748,-0.167 -2.541,-0.496 -0.787,-0.335 -1.482,-0.796 -2.074,-1.382 -0.592,-0.586 -1.061,-1.265 -1.4,-2.033 -0.339,-0.768 -0.512,-1.599 -0.512,-2.486 0,-0.873 0.172,-1.691 0.512,-2.463 0.34,-0.766 0.809,-1.44 1.402,-2.021 0.594,-0.578 1.285,-1.032 2.078,-1.366 0.787,-0.332 1.637,-0.499 2.537,-0.499 1.094,0 2.084,0.208 2.967,0.63 0.889,0.42 1.689,1.115 2.404,2.082 l 2.49,-2.545 c -0.936,-1.108 -2.074,-1.998 -3.414,-2.665 -1.34,-0.666 -2.824,-0.998 -4.459,-0.998 -1.41,0 -2.734,0.258 -3.973,0.77 -1.236,0.518 -2.318,1.221 -3.246,2.106 -0.926,0.891 -1.656,1.934 -2.188,3.128 -0.531,1.201 -0.799,2.479 -0.799,3.842 0,1.396 0.27,2.697 0.811,3.903 0.539,1.202 1.268,2.249 2.189,3.136 0.92,0.89 1.996,1.587 3.232,2.094 1.238,0.507 2.563,0.764 3.973,0.764 0.713,0 1.432,-0.078 2.154,-0.229 0.721,-0.148 1.426,-0.381 2.115,-0.701 0.691,-0.318 1.352,-0.715 1.988,-1.199 0.631,-0.486 1.217,-1.059 1.758,-1.724 v -6.353 h -7.445 v 3.138 z"
   id="path126"
   inkscape:connector-curvature="0"
   style="fill:#094183" />
	<rect
   x="990.81403"
   y="509.87399"
   width="3.6860001"
   height="19.004"
   id="rect128"
   style="fill:#094183" />
	<polygon
   points="1010.625,525.669 1001.684,525.669 1001.684,520.436 1010.506,520.436 1010.506,517.461 1001.684,517.461 1001.684,512.918 1010.625,512.918 1010.625,509.874 998.066,509.874 998.066,528.878 1010.625,528.878 "
   id="polygon130"
   style="fill:#094183" />
	<path
   d="m 1025.871,521.874 c -0.207,-0.596 -0.525,-1.129 -0.951,-1.605 -0.43,-0.475 -0.984,-0.911 -1.668,-1.309 -0.678,-0.394 -1.496,-0.762 -2.447,-1.093 -0.742,-0.271 -1.369,-0.521 -1.867,-0.751 -0.5,-0.229 -0.898,-0.459 -1.201,-0.688 -0.303,-0.229 -0.514,-0.468 -0.641,-0.716 -0.129,-0.241 -0.191,-0.518 -0.191,-0.818 0,-0.271 0.068,-0.529 0.203,-0.772 0.133,-0.247 0.313,-0.459 0.533,-0.644 0.223,-0.183 0.488,-0.329 0.797,-0.439 0.309,-0.11 0.645,-0.166 1.012,-0.166 0.791,0 1.482,0.124 2.068,0.37 0.586,0.244 1.119,0.597 1.596,1.057 l 2.566,-2.595 c -0.777,-0.729 -1.664,-1.282 -2.66,-1.666 -1,-0.377 -2.23,-0.567 -3.689,-0.567 -0.871,0 -1.686,0.135 -2.438,0.402 -0.756,0.27 -1.41,0.648 -1.975,1.13 -0.563,0.484 -1.006,1.066 -1.33,1.75 -0.326,0.681 -0.49,1.425 -0.49,2.234 0,0.839 0.148,1.57 0.443,2.189 0.291,0.618 0.68,1.157 1.162,1.615 0.482,0.459 1.049,0.853 1.689,1.18 0.643,0.322 1.314,0.614 2.008,0.866 0.793,0.285 1.445,0.544 1.953,0.773 0.508,0.23 0.904,0.459 1.188,0.679 0.285,0.221 0.484,0.451 0.596,0.688 0.109,0.241 0.168,0.508 0.168,0.809 0,0.286 -0.068,0.549 -0.201,0.784 -0.137,0.238 -0.318,0.441 -0.549,0.62 -0.232,0.175 -0.5,0.311 -0.809,0.413 -0.309,0.107 -0.639,0.158 -0.988,0.158 -0.855,0 -1.648,-0.131 -2.377,-0.395 -0.73,-0.257 -1.475,-0.709 -2.234,-1.342 l -2.619,2.638 c 0.57,0.462 1.121,0.854 1.652,1.18 0.533,0.323 1.088,0.592 1.666,0.795 0.58,0.206 1.199,0.358 1.854,0.452 0.66,0.095 1.402,0.146 2.225,0.146 0.922,0 1.76,-0.151 2.52,-0.438 0.764,-0.296 1.42,-0.689 1.977,-1.182 0.553,-0.49 0.984,-1.058 1.295,-1.699 0.309,-0.641 0.467,-1.32 0.467,-2.032 0,-0.746 -0.106,-1.416 -0.313,-2.011 z"
   id="path132"
   inkscape:connector-curvature="0"
   style="fill:#094183" />
</g>
</svg>